<svg id="Calque_1" data-name="Calque 1" xmlns="http://www.w3.org/2000/svg" viewBox="0 0 700 500"><defs><style>.cls-1{fill:#fefde0;}.cls-1,.cls-10,.cls-11,.cls-2,.cls-3,.cls-4,.cls-5,.cls-6,.cls-7,.cls-8,.cls-9{stroke:#fff;stroke-miterlimit:10;stroke-width:2px;opacity:0.75;}.cls-2{fill:#d7efc3;}.cls-3{fill:#294ed6;}.cls-4{fill:#bc14c1;}.cls-5{fill:#6d8489;}.cls-6{fill:#e5d542;}.cls-7{fill:#f7a6b9;}.cls-8{fill:#75c8cd;}.cls-9{fill:#74e22d;}.cls-10{fill:#475790;}.cls-11{fill:#5bb7ce;}</style></defs><title>cana</title><g id="NS"><polygon class="cls-1" points="634.22 363.37 623.49 363.37 618.13 372.66 623.49 381.95 634.22 381.95 639.58 372.66 634.22 363.37"/><polygon class="cls-1" points="618.15 391.25 607.42 391.25 602.06 400.54 607.42 409.83 618.15 409.83 623.51 400.54 618.15 391.25"/><polygon class="cls-1" points="618.15 372.66 607.42 372.66 602.06 381.95 607.42 391.25 618.15 391.25 623.51 381.95 618.15 372.66"/><polygon class="cls-1" points="618.15 354.08 607.42 354.08 602.06 363.37 607.42 372.66 618.15 372.66 623.51 363.37 618.15 354.08"/><polygon class="cls-1" points="602.08 400.54 591.35 400.54 585.98 409.83 591.35 419.12 602.08 419.12 607.44 409.83 602.08 400.54"/><polygon class="cls-1" points="602.08 381.95 591.35 381.95 585.98 391.25 591.35 400.54 602.08 400.54 607.44 391.25 602.08 381.95"/><polygon class="cls-1" points="602.08 363.37 591.35 363.37 585.98 372.66 591.35 381.95 602.08 381.95 607.44 372.66 602.08 363.37"/><polygon class="cls-1" points="586 409.83 575.27 409.83 569.91 419.12 575.27 428.41 586 428.41 591.37 419.12 586 409.83"/><polygon class="cls-1" points="586 391.25 575.27 391.25 569.91 400.54 575.27 409.83 586 409.83 591.37 400.54 586 391.25"/><polygon class="cls-1" points="569.93 400.54 559.2 400.54 553.84 409.83 559.2 419.12 569.93 419.12 575.29 409.83 569.93 400.54"/></g><g id="NB"><polygon class="cls-1" points="602.08 344.79 591.35 344.79 585.98 354.08 591.35 363.37 602.08 363.37 607.44 354.08 602.08 344.79"/><polygon class="cls-1" points="586 372.66 575.27 372.66 569.91 381.95 575.27 391.25 586 391.25 591.37 381.95 586 372.66"/><polygon class="cls-1" points="586 354.08 575.27 354.08 569.91 363.37 575.27 372.66 586 372.66 591.37 363.37 586 354.08"/><polygon class="cls-1" points="586 335.5 575.27 335.5 569.91 344.79 575.27 354.08 586 354.08 591.37 344.79 586 335.5"/><polygon class="cls-1" points="569.93 381.95 559.2 381.95 553.84 391.25 559.2 400.54 569.93 400.54 575.29 391.25 569.93 381.95"/><polygon class="cls-1" points="569.93 363.37 559.2 363.37 553.84 372.66 559.2 381.95 569.93 381.95 575.29 372.66 569.93 363.37"/><polygon class="cls-1" points="569.93 344.79 559.2 344.79 553.84 354.08 559.2 363.37 569.93 363.37 575.29 354.08 569.93 344.79"/><polygon class="cls-1" points="569.93 326.21 559.2 326.21 553.84 335.5 559.2 344.79 569.93 344.79 575.29 335.5 569.93 326.21"/><polygon class="cls-1" points="553.86 372.66 543.13 372.66 537.77 381.95 543.13 391.25 553.86 391.25 559.22 381.95 553.86 372.66"/><polygon class="cls-1" points="553.86 354.08 543.13 354.08 537.77 363.37 543.13 372.66 553.86 372.66 559.22 363.37 553.86 354.08"/><polygon class="cls-1" points="553.86 335.5 543.13 335.5 537.77 344.79 543.13 354.08 553.86 354.08 559.22 344.79 553.86 335.5"/></g><g id="NL"><polygon class="cls-2" points="666.37 326.21 655.64 326.21 650.27 335.5 655.64 344.79 666.37 344.79 671.73 335.5 666.37 326.21"/><polygon class="cls-2" points="666.37 307.63 655.64 307.63 650.27 316.92 655.64 326.21 666.37 326.21 671.73 316.92 666.37 307.63"/><polygon class="cls-2" points="666.37 289.05 655.64 289.05 650.27 298.34 655.64 307.63 666.37 307.63 671.73 298.34 666.37 289.05"/><polygon class="cls-2" points="666.37 270.47 655.64 270.47 650.27 279.76 655.64 289.05 666.37 289.05 671.73 279.76 666.37 270.47"/><polygon class="cls-2" points="650.29 316.92 639.57 316.92 634.2 326.21 639.57 335.5 650.29 335.5 655.66 326.21 650.29 316.92"/><polygon class="cls-2" points="650.29 298.34 639.57 298.34 634.2 307.63 639.57 316.92 650.29 316.92 655.66 307.63 650.29 298.34"/><polygon class="cls-2" points="650.29 279.76 639.57 279.76 634.2 289.05 639.57 298.34 650.29 298.34 655.66 289.05 650.29 279.76"/><polygon class="cls-2" points="634.22 307.63 623.49 307.63 618.13 316.92 623.49 326.21 634.22 326.21 639.58 316.92 634.22 307.63"/><polygon class="cls-2" points="634.22 289.05 623.49 289.05 618.13 298.34 623.49 307.63 634.22 307.63 639.58 298.34 634.22 289.05"/><polygon class="cls-2" points="634.22 270.47 623.49 270.47 618.13 279.76 623.49 289.05 634.22 289.05 639.58 279.76 634.22 270.47"/><polygon class="cls-2" points="634.22 251.89 623.49 251.89 618.13 261.18 623.49 270.47 634.22 270.47 639.58 261.18 634.22 251.89"/><polygon class="cls-2" points="618.15 261.18 607.42 261.18 602.06 270.47 607.42 279.76 618.15 279.76 623.51 270.47 618.15 261.18"/><polygon class="cls-2" points="618.15 242.6 607.42 242.6 602.06 251.89 607.42 261.18 618.15 261.18 623.51 251.89 618.15 242.6"/><polygon class="cls-2" points="602.08 251.89 591.35 251.89 585.98 261.18 591.35 270.47 602.08 270.47 607.44 261.18 602.08 251.89"/><polygon class="cls-2" points="602.08 233.31 591.35 233.31 585.98 242.6 591.35 251.89 602.08 251.89 607.44 242.6 602.08 233.31"/><polygon class="cls-2" points="586 261.18 575.27 261.18 569.91 270.47 575.27 279.76 586 279.76 591.37 270.47 586 261.18"/><polygon class="cls-2" points="586 242.6 575.27 242.6 569.91 251.89 575.27 261.18 586 261.18 591.37 251.89 586 242.6"/><polygon class="cls-2" points="586 224.02 575.27 224.02 569.91 233.31 575.27 242.6 586 242.6 591.37 233.31 586 224.02"/><polygon class="cls-2" points="569.93 270.47 559.2 270.47 553.84 279.76 559.2 289.05 569.93 289.05 575.29 279.76 569.93 270.47"/><polygon class="cls-2" points="569.93 251.89 559.2 251.89 553.84 261.18 559.2 270.47 569.93 270.47 575.29 261.18 569.93 251.89"/><polygon class="cls-2" points="569.93 233.31 559.2 233.31 553.84 242.6 559.2 251.89 569.93 251.89 575.29 242.6 569.93 233.31"/><polygon class="cls-2" points="569.93 214.73 559.2 214.73 553.84 224.02 559.2 233.31 569.93 233.31 575.29 224.02 569.93 214.73"/><polygon class="cls-2" points="553.86 279.76 543.13 279.76 537.77 289.05 543.13 298.34 553.86 298.34 559.22 289.05 553.86 279.76"/><polygon class="cls-2" points="553.86 261.18 543.13 261.18 537.77 270.47 543.13 279.76 553.86 279.76 559.22 270.47 553.86 261.18"/><polygon class="cls-2" points="553.86 224.02 543.13 224.02 537.77 233.31 543.13 242.6 553.86 242.6 559.22 233.31 553.86 224.02"/><polygon class="cls-2" points="553.86 205.44 543.13 205.44 537.77 214.73 543.13 224.02 553.86 224.02 559.22 214.73 553.86 205.44"/></g><g id="QC"><polygon class="cls-3" points="618.15 298.34 607.42 298.34 602.06 307.63 607.42 316.92 618.15 316.92 623.51 307.63 618.15 298.34"/><polygon class="cls-3" points="618.15 279.76 607.42 279.76 602.06 289.05 607.42 298.34 618.15 298.34 623.51 289.05 618.15 279.76"/><polygon class="cls-3" points="602.08 307.63 591.35 307.63 585.98 316.92 591.35 326.21 602.08 326.21 607.44 316.92 602.08 307.63"/><polygon class="cls-3" points="602.08 289.05 591.35 289.05 585.98 298.34 591.35 307.63 602.08 307.63 607.44 298.34 602.08 289.05"/><polygon class="cls-3" points="602.08 270.47 591.35 270.47 585.98 279.76 591.35 289.05 602.08 289.05 607.44 279.76 602.08 270.47"/><polygon class="cls-3" points="586 316.92 575.27 316.92 569.91 326.21 575.27 335.5 586 335.5 591.37 326.21 586 316.92"/><polygon class="cls-3" points="586 298.34 575.27 298.34 569.91 307.63 575.27 316.92 586 316.92 591.37 307.63 586 298.34"/><polygon class="cls-3" points="586 279.76 575.27 279.76 569.91 289.05 575.27 298.34 586 298.34 591.37 289.05 586 279.76"/><polygon class="cls-3" points="569.93 307.63 559.2 307.63 553.84 316.92 559.2 326.21 569.93 326.21 575.29 316.92 569.93 307.63"/><polygon class="cls-3" points="569.93 289.05 559.2 289.05 553.84 298.34 559.2 307.63 569.93 307.63 575.29 298.34 569.93 289.05"/><polygon class="cls-3" points="553.86 316.92 543.13 316.92 537.77 326.21 543.13 335.5 553.86 335.5 559.22 326.21 553.86 316.92"/><polygon class="cls-3" points="553.86 298.34 543.13 298.34 537.77 307.63 543.13 316.92 553.86 316.92 559.22 307.63 553.86 298.34"/><polygon class="cls-3" points="553.86 242.6 543.13 242.6 537.77 251.89 543.13 261.18 553.86 261.18 559.22 251.89 553.86 242.6"/><polygon class="cls-3" points="537.79 363.37 527.06 363.37 521.69 372.66 527.06 381.95 537.79 381.95 543.15 372.66 537.79 363.37"/><polygon class="cls-3" points="537.79 344.79 527.06 344.79 521.69 354.08 527.06 363.37 537.79 363.37 543.15 354.08 537.79 344.79"/><polygon class="cls-3" points="537.79 326.21 527.06 326.21 521.69 335.5 527.06 344.79 537.79 344.79 543.15 335.5 537.79 326.21"/><polygon class="cls-3" points="537.79 307.63 527.06 307.63 521.69 316.92 527.06 326.21 537.79 326.21 543.15 316.92 537.79 307.63"/><polygon class="cls-3" points="537.79 289.05 527.06 289.05 521.69 298.34 527.06 307.63 537.79 307.63 543.15 298.34 537.79 289.05"/><polygon class="cls-3" points="537.79 270.47 527.06 270.47 521.69 279.76 527.06 289.05 537.79 289.05 543.15 279.76 537.79 270.47"/><polygon class="cls-3" points="537.79 251.89 527.06 251.89 521.69 261.18 527.06 270.47 537.79 270.47 543.15 261.18 537.79 251.89"/><polygon class="cls-3" points="537.79 233.31 527.06 233.31 521.69 242.6 527.06 251.89 537.79 251.89 543.15 242.6 537.79 233.31"/><polygon class="cls-3" points="537.79 214.73 527.06 214.73 521.69 224.02 527.06 233.31 537.79 233.31 543.15 224.02 537.79 214.73"/><polygon class="cls-3" points="537.79 196.15 527.06 196.15 521.69 205.44 527.06 214.73 537.79 214.73 543.15 205.44 537.79 196.15"/><polygon class="cls-3" points="521.71 372.66 510.99 372.66 505.62 381.95 510.99 391.25 521.71 391.25 527.08 381.95 521.71 372.66"/><polygon class="cls-3" points="521.71 354.08 510.99 354.08 505.62 363.37 510.99 372.66 521.71 372.66 527.08 363.37 521.71 354.08"/><polygon class="cls-3" points="521.71 335.5 510.99 335.5 505.62 344.79 510.99 354.08 521.71 354.08 527.08 344.79 521.71 335.5"/><polygon class="cls-3" points="521.71 316.92 510.99 316.92 505.62 326.21 510.99 335.5 521.71 335.5 527.08 326.21 521.71 316.92"/><polygon class="cls-3" points="521.71 298.34 510.99 298.34 505.62 307.63 510.99 316.92 521.71 316.92 527.08 307.63 521.71 298.34"/><polygon class="cls-3" points="521.71 279.76 510.99 279.76 505.62 289.05 510.99 298.34 521.71 298.34 527.08 289.05 521.71 279.76"/><polygon class="cls-3" points="521.71 261.18 510.99 261.18 505.62 270.47 510.99 279.76 521.71 279.76 527.08 270.47 521.71 261.18"/><polygon class="cls-3" points="521.71 242.6 510.99 242.6 505.62 251.89 510.99 261.18 521.71 261.18 527.08 251.89 521.71 242.6"/><polygon class="cls-3" points="521.71 224.02 510.99 224.02 505.62 233.31 510.99 242.6 521.71 242.6 527.08 233.31 521.71 224.02"/><polygon class="cls-3" points="505.64 381.95 494.91 381.95 489.55 391.25 494.91 400.54 505.64 400.54 511 391.25 505.64 381.95"/><polygon class="cls-3" points="505.64 363.37 494.91 363.37 489.55 372.66 494.91 381.95 505.64 381.95 511 372.66 505.64 363.37"/><polygon class="cls-3" points="505.64 344.79 494.91 344.79 489.55 354.08 494.91 363.37 505.64 363.37 511 354.08 505.64 344.79"/><polygon class="cls-3" points="505.64 326.21 494.91 326.21 489.55 335.5 494.91 344.79 505.64 344.79 511 335.5 505.64 326.21"/><polygon class="cls-3" points="505.64 307.63 494.91 307.63 489.55 316.92 494.91 326.21 505.64 326.21 511 316.92 505.64 307.63"/><polygon class="cls-3" points="505.64 289.05 494.91 289.05 489.55 298.34 494.91 307.63 505.64 307.63 511 298.34 505.64 289.05"/><polygon class="cls-3" points="505.64 270.47 494.91 270.47 489.55 279.76 494.91 289.05 505.64 289.05 511 279.76 505.64 270.47"/><polygon class="cls-3" points="505.64 251.89 494.91 251.89 489.55 261.18 494.91 270.47 505.64 270.47 511 261.18 505.64 251.89"/><polygon class="cls-3" points="505.64 233.31 494.91 233.31 489.55 242.6 494.91 251.89 505.64 251.89 511 242.6 505.64 233.31"/><polygon class="cls-3" points="505.64 214.73 494.91 214.73 489.55 224.02 494.91 233.31 505.64 233.31 511 224.02 505.64 214.73"/><polygon class="cls-3" points="489.57 372.66 478.84 372.66 473.48 381.95 478.84 391.25 489.57 391.25 494.93 381.95 489.57 372.66"/><polygon class="cls-3" points="489.57 354.08 478.84 354.08 473.48 363.37 478.84 372.66 489.57 372.66 494.93 363.37 489.57 354.08"/><polygon class="cls-3" points="489.57 335.5 478.84 335.5 473.48 344.79 478.84 354.08 489.57 354.08 494.93 344.79 489.57 335.5"/><polygon class="cls-3" points="489.57 316.92 478.84 316.92 473.48 326.21 478.84 335.5 489.57 335.5 494.93 326.21 489.57 316.92"/><polygon class="cls-3" points="489.57 298.34 478.84 298.34 473.48 307.63 478.84 316.92 489.57 316.92 494.93 307.63 489.57 298.34"/><polygon class="cls-3" points="489.57 279.76 478.84 279.76 473.48 289.05 478.84 298.34 489.57 298.34 494.93 289.05 489.57 279.76"/><polygon class="cls-3" points="489.57 261.18 478.84 261.18 473.48 270.47 478.84 279.76 489.57 279.76 494.93 270.47 489.57 261.18"/><polygon class="cls-3" points="489.57 242.6 478.84 242.6 473.48 251.89 478.84 261.18 489.57 261.18 494.93 251.89 489.57 242.6"/><polygon class="cls-3" points="489.57 224.02 478.84 224.02 473.48 233.31 478.84 242.6 489.57 242.6 494.93 233.31 489.57 224.02"/><polygon class="cls-3" points="489.57 205.44 478.84 205.44 473.48 214.73 478.84 224.02 489.57 224.02 494.93 214.73 489.57 205.44"/><polygon class="cls-3" points="489.57 186.86 478.84 186.86 473.48 196.15 478.84 205.44 489.57 205.44 494.93 196.15 489.57 186.86"/><polygon class="cls-3" points="473.5 381.95 462.77 381.95 457.4 391.25 462.77 400.54 473.5 400.54 478.86 391.25 473.5 381.95"/><polygon class="cls-3" points="473.5 363.37 462.77 363.37 457.4 372.66 462.77 381.95 473.5 381.95 478.86 372.66 473.5 363.37"/><polygon class="cls-3" points="473.5 344.79 462.77 344.79 457.4 354.08 462.77 363.37 473.5 363.37 478.86 354.08 473.5 344.79"/><polygon class="cls-3" points="473.5 326.21 462.77 326.21 457.4 335.5 462.77 344.79 473.5 344.79 478.86 335.5 473.5 326.21"/><polygon class="cls-3" points="473.5 307.63 462.77 307.63 457.4 316.92 462.77 326.21 473.5 326.21 478.86 316.92 473.5 307.63"/><polygon class="cls-3" points="473.5 289.05 462.77 289.05 457.4 298.34 462.77 307.63 473.5 307.63 478.86 298.34 473.5 289.05"/><polygon class="cls-3" points="473.5 270.47 462.77 270.47 457.4 279.76 462.77 289.05 473.5 289.05 478.86 279.76 473.5 270.47"/><polygon class="cls-3" points="473.5 251.89 462.77 251.89 457.4 261.18 462.77 270.47 473.5 270.47 478.86 261.18 473.5 251.89"/><polygon class="cls-3" points="473.5 233.31 462.77 233.31 457.4 242.6 462.77 251.89 473.5 251.89 478.86 242.6 473.5 233.31"/><polygon class="cls-3" points="473.5 214.73 462.77 214.73 457.4 224.02 462.77 233.31 473.5 233.31 478.86 224.02 473.5 214.73"/><polygon class="cls-3" points="473.5 196.15 462.77 196.15 457.4 205.44 462.77 214.73 473.5 214.73 478.86 205.44 473.5 196.15"/><polygon class="cls-3" points="473.5 177.57 462.77 177.57 457.4 186.86 462.77 196.15 473.5 196.15 478.86 186.86 473.5 177.57"/><polygon class="cls-3" points="457.42 335.5 446.7 335.5 441.33 344.79 446.7 354.08 457.42 354.08 462.79 344.79 457.42 335.5"/><polygon class="cls-3" points="457.42 316.92 446.7 316.92 441.33 326.21 446.7 335.5 457.42 335.5 462.79 326.21 457.42 316.92"/><polygon class="cls-3" points="457.42 298.34 446.7 298.34 441.33 307.63 446.7 316.92 457.42 316.92 462.79 307.63 457.42 298.34"/><polygon class="cls-3" points="457.42 279.76 446.7 279.76 441.33 289.05 446.7 298.34 457.42 298.34 462.79 289.05 457.42 279.76"/><polygon class="cls-3" points="457.42 261.18 446.7 261.18 441.33 270.47 446.7 279.76 457.42 279.76 462.79 270.47 457.42 261.18"/><polygon class="cls-3" points="457.42 242.6 446.7 242.6 441.33 251.89 446.7 261.18 457.42 261.18 462.79 251.89 457.42 242.6"/><polygon class="cls-3" points="457.42 224.02 446.7 224.02 441.33 233.31 446.7 242.6 457.42 242.6 462.79 233.31 457.42 224.02"/><polygon class="cls-3" points="457.42 205.44 446.7 205.44 441.33 214.73 446.7 224.02 457.42 224.02 462.79 214.73 457.42 205.44"/><polygon class="cls-3" points="457.42 186.86 446.7 186.86 441.33 196.15 446.7 205.44 457.42 205.44 462.79 196.15 457.42 186.86"/><polygon class="cls-3" points="457.42 168.28 446.7 168.28 441.33 177.57 446.7 186.86 457.42 186.86 462.79 177.57 457.42 168.28"/><polygon class="cls-3" points="441.35 307.63 430.62 307.63 425.26 316.92 430.62 326.21 441.35 326.21 446.71 316.92 441.35 307.63"/><polygon class="cls-3" points="441.35 289.05 430.62 289.05 425.26 298.34 430.62 307.63 441.35 307.63 446.71 298.34 441.35 289.05"/><polygon class="cls-3" points="441.35 233.31 430.62 233.31 425.26 242.6 430.62 251.89 441.35 251.89 446.71 242.6 441.35 233.31"/><polygon class="cls-3" points="441.35 214.73 430.62 214.73 425.26 224.02 430.62 233.31 441.35 233.31 446.71 224.02 441.35 214.73"/><polygon class="cls-3" points="441.35 196.15 430.62 196.15 425.26 205.44 430.62 214.73 441.35 214.73 446.71 205.44 441.35 196.15"/><polygon class="cls-3" points="441.35 177.57 430.62 177.57 425.26 186.86 430.62 196.15 441.35 196.15 446.71 186.86 441.35 177.57"/></g><g id="ON"><polygon class="cls-4" points="489.57 428.41 478.84 428.41 473.48 437.7 478.84 446.99 489.57 446.99 494.93 437.7 489.57 428.41"/><polygon class="cls-4" points="489.57 409.83 478.84 409.83 473.48 419.12 478.84 428.41 489.57 428.41 494.93 419.12 489.57 409.83"/><polygon class="cls-4" points="489.57 391.25 478.84 391.25 473.48 400.54 478.84 409.83 489.57 409.83 494.93 400.54 489.57 391.25"/><polygon class="cls-4" points="473.5 437.7 462.77 437.7 457.4 446.99 462.77 456.28 473.5 456.28 478.86 446.99 473.5 437.7"/><polygon class="cls-4" points="473.5 419.12 462.77 419.12 457.4 428.41 462.77 437.7 473.5 437.7 478.86 428.41 473.5 419.12"/><polygon class="cls-4" points="473.5 400.54 462.77 400.54 457.4 409.83 462.77 419.12 473.5 419.12 478.86 409.83 473.5 400.54"/><polygon class="cls-4" points="457.42 446.99 446.7 446.99 441.33 456.28 446.7 465.57 457.42 465.57 462.79 456.28 457.42 446.99"/><polygon class="cls-4" points="457.42 428.41 446.7 428.41 441.33 437.7 446.7 446.99 457.42 446.99 462.79 437.7 457.42 428.41"/><polygon class="cls-4" points="457.42 409.83 446.7 409.83 441.33 419.12 446.7 428.41 457.42 428.41 462.79 419.12 457.42 409.83"/><polygon class="cls-4" points="457.42 391.25 446.7 391.25 441.33 400.54 446.7 409.83 457.42 409.83 462.79 400.54 457.42 391.25"/><polygon class="cls-4" points="457.42 372.66 446.7 372.66 441.33 381.95 446.7 391.25 457.42 391.25 462.79 381.95 457.42 372.66"/><polygon class="cls-4" points="457.42 354.08 446.7 354.08 441.33 363.37 446.7 372.66 457.42 372.66 462.79 363.37 457.42 354.08"/><polygon class="cls-4" points="441.35 456.28 430.62 456.28 425.26 465.57 430.62 474.86 441.35 474.86 446.71 465.57 441.35 456.28"/><polygon class="cls-4" points="441.35 437.7 430.62 437.7 425.26 446.99 430.62 456.28 441.35 456.28 446.71 446.99 441.35 437.7"/><polygon class="cls-4" points="441.35 419.12 430.62 419.12 425.26 428.41 430.62 437.7 441.35 437.7 446.71 428.41 441.35 419.12"/><polygon class="cls-4" points="441.35 400.54 430.62 400.54 425.26 409.83 430.62 419.12 441.35 419.12 446.71 409.83 441.35 400.54"/><polygon class="cls-4" points="441.35 381.95 430.62 381.95 425.26 391.25 430.62 400.54 441.35 400.54 446.71 391.25 441.35 381.95"/><polygon class="cls-4" points="441.35 363.37 430.62 363.37 425.26 372.66 430.62 381.95 441.35 381.95 446.71 372.66 441.35 363.37"/><polygon class="cls-4" points="441.35 344.79 430.62 344.79 425.26 354.08 430.62 363.37 441.35 363.37 446.71 354.08 441.35 344.79"/><polygon class="cls-4" points="441.35 326.21 430.62 326.21 425.26 335.5 430.62 344.79 441.35 344.79 446.71 335.5 441.35 326.21"/><polygon class="cls-4" points="425.28 446.99 414.55 446.99 409.19 456.28 414.55 465.57 425.28 465.57 430.64 456.28 425.28 446.99"/><polygon class="cls-4" points="425.28 428.41 414.55 428.41 409.19 437.7 414.55 446.99 425.28 446.99 430.64 437.7 425.28 428.41"/><polygon class="cls-4" points="425.28 391.25 414.55 391.25 409.19 400.54 414.55 409.83 425.28 409.83 430.64 400.54 425.28 391.25"/><polygon class="cls-4" points="425.28 372.66 414.55 372.66 409.19 381.95 414.55 391.25 425.28 391.25 430.64 381.95 425.28 372.66"/><polygon class="cls-4" points="425.28 354.08 414.55 354.08 409.19 363.37 414.55 372.66 425.28 372.66 430.64 363.37 425.28 354.08"/><polygon class="cls-4" points="425.28 335.5 414.55 335.5 409.19 344.79 414.55 354.08 425.28 354.08 430.64 344.79 425.28 335.5"/><polygon class="cls-4" points="425.28 316.92 414.55 316.92 409.19 326.21 414.55 335.5 425.28 335.5 430.64 326.21 425.28 316.92"/><polygon class="cls-4" points="425.28 298.34 414.55 298.34 409.19 307.63 414.55 316.92 425.28 316.92 430.64 307.63 425.28 298.34"/><polygon class="cls-4" points="425.28 279.76 414.55 279.76 409.19 289.05 414.55 298.34 425.28 298.34 430.64 289.05 425.28 279.76"/><polygon class="cls-4" points="409.21 400.54 398.48 400.54 393.12 409.83 398.48 419.12 409.21 419.12 414.57 409.83 409.21 400.54"/><polygon class="cls-4" points="409.21 381.95 398.48 381.95 393.12 391.25 398.48 400.54 409.21 400.54 414.57 391.25 409.21 381.95"/><polygon class="cls-4" points="409.21 363.37 398.48 363.37 393.12 372.66 398.48 381.95 409.21 381.95 414.57 372.66 409.21 363.37"/><polygon class="cls-4" points="409.21 344.79 398.48 344.79 393.12 354.08 398.48 363.37 409.21 363.37 414.57 354.08 409.21 344.79"/><polygon class="cls-4" points="409.21 326.21 398.48 326.21 393.12 335.5 398.48 344.79 409.21 344.79 414.57 335.5 409.21 326.21"/><polygon class="cls-4" points="409.21 307.63 398.48 307.63 393.12 316.92 398.48 326.21 409.21 326.21 414.57 316.92 409.21 307.63"/><polygon class="cls-4" points="409.21 289.05 398.48 289.05 393.12 298.34 398.48 307.63 409.21 307.63 414.57 298.34 409.21 289.05"/><polygon class="cls-4" points="393.13 372.66 382.41 372.66 377.04 381.95 382.41 391.25 393.13 391.25 398.5 381.95 393.13 372.66"/><polygon class="cls-4" points="393.13 354.08 382.41 354.08 377.04 363.37 382.41 372.66 393.13 372.66 398.5 363.37 393.13 354.08"/><polygon class="cls-4" points="393.13 335.5 382.41 335.5 377.04 344.79 382.41 354.08 393.13 354.08 398.5 344.79 393.13 335.5"/><polygon class="cls-4" points="393.13 316.92 382.41 316.92 377.04 326.21 382.41 335.5 393.13 335.5 398.5 326.21 393.13 316.92"/><polygon class="cls-4" points="393.13 298.34 382.41 298.34 377.04 307.63 382.41 316.92 393.13 316.92 398.5 307.63 393.13 298.34"/><polygon class="cls-4" points="393.13 279.76 382.41 279.76 377.04 289.05 382.41 298.34 393.13 298.34 398.5 289.05 393.13 279.76"/><polygon class="cls-4" points="377.06 363.37 366.33 363.37 360.97 372.66 366.33 381.95 377.06 381.95 382.43 372.66 377.06 363.37"/><polygon class="cls-4" points="377.06 344.79 366.33 344.79 360.97 354.08 366.33 363.37 377.06 363.37 382.43 354.08 377.06 344.79"/><polygon class="cls-4" points="377.06 326.21 366.33 326.21 360.97 335.5 366.33 344.79 377.06 344.79 382.43 335.5 377.06 326.21"/><polygon class="cls-4" points="377.06 307.63 366.33 307.63 360.97 316.92 366.33 326.21 377.06 326.21 382.43 316.92 377.06 307.63"/><polygon class="cls-4" points="377.06 289.05 366.33 289.05 360.97 298.34 366.33 307.63 377.06 307.63 382.43 298.34 377.06 289.05"/><polygon class="cls-4" points="377.06 270.47 366.33 270.47 360.97 279.76 366.33 289.05 377.06 289.05 382.43 279.76 377.06 270.47"/><polygon class="cls-4" points="360.99 372.66 350.26 372.66 344.9 381.95 350.26 391.25 360.99 391.25 366.35 381.95 360.99 372.66"/><polygon class="cls-4" points="360.99 354.08 350.26 354.08 344.9 363.37 350.26 372.66 360.99 372.66 366.35 363.37 360.99 354.08"/><polygon class="cls-4" points="360.99 335.5 350.26 335.5 344.9 344.79 350.26 354.08 360.99 354.08 366.35 344.79 360.99 335.5"/><polygon class="cls-4" points="360.99 316.92 350.26 316.92 344.9 326.21 350.26 335.5 360.99 335.5 366.35 326.21 360.99 316.92"/><polygon class="cls-4" points="360.99 298.34 350.26 298.34 344.9 307.63 350.26 316.92 360.99 316.92 366.35 307.63 360.99 298.34"/><polygon class="cls-4" points="344.92 363.37 334.19 363.37 328.82 372.66 334.19 381.95 344.92 381.95 350.28 372.66 344.92 363.37"/><polygon class="cls-4" points="344.92 344.79 334.19 344.79 328.82 354.08 334.19 363.37 344.92 363.37 350.28 354.08 344.92 344.79"/><polygon class="cls-4" points="344.92 326.21 334.19 326.21 328.82 335.5 334.19 344.79 344.92 344.79 350.28 335.5 344.92 326.21"/><polygon class="cls-4" points="344.92 307.63 334.19 307.63 328.82 316.92 334.19 326.21 344.92 326.21 350.28 316.92 344.92 307.63"/></g><g id="MB"><polygon class="cls-5" points="360.99 279.76 350.26 279.76 344.9 289.05 350.26 298.34 360.99 298.34 366.35 289.05 360.99 279.76"/><polygon class="cls-5" points="360.99 261.18 350.26 261.18 344.9 270.47 350.26 279.76 360.99 279.76 366.35 270.47 360.99 261.18"/><polygon class="cls-5" points="344.92 289.05 334.19 289.05 328.82 298.34 334.19 307.63 344.92 307.63 350.28 298.34 344.92 289.05"/><polygon class="cls-5" points="344.92 270.47 334.19 270.47 328.82 279.76 334.19 289.05 344.92 289.05 350.28 279.76 344.92 270.47"/><polygon class="cls-5" points="344.92 251.89 334.19 251.89 328.82 261.18 334.19 270.47 344.92 270.47 350.28 261.18 344.92 251.89"/><polygon class="cls-5" points="344.92 233.31 334.19 233.31 328.82 242.6 334.19 251.89 344.92 251.89 350.28 242.6 344.92 233.31"/><polygon class="cls-5" points="328.84 354.08 318.12 354.08 312.75 363.37 318.12 372.66 328.84 372.66 334.21 363.37 328.84 354.08"/><polygon class="cls-5" points="328.84 335.5 318.12 335.5 312.75 344.79 318.12 354.08 328.84 354.08 334.21 344.79 328.84 335.5"/><polygon class="cls-5" points="328.84 316.92 318.12 316.92 312.75 326.21 318.12 335.5 328.84 335.5 334.21 326.21 328.84 316.92"/><polygon class="cls-5" points="328.84 298.34 318.12 298.34 312.75 307.63 318.12 316.92 328.84 316.92 334.21 307.63 328.84 298.34"/><polygon class="cls-5" points="328.84 279.76 318.12 279.76 312.75 289.05 318.12 298.34 328.84 298.34 334.21 289.05 328.84 279.76"/><polygon class="cls-5" points="328.84 261.18 318.12 261.18 312.75 270.47 318.12 279.76 328.84 279.76 334.21 270.47 328.84 261.18"/><polygon class="cls-5" points="328.84 242.6 318.12 242.6 312.75 251.89 318.12 261.18 328.84 261.18 334.21 251.89 328.84 242.6"/><polygon class="cls-5" points="328.84 224.02 318.12 224.02 312.75 233.31 318.12 242.6 328.84 242.6 334.21 233.31 328.84 224.02"/><polygon class="cls-5" points="312.77 363.37 302.04 363.37 296.68 372.66 302.04 381.95 312.77 381.95 318.14 372.66 312.77 363.37"/><polygon class="cls-5" points="312.77 344.79 302.04 344.79 296.68 354.08 302.04 363.37 312.77 363.37 318.14 354.08 312.77 344.79"/><polygon class="cls-5" points="312.77 326.21 302.04 326.21 296.68 335.5 302.04 344.79 312.77 344.79 318.14 335.5 312.77 326.21"/><polygon class="cls-5" points="312.77 307.63 302.04 307.63 296.68 316.92 302.04 326.21 312.77 326.21 318.14 316.92 312.77 307.63"/><polygon class="cls-5" points="312.77 289.05 302.04 289.05 296.68 298.34 302.04 307.63 312.77 307.63 318.14 298.34 312.77 289.05"/><polygon class="cls-5" points="312.77 270.47 302.04 270.47 296.68 279.76 302.04 289.05 312.77 289.05 318.14 279.76 312.77 270.47"/><polygon class="cls-5" points="312.77 251.89 302.04 251.89 296.68 261.18 302.04 270.47 312.77 270.47 318.14 261.18 312.77 251.89"/><polygon class="cls-5" points="312.77 233.31 302.04 233.31 296.68 242.6 302.04 251.89 312.77 251.89 318.14 242.6 312.77 233.31"/><polygon class="cls-5" points="312.77 214.73 302.04 214.73 296.68 224.02 302.04 233.31 312.77 233.31 318.14 224.02 312.77 214.73"/><polygon class="cls-5" points="296.7 354.08 285.97 354.08 280.61 363.37 285.97 372.66 296.7 372.66 302.06 363.37 296.7 354.08"/><polygon class="cls-5" points="296.7 335.5 285.97 335.5 280.61 344.79 285.97 354.08 296.7 354.08 302.06 344.79 296.7 335.5"/><polygon class="cls-5" points="296.7 316.92 285.97 316.92 280.61 326.21 285.97 335.5 296.7 335.5 302.06 326.21 296.7 316.92"/><polygon class="cls-5" points="296.7 298.34 285.97 298.34 280.61 307.63 285.97 316.92 296.7 316.92 302.06 307.63 296.7 298.34"/><polygon class="cls-5" points="296.7 279.76 285.97 279.76 280.61 289.05 285.97 298.34 296.7 298.34 302.06 289.05 296.7 279.76"/><polygon class="cls-5" points="296.7 261.18 285.97 261.18 280.61 270.47 285.97 279.76 296.7 279.76 302.06 270.47 296.7 261.18"/><polygon class="cls-5" points="296.7 242.6 285.97 242.6 280.61 251.89 285.97 261.18 296.7 261.18 302.06 251.89 296.7 242.6"/><polygon class="cls-5" points="296.7 224.02 285.97 224.02 280.61 233.31 285.97 242.6 296.7 242.6 302.06 233.31 296.7 224.02"/><polygon class="cls-5" points="296.7 205.44 285.97 205.44 280.61 214.73 285.97 224.02 296.7 224.02 302.06 214.73 296.7 205.44"/><polygon class="cls-5" points="280.63 344.79 269.9 344.79 264.54 354.08 269.9 363.37 280.63 363.37 285.99 354.08 280.63 344.79"/><polygon class="cls-5" points="280.63 326.21 269.9 326.21 264.54 335.5 269.9 344.79 280.63 344.79 285.99 335.5 280.63 326.21"/><polygon class="cls-5" points="280.63 307.63 269.9 307.63 264.54 316.92 269.9 326.21 280.63 326.21 285.99 316.92 280.63 307.63"/></g><g id="SK"><polygon class="cls-6" points="280.63 289.05 269.9 289.05 264.54 298.34 269.9 307.63 280.63 307.63 285.99 298.34 280.63 289.05"/><polygon class="cls-6" points="280.63 270.47 269.9 270.47 264.54 279.76 269.9 289.05 280.63 289.05 285.99 279.76 280.63 270.47"/><polygon class="cls-6" points="280.63 251.89 269.9 251.89 264.54 261.18 269.9 270.47 280.63 270.47 285.99 261.18 280.63 251.89"/><polygon class="cls-6" points="280.63 233.31 269.9 233.31 264.54 242.6 269.9 251.89 280.63 251.89 285.99 242.6 280.63 233.31"/><polygon class="cls-6" points="280.63 214.73 269.9 214.73 264.54 224.02 269.9 233.31 280.63 233.31 285.99 224.02 280.63 214.73"/><polygon class="cls-6" points="264.56 372.66 253.83 372.66 248.46 381.95 253.83 391.25 264.56 391.25 269.92 381.95 264.56 372.66"/><polygon class="cls-6" points="264.56 354.08 253.83 354.08 248.46 363.37 253.83 372.66 264.56 372.66 269.92 363.37 264.56 354.08"/><polygon class="cls-6" points="264.56 335.5 253.83 335.5 248.46 344.79 253.83 354.08 264.56 354.08 269.92 344.79 264.56 335.5"/><polygon class="cls-6" points="264.56 316.92 253.83 316.92 248.46 326.21 253.83 335.5 264.56 335.5 269.92 326.21 264.56 316.92"/><polygon class="cls-6" points="264.56 298.34 253.83 298.34 248.46 307.63 253.83 316.92 264.56 316.92 269.92 307.63 264.56 298.34"/><polygon class="cls-6" points="264.56 279.76 253.83 279.76 248.46 289.05 253.83 298.34 264.56 298.34 269.92 289.05 264.56 279.76"/><polygon class="cls-6" points="264.56 261.18 253.83 261.18 248.46 270.47 253.83 279.76 264.56 279.76 269.92 270.47 264.56 261.18"/><polygon class="cls-6" points="264.56 242.6 253.83 242.6 248.46 251.89 253.83 261.18 264.56 261.18 269.92 251.89 264.56 242.6"/><polygon class="cls-6" points="264.56 224.02 253.83 224.02 248.46 233.31 253.83 242.6 264.56 242.6 269.92 233.31 264.56 224.02"/><polygon class="cls-6" points="264.56 205.44 253.83 205.44 248.46 214.73 253.83 224.02 264.56 224.02 269.92 214.73 264.56 205.44"/><polygon class="cls-6" points="248.48 363.37 237.75 363.37 232.39 372.66 237.75 381.95 248.48 381.95 253.85 372.66 248.48 363.37"/><polygon class="cls-6" points="248.48 344.79 237.75 344.79 232.39 354.08 237.75 363.37 248.48 363.37 253.85 354.08 248.48 344.79"/><polygon class="cls-6" points="248.48 326.21 237.75 326.21 232.39 335.5 237.75 344.79 248.48 344.79 253.85 335.5 248.48 326.21"/><polygon class="cls-6" points="248.48 307.63 237.75 307.63 232.39 316.92 237.75 326.21 248.48 326.21 253.85 316.92 248.48 307.63"/><polygon class="cls-6" points="248.48 289.05 237.75 289.05 232.39 298.34 237.75 307.63 248.48 307.63 253.85 298.34 248.48 289.05"/><polygon class="cls-6" points="248.48 270.47 237.75 270.47 232.39 279.76 237.75 289.05 248.48 289.05 253.85 279.76 248.48 270.47"/><polygon class="cls-6" points="248.48 251.89 237.75 251.89 232.39 261.18 237.75 270.47 248.48 270.47 253.85 261.18 248.48 251.89"/><polygon class="cls-6" points="248.48 233.31 237.75 233.31 232.39 242.6 237.75 251.89 248.48 251.89 253.85 242.6 248.48 233.31"/><polygon class="cls-6" points="248.48 214.73 237.75 214.73 232.39 224.02 237.75 233.31 248.48 233.31 253.85 224.02 248.48 214.73"/><polygon class="cls-6" points="232.41 354.08 221.68 354.08 216.32 363.37 221.68 372.66 232.41 372.66 237.77 363.37 232.41 354.08"/><polygon class="cls-6" points="232.41 335.5 221.68 335.5 216.32 344.79 221.68 354.08 232.41 354.08 237.77 344.79 232.41 335.5"/><polygon class="cls-6" points="232.41 316.92 221.68 316.92 216.32 326.21 221.68 335.5 232.41 335.5 237.77 326.21 232.41 316.92"/><polygon class="cls-6" points="232.41 298.34 221.68 298.34 216.32 307.63 221.68 316.92 232.41 316.92 237.77 307.63 232.41 298.34"/><polygon class="cls-6" points="232.41 279.76 221.68 279.76 216.32 289.05 221.68 298.34 232.41 298.34 237.77 289.05 232.41 279.76"/><polygon class="cls-6" points="232.41 261.18 221.68 261.18 216.32 270.47 221.68 279.76 232.41 279.76 237.77 270.47 232.41 261.18"/><polygon class="cls-6" points="232.41 242.6 221.68 242.6 216.32 251.89 221.68 261.18 232.41 261.18 237.77 251.89 232.41 242.6"/><polygon class="cls-6" points="216.34 344.79 205.61 344.79 200.25 354.08 205.61 363.37 216.34 363.37 221.7 354.08 216.34 344.79"/><polygon class="cls-6" points="216.34 326.21 205.61 326.21 200.25 335.5 205.61 344.79 216.34 344.79 221.7 335.5 216.34 326.21"/></g><g id="NU"><polygon class="cls-7" points="377.06 158.99 366.33 158.99 360.97 168.28 366.33 177.57 377.06 177.57 382.43 168.28 377.06 158.99"/><polygon class="cls-7" points="377.06 140.4 366.33 140.4 360.97 149.69 366.33 158.99 377.06 158.99 382.43 149.69 377.06 140.4"/><polygon class="cls-7" points="377.06 121.82 366.33 121.82 360.97 131.11 366.33 140.4 377.06 140.4 382.43 131.11 377.06 121.82"/><polygon class="cls-7" points="377.06 103.24 366.33 103.24 360.97 112.53 366.33 121.82 377.06 121.82 382.43 112.53 377.06 103.24"/><polygon class="cls-7" points="360.99 168.28 350.26 168.28 344.9 177.57 350.26 186.86 360.99 186.86 366.35 177.57 360.99 168.28"/><polygon class="cls-7" points="360.99 149.69 350.26 149.69 344.9 158.99 350.26 168.28 360.99 168.28 366.35 158.99 360.99 149.69"/><polygon class="cls-7" points="360.99 131.11 350.26 131.11 344.9 140.4 350.26 149.69 360.99 149.69 366.35 140.4 360.99 131.11"/><polygon class="cls-7" points="360.99 112.53 350.26 112.53 344.9 121.82 350.26 131.11 360.99 131.11 366.35 121.82 360.99 112.53"/><polygon class="cls-7" points="360.99 93.95 350.26 93.95 344.9 103.24 350.26 112.53 360.99 112.53 366.35 103.24 360.99 93.95"/><polygon class="cls-7" points="344.92 196.15 334.19 196.15 328.82 205.44 334.19 214.73 344.92 214.73 350.28 205.44 344.92 196.15"/><polygon class="cls-7" points="344.92 177.57 334.19 177.57 328.82 186.86 334.19 196.15 344.92 196.15 350.28 186.86 344.92 177.57"/><polygon class="cls-7" points="344.92 158.99 334.19 158.99 328.82 168.28 334.19 177.57 344.92 177.57 350.28 168.28 344.92 158.99"/><polygon class="cls-7" points="344.92 140.4 334.19 140.4 328.82 149.69 334.19 158.99 344.92 158.99 350.28 149.69 344.92 140.4"/><polygon class="cls-7" points="344.92 121.82 334.19 121.82 328.82 131.11 334.19 140.4 344.92 140.4 350.28 131.11 344.92 121.82"/><polygon class="cls-7" points="344.92 103.24 334.19 103.24 328.82 112.53 334.19 121.82 344.92 121.82 350.28 112.53 344.92 103.24"/><polygon class="cls-7" points="344.92 84.66 334.19 84.66 328.82 93.95 334.19 103.24 344.92 103.24 350.28 93.95 344.92 84.66"/><polygon class="cls-7" points="328.84 205.44 318.12 205.44 312.75 214.73 318.12 224.02 328.84 224.02 334.21 214.73 328.84 205.44"/><polygon class="cls-7" points="328.84 186.86 318.12 186.86 312.75 196.15 318.12 205.44 328.84 205.44 334.21 196.15 328.84 186.86"/><polygon class="cls-7" points="328.84 168.28 318.12 168.28 312.75 177.57 318.12 186.86 328.84 186.86 334.21 177.57 328.84 168.28"/><polygon class="cls-7" points="328.84 149.69 318.12 149.69 312.75 158.99 318.12 168.28 328.84 168.28 334.21 158.99 328.84 149.69"/><polygon class="cls-7" points="328.84 131.11 318.12 131.11 312.75 140.4 318.12 149.69 328.84 149.69 334.21 140.4 328.84 131.11"/><polygon class="cls-7" points="328.84 112.53 318.12 112.53 312.75 121.82 318.12 131.11 328.84 131.11 334.21 121.82 328.84 112.53"/><polygon class="cls-7" points="328.84 93.95 318.12 93.95 312.75 103.24 318.12 112.53 328.84 112.53 334.21 103.24 328.84 93.95"/><polygon class="cls-7" points="328.84 75.37 318.12 75.37 312.75 84.66 318.12 93.95 328.84 93.95 334.21 84.66 328.84 75.37"/><polygon class="cls-7" points="312.77 196.15 302.04 196.15 296.68 205.44 302.04 214.73 312.77 214.73 318.14 205.44 312.77 196.15"/><polygon class="cls-7" points="312.77 177.57 302.04 177.57 296.68 186.86 302.04 196.15 312.77 196.15 318.14 186.86 312.77 177.57"/><polygon class="cls-7" points="312.77 158.99 302.04 158.99 296.68 168.28 302.04 177.57 312.77 177.57 318.14 168.28 312.77 158.99"/><polygon class="cls-7" points="312.77 140.4 302.04 140.4 296.68 149.69 302.04 158.99 312.77 158.99 318.14 149.69 312.77 140.4"/><polygon class="cls-7" points="312.77 121.82 302.04 121.82 296.68 131.11 302.04 140.4 312.77 140.4 318.14 131.11 312.77 121.82"/><polygon class="cls-7" points="312.77 103.24 302.04 103.24 296.68 112.53 302.04 121.82 312.77 121.82 318.14 112.53 312.77 103.24"/><polygon class="cls-7" points="312.77 84.66 302.04 84.66 296.68 93.95 302.04 103.24 312.77 103.24 318.14 93.95 312.77 84.66"/><polygon class="cls-7" points="296.7 186.86 285.97 186.86 280.61 196.15 285.97 205.44 296.7 205.44 302.06 196.15 296.7 186.86"/><polygon class="cls-7" points="296.7 168.28 285.97 168.28 280.61 177.57 285.97 186.86 296.7 186.86 302.06 177.57 296.7 168.28"/><polygon class="cls-7" points="296.7 149.69 285.97 149.69 280.61 158.99 285.97 168.28 296.7 168.28 302.06 158.99 296.7 149.69"/><polygon class="cls-7" points="296.7 131.11 285.97 131.11 280.61 140.4 285.97 149.69 296.7 149.69 302.06 140.4 296.7 131.11"/><polygon class="cls-7" points="296.7 112.53 285.97 112.53 280.61 121.82 285.97 131.11 296.7 131.11 302.06 121.82 296.7 112.53"/><polygon class="cls-7" points="296.7 93.95 285.97 93.95 280.61 103.24 285.97 112.53 296.7 112.53 302.06 103.24 296.7 93.95"/><polygon class="cls-7" points="296.7 75.37 285.97 75.37 280.61 84.66 285.97 93.95 296.7 93.95 302.06 84.66 296.7 75.37"/><polygon class="cls-7" points="296.7 56.79 285.97 56.79 280.61 66.08 285.97 75.37 296.7 75.37 302.06 66.08 296.7 56.79"/><polygon class="cls-7" points="296.7 38.21 285.97 38.21 280.61 47.5 285.97 56.79 296.7 56.79 302.06 47.5 296.7 38.21"/><polygon class="cls-7" points="280.63 140.4 269.9 140.4 264.54 149.69 269.9 158.99 280.63 158.99 285.99 149.69 280.63 140.4"/><polygon class="cls-7" points="280.63 121.82 269.9 121.82 264.54 131.11 269.9 140.4 280.63 140.4 285.99 131.11 280.63 121.82"/><polygon class="cls-7" points="280.63 103.24 269.9 103.24 264.54 112.53 269.9 121.82 280.63 121.82 285.99 112.53 280.63 103.24"/><polygon class="cls-7" points="280.63 84.66 269.9 84.66 264.54 93.95 269.9 103.24 280.63 103.24 285.99 93.95 280.63 84.66"/><polygon class="cls-7" points="280.63 66.08 269.9 66.08 264.54 75.37 269.9 84.66 280.63 84.66 285.99 75.37 280.63 66.08"/><polygon class="cls-7" points="280.63 47.5 269.9 47.5 264.54 56.79 269.9 66.08 280.63 66.08 285.99 56.79 280.63 47.5"/><polygon class="cls-7" points="280.63 28.92 269.9 28.92 264.54 38.21 269.9 47.5 280.63 47.5 285.99 38.21 280.63 28.92"/><polygon class="cls-7" points="264.56 131.11 253.83 131.11 248.46 140.4 253.83 149.69 264.56 149.69 269.92 140.4 264.56 131.11"/><polygon class="cls-7" points="264.56 112.53 253.83 112.53 248.46 121.82 253.83 131.11 264.56 131.11 269.92 121.82 264.56 112.53"/><polygon class="cls-7" points="264.56 93.95 253.83 93.95 248.46 103.24 253.83 112.53 264.56 112.53 269.92 103.24 264.56 93.95"/><polygon class="cls-7" points="264.56 75.37 253.83 75.37 248.46 84.66 253.83 93.95 264.56 93.95 269.92 84.66 264.56 75.37"/><polygon class="cls-7" points="264.56 56.79 253.83 56.79 248.46 66.08 253.83 75.37 264.56 75.37 269.92 66.08 264.56 56.79"/><polygon class="cls-7" points="264.56 38.21 253.83 38.21 248.46 47.5 253.83 56.79 264.56 56.79 269.92 47.5 264.56 38.21"/><polygon class="cls-7" points="248.48 121.82 237.75 121.82 232.39 131.11 237.75 140.4 248.48 140.4 253.85 131.11 248.48 121.82"/><polygon class="cls-7" points="248.48 103.24 237.75 103.24 232.39 112.53 237.75 121.82 248.48 121.82 253.85 112.53 248.48 103.24"/><polygon class="cls-7" points="248.48 84.66 237.75 84.66 232.39 93.95 237.75 103.24 248.48 103.24 253.85 93.95 248.48 84.66"/><polygon class="cls-7" points="248.48 66.08 237.75 66.08 232.39 75.37 237.75 84.66 248.48 84.66 253.85 75.37 248.48 66.08"/><polygon class="cls-7" points="248.48 47.5 237.75 47.5 232.39 56.79 237.75 66.08 248.48 66.08 253.85 56.79 248.48 47.5"/><polygon class="cls-7" points="232.41 93.95 221.68 93.95 216.32 103.24 221.68 112.53 232.41 112.53 237.77 103.24 232.41 93.95"/><polygon class="cls-7" points="232.41 75.37 221.68 75.37 216.32 84.66 221.68 93.95 232.41 93.95 237.77 84.66 232.41 75.37"/><polygon class="cls-7" points="232.41 56.79 221.68 56.79 216.32 66.08 221.68 75.37 232.41 75.37 237.77 66.08 232.41 56.79"/><polygon class="cls-7" points="232.41 38.21 221.68 38.21 216.32 47.5 221.68 56.79 232.41 56.79 237.77 47.5 232.41 38.21"/><polygon class="cls-7" points="216.34 84.66 205.61 84.66 200.25 93.95 205.61 103.24 216.34 103.24 221.7 93.95 216.34 84.66"/><polygon class="cls-7" points="216.34 66.08 205.61 66.08 200.25 75.37 205.61 84.66 216.34 84.66 221.7 75.37 216.34 66.08"/></g><g id="AB"><polygon class="cls-8" points="232.41 224.02 221.68 224.02 216.32 233.31 221.68 242.6 232.41 242.6 237.77 233.31 232.41 224.02"/><polygon class="cls-8" points="232.41 205.44 221.68 205.44 216.32 214.73 221.68 224.02 232.41 224.02 237.77 214.73 232.41 205.44"/><polygon class="cls-8" points="216.34 307.63 205.61 307.63 200.25 316.92 205.61 326.21 216.34 326.21 221.7 316.92 216.34 307.63"/><polygon class="cls-8" points="216.34 289.05 205.61 289.05 200.25 298.34 205.61 307.63 216.34 307.63 221.7 298.34 216.34 289.05"/><polygon class="cls-8" points="216.34 270.47 205.61 270.47 200.25 279.76 205.61 289.05 216.34 289.05 221.7 279.76 216.34 270.47"/><polygon class="cls-8" points="216.34 251.89 205.61 251.89 200.25 261.18 205.61 270.47 216.34 270.47 221.7 261.18 216.34 251.89"/><polygon class="cls-8" points="216.34 233.31 205.61 233.31 200.25 242.6 205.61 251.89 216.34 251.89 221.7 242.6 216.34 233.31"/><polygon class="cls-8" points="216.34 214.73 205.61 214.73 200.25 224.02 205.61 233.31 216.34 233.31 221.7 224.02 216.34 214.73"/><polygon class="cls-8" points="216.34 196.15 205.61 196.15 200.25 205.44 205.61 214.73 216.34 214.73 221.7 205.44 216.34 196.15"/><polygon class="cls-8" points="200.26 354.08 189.54 354.08 184.17 363.37 189.54 372.66 200.26 372.66 205.63 363.37 200.26 354.08"/><polygon class="cls-8" points="200.26 335.5 189.54 335.5 184.17 344.79 189.54 354.08 200.26 354.08 205.63 344.79 200.26 335.5"/><polygon class="cls-8" points="200.26 316.92 189.54 316.92 184.17 326.21 189.54 335.5 200.26 335.5 205.63 326.21 200.26 316.92"/><polygon class="cls-8" points="200.26 298.34 189.54 298.34 184.17 307.63 189.54 316.92 200.26 316.92 205.63 307.63 200.26 298.34"/><polygon class="cls-8" points="200.26 279.76 189.54 279.76 184.17 289.05 189.54 298.34 200.26 298.34 205.63 289.05 200.26 279.76"/><polygon class="cls-8" points="200.26 261.18 189.54 261.18 184.17 270.47 189.54 279.76 200.26 279.76 205.63 270.47 200.26 261.18"/><polygon class="cls-8" points="200.26 242.6 189.54 242.6 184.17 251.89 189.54 261.18 200.26 261.18 205.63 251.89 200.26 242.6"/><polygon class="cls-8" points="200.26 224.02 189.54 224.02 184.17 233.31 189.54 242.6 200.26 242.6 205.63 233.31 200.26 224.02"/><polygon class="cls-8" points="200.26 205.44 189.54 205.44 184.17 214.73 189.54 224.02 200.26 224.02 205.63 214.73 200.26 205.44"/><polygon class="cls-8" points="200.26 186.86 189.54 186.86 184.17 196.15 189.54 205.44 200.26 205.44 205.63 196.15 200.26 186.86"/><polygon class="cls-8" points="184.19 344.79 173.47 344.79 168.1 354.08 173.47 363.37 184.19 363.37 189.56 354.08 184.19 344.79"/><polygon class="cls-8" points="184.19 326.21 173.47 326.21 168.1 335.5 173.47 344.79 184.19 344.79 189.56 335.5 184.19 326.21"/><polygon class="cls-8" points="184.19 307.63 173.47 307.63 168.1 316.92 173.47 326.21 184.19 326.21 189.56 316.92 184.19 307.63"/><polygon class="cls-8" points="184.19 289.05 173.47 289.05 168.1 298.34 173.47 307.63 184.19 307.63 189.56 298.34 184.19 289.05"/><polygon class="cls-8" points="184.19 270.47 173.47 270.47 168.1 279.76 173.47 289.05 184.19 289.05 189.56 279.76 184.19 270.47"/><polygon class="cls-8" points="184.19 251.89 173.47 251.89 168.1 261.18 173.47 270.47 184.19 270.47 189.56 261.18 184.19 251.89"/><polygon class="cls-8" points="184.19 233.31 173.47 233.31 168.1 242.6 173.47 251.89 184.19 251.89 189.56 242.6 184.19 233.31"/><polygon class="cls-8" points="184.19 214.73 173.47 214.73 168.1 224.02 173.47 233.31 184.19 233.31 189.56 224.02 184.19 214.73"/><polygon class="cls-8" points="184.19 196.15 173.47 196.15 168.1 205.44 173.47 214.73 184.19 214.73 189.56 205.44 184.19 196.15"/><polygon class="cls-8" points="168.12 298.34 157.39 298.34 152.03 307.63 157.39 316.92 168.12 316.92 173.48 307.63 168.12 298.34"/><polygon class="cls-8" points="168.12 279.76 157.39 279.76 152.03 289.05 157.39 298.34 168.12 298.34 173.48 289.05 168.12 279.76"/><polygon class="cls-8" points="168.12 261.18 157.39 261.18 152.03 270.47 157.39 279.76 168.12 279.76 173.48 270.47 168.12 261.18"/><polygon class="cls-8" points="168.12 242.6 157.39 242.6 152.03 251.89 157.39 261.18 168.12 261.18 173.48 251.89 168.12 242.6"/><polygon class="cls-8" points="168.12 224.02 157.39 224.02 152.03 233.31 157.39 242.6 168.12 242.6 173.48 233.31 168.12 224.02"/><polygon class="cls-8" points="152.05 270.47 141.32 270.47 135.96 279.76 141.32 289.05 152.05 289.05 157.41 279.76 152.05 270.47"/></g><g id="NT"><polygon class="cls-9" points="280.63 196.15 269.9 196.15 264.54 205.44 269.9 214.73 280.63 214.73 285.99 205.44 280.63 196.15"/><polygon class="cls-9" points="280.63 177.57 269.9 177.57 264.54 186.86 269.9 196.15 280.63 196.15 285.99 186.86 280.63 177.57"/><polygon class="cls-9" points="280.63 158.99 269.9 158.99 264.54 168.28 269.9 177.57 280.63 177.57 285.99 168.28 280.63 158.99"/><polygon class="cls-9" points="264.56 186.86 253.83 186.86 248.46 196.15 253.83 205.44 264.56 205.44 269.92 196.15 264.56 186.86"/><polygon class="cls-9" points="264.56 168.28 253.83 168.28 248.46 177.57 253.83 186.86 264.56 186.86 269.92 177.57 264.56 168.28"/><polygon class="cls-9" points="264.56 149.69 253.83 149.69 248.46 158.99 253.83 168.28 264.56 168.28 269.92 158.99 264.56 149.69"/><polygon class="cls-9" points="248.48 196.15 237.75 196.15 232.39 205.44 237.75 214.73 248.48 214.73 253.85 205.44 248.48 196.15"/><polygon class="cls-9" points="248.48 177.57 237.75 177.57 232.39 186.86 237.75 196.15 248.48 196.15 253.85 186.86 248.48 177.57"/><polygon class="cls-9" points="248.48 158.99 237.75 158.99 232.39 168.28 237.75 177.57 248.48 177.57 253.85 168.28 248.48 158.99"/><polygon class="cls-9" points="248.48 140.4 237.75 140.4 232.39 149.69 237.75 158.99 248.48 158.99 253.85 149.69 248.48 140.4"/><polygon class="cls-9" points="232.41 186.86 221.68 186.86 216.32 196.15 221.68 205.44 232.41 205.44 237.77 196.15 232.41 186.86"/><polygon class="cls-9" points="232.41 168.28 221.68 168.28 216.32 177.57 221.68 186.86 232.41 186.86 237.77 177.57 232.41 168.28"/><polygon class="cls-9" points="232.41 149.69 221.68 149.69 216.32 158.99 221.68 168.28 232.41 168.28 237.77 158.99 232.41 149.69"/><polygon class="cls-9" points="232.41 131.11 221.68 131.11 216.32 140.4 221.68 149.69 232.41 149.69 237.77 140.4 232.41 131.11"/><polygon class="cls-9" points="232.41 112.53 221.68 112.53 216.32 121.82 221.68 131.11 232.41 131.11 237.77 121.82 232.41 112.53"/><polygon class="cls-9" points="216.34 177.57 205.61 177.57 200.25 186.86 205.61 196.15 216.34 196.15 221.7 186.86 216.34 177.57"/><polygon class="cls-9" points="216.34 158.99 205.61 158.99 200.25 168.28 205.61 177.57 216.34 177.57 221.7 168.28 216.34 158.99"/><polygon class="cls-9" points="216.34 140.4 205.61 140.4 200.25 149.69 205.61 158.99 216.34 158.99 221.7 149.69 216.34 140.4"/><polygon class="cls-9" points="216.34 121.82 205.61 121.82 200.25 131.11 205.61 140.4 216.34 140.4 221.7 131.11 216.34 121.82"/><polygon class="cls-9" points="216.34 103.24 205.61 103.24 200.25 112.53 205.61 121.82 216.34 121.82 221.7 112.53 216.34 103.24"/><polygon class="cls-9" points="200.26 168.28 189.54 168.28 184.17 177.57 189.54 186.86 200.26 186.86 205.63 177.57 200.26 168.28"/><polygon class="cls-9" points="200.26 149.69 189.54 149.69 184.17 158.99 189.54 168.28 200.26 168.28 205.63 158.99 200.26 149.69"/><polygon class="cls-9" points="200.26 131.11 189.54 131.11 184.17 140.4 189.54 149.69 200.26 149.69 205.63 140.4 200.26 131.11"/><polygon class="cls-9" points="200.26 112.53 189.54 112.53 184.17 121.82 189.54 131.11 200.26 131.11 205.63 121.82 200.26 112.53"/><polygon class="cls-9" points="200.26 93.95 189.54 93.95 184.17 103.24 189.54 112.53 200.26 112.53 205.63 103.24 200.26 93.95"/><polygon class="cls-9" points="200.26 75.37 189.54 75.37 184.17 84.66 189.54 93.95 200.26 93.95 205.63 84.66 200.26 75.37"/><polygon class="cls-9" points="200.26 56.79 189.54 56.79 184.17 66.08 189.54 75.37 200.26 75.37 205.63 66.08 200.26 56.79"/><polygon class="cls-9" points="184.19 177.57 173.47 177.57 168.1 186.86 173.47 196.15 184.19 196.15 189.56 186.86 184.19 177.57"/><polygon class="cls-9" points="184.19 158.99 173.47 158.99 168.1 168.28 173.47 177.57 184.19 177.57 189.56 168.28 184.19 158.99"/><polygon class="cls-9" points="184.19 140.4 173.47 140.4 168.1 149.69 173.47 158.99 184.19 158.99 189.56 149.69 184.19 140.4"/><polygon class="cls-9" points="184.19 121.82 173.47 121.82 168.1 131.11 173.47 140.4 184.19 140.4 189.56 131.11 184.19 121.82"/><polygon class="cls-9" points="184.19 103.24 173.47 103.24 168.1 112.53 173.47 121.82 184.19 121.82 189.56 112.53 184.19 103.24"/><polygon class="cls-9" points="184.19 84.66 173.47 84.66 168.1 93.95 173.47 103.24 184.19 103.24 189.56 93.95 184.19 84.66"/><polygon class="cls-9" points="184.19 66.08 173.47 66.08 168.1 75.37 173.47 84.66 184.19 84.66 189.56 75.37 184.19 66.08"/><polygon class="cls-9" points="184.19 47.5 173.47 47.5 168.1 56.79 173.47 66.08 184.19 66.08 189.56 56.79 184.19 47.5"/><polygon class="cls-9" points="168.12 168.28 157.39 168.28 152.03 177.57 157.39 186.86 168.12 186.86 173.48 177.57 168.12 168.28"/><polygon class="cls-9" points="168.12 149.69 157.39 149.69 152.03 158.99 157.39 168.28 168.12 168.28 173.48 158.99 168.12 149.69"/><polygon class="cls-9" points="168.12 131.11 157.39 131.11 152.03 140.4 157.39 149.69 168.12 149.69 173.48 140.4 168.12 131.11"/><polygon class="cls-9" points="168.12 112.53 157.39 112.53 152.03 121.82 157.39 131.11 168.12 131.11 173.48 121.82 168.12 112.53"/><polygon class="cls-9" points="168.12 93.95 157.39 93.95 152.03 103.24 157.39 112.53 168.12 112.53 173.48 103.24 168.12 93.95"/><polygon class="cls-9" points="168.12 75.37 157.39 75.37 152.03 84.66 157.39 93.95 168.12 93.95 173.48 84.66 168.12 75.37"/><polygon class="cls-9" points="168.12 56.79 157.39 56.79 152.03 66.08 157.39 75.37 168.12 75.37 173.48 66.08 168.12 56.79"/><polygon class="cls-9" points="168.12 38.21 157.39 38.21 152.03 47.5 157.39 56.79 168.12 56.79 173.48 47.5 168.12 38.21"/><polygon class="cls-9" points="152.05 158.99 141.32 158.99 135.96 168.28 141.32 177.57 152.05 177.57 157.41 168.28 152.05 158.99"/><polygon class="cls-9" points="152.05 140.4 141.32 140.4 135.96 149.69 141.32 158.99 152.05 158.99 157.41 149.69 152.05 140.4"/><polygon class="cls-9" points="152.05 121.82 141.32 121.82 135.96 131.11 141.32 140.4 152.05 140.4 157.41 131.11 152.05 121.82"/><polygon class="cls-9" points="152.05 103.24 141.32 103.24 135.96 112.53 141.32 121.82 152.05 121.82 157.41 112.53 152.05 103.24"/><polygon class="cls-9" points="152.05 84.66 141.32 84.66 135.96 93.95 141.32 103.24 152.05 103.24 157.41 93.95 152.05 84.66"/><polygon class="cls-9" points="152.05 66.08 141.32 66.08 135.96 75.37 141.32 84.66 152.05 84.66 157.41 75.37 152.05 66.08"/><polygon class="cls-9" points="152.05 47.5 141.32 47.5 135.96 56.79 141.32 66.08 152.05 66.08 157.41 56.79 152.05 47.5"/><polygon class="cls-9" points="152.05 28.92 141.32 28.92 135.96 38.21 141.32 47.5 152.05 47.5 157.41 38.21 152.05 28.92"/><polygon class="cls-9" points="135.97 149.69 125.25 149.69 119.88 158.99 125.25 168.28 135.97 168.28 141.34 158.99 135.97 149.69"/><polygon class="cls-9" points="135.97 131.11 125.25 131.11 119.88 140.4 125.25 149.69 135.97 149.69 141.34 140.4 135.97 131.11"/><polygon class="cls-9" points="135.97 112.53 125.25 112.53 119.88 121.82 125.25 131.11 135.97 131.11 141.34 121.82 135.97 112.53"/><polygon class="cls-9" points="135.97 93.95 125.25 93.95 119.88 103.24 125.25 112.53 135.97 112.53 141.34 103.24 135.97 93.95"/><polygon class="cls-9" points="135.97 75.37 125.25 75.37 119.88 84.66 125.25 93.95 135.97 93.95 141.34 84.66 135.97 75.37"/><polygon class="cls-9" points="135.97 56.79 125.25 56.79 119.88 66.08 125.25 75.37 135.97 75.37 141.34 66.08 135.97 56.79"/><polygon class="cls-9" points="135.97 38.21 125.25 38.21 119.88 47.5 125.25 56.79 135.97 56.79 141.34 47.5 135.97 38.21"/></g><g id="BC"><polygon class="cls-10" points="168.12 335.5 157.39 335.5 152.03 344.79 157.39 354.08 168.12 354.08 173.48 344.79 168.12 335.5"/><polygon class="cls-10" points="168.12 316.92 157.39 316.92 152.03 326.21 157.39 335.5 168.12 335.5 173.48 326.21 168.12 316.92"/><polygon class="cls-10" points="168.12 205.44 157.39 205.44 152.03 214.73 157.39 224.02 168.12 224.02 173.48 214.73 168.12 205.44"/><polygon class="cls-10" points="168.12 186.86 157.39 186.86 152.03 196.15 157.39 205.44 168.12 205.44 173.48 196.15 168.12 186.86"/><polygon class="cls-10" points="152.05 326.21 141.32 326.21 135.96 335.5 141.32 344.79 152.05 344.79 157.41 335.5 152.05 326.21"/><polygon class="cls-10" points="152.05 307.63 141.32 307.63 135.96 316.92 141.32 326.21 152.05 326.21 157.41 316.92 152.05 307.63"/><polygon class="cls-10" points="152.05 289.05 141.32 289.05 135.96 298.34 141.32 307.63 152.05 307.63 157.41 298.34 152.05 289.05"/><polygon class="cls-10" points="152.05 251.89 141.32 251.89 135.96 261.18 141.32 270.47 152.05 270.47 157.41 261.18 152.05 251.89"/><polygon class="cls-10" points="152.05 233.31 141.32 233.31 135.96 242.6 141.32 251.89 152.05 251.89 157.41 242.6 152.05 233.31"/><polygon class="cls-10" points="152.05 214.73 141.32 214.73 135.96 224.02 141.32 233.31 152.05 233.31 157.41 224.02 152.05 214.73"/><polygon class="cls-10" points="152.05 196.15 141.32 196.15 135.96 205.44 141.32 214.73 152.05 214.73 157.41 205.44 152.05 196.15"/><polygon class="cls-10" points="152.05 177.57 141.32 177.57 135.96 186.86 141.32 196.15 152.05 196.15 157.41 186.86 152.05 177.57"/><polygon class="cls-10" points="135.97 335.5 125.25 335.5 119.88 344.79 125.25 354.08 135.97 354.08 141.34 344.79 135.97 335.5"/><polygon class="cls-10" points="135.97 316.92 125.25 316.92 119.88 326.21 125.25 335.5 135.97 335.5 141.34 326.21 135.97 316.92"/><polygon class="cls-10" points="135.97 298.34 125.25 298.34 119.88 307.63 125.25 316.92 135.97 316.92 141.34 307.63 135.97 298.34"/><polygon class="cls-10" points="135.97 279.76 125.25 279.76 119.88 289.05 125.25 298.34 135.97 298.34 141.34 289.05 135.97 279.76"/><polygon class="cls-10" points="135.97 261.18 125.25 261.18 119.88 270.47 125.25 279.76 135.97 279.76 141.34 270.47 135.97 261.18"/><polygon class="cls-10" points="135.97 242.6 125.25 242.6 119.88 251.89 125.25 261.18 135.97 261.18 141.34 251.89 135.97 242.6"/><polygon class="cls-10" points="135.97 224.02 125.25 224.02 119.88 233.31 125.25 242.6 135.97 242.6 141.34 233.31 135.97 224.02"/><polygon class="cls-10" points="135.97 205.44 125.25 205.44 119.88 214.73 125.25 224.02 135.97 224.02 141.34 214.73 135.97 205.44"/><polygon class="cls-10" points="135.97 186.86 125.25 186.86 119.88 196.15 125.25 205.44 135.97 205.44 141.34 196.15 135.97 186.86"/><polygon class="cls-10" points="135.97 168.28 125.25 168.28 119.88 177.57 125.25 186.86 135.97 186.86 141.34 177.57 135.97 168.28"/><polygon class="cls-10" points="119.9 326.21 109.17 326.21 103.81 335.5 109.17 344.79 119.9 344.79 125.27 335.5 119.9 326.21"/><polygon class="cls-10" points="119.9 307.63 109.17 307.63 103.81 316.92 109.17 326.21 119.9 326.21 125.27 316.92 119.9 307.63"/><polygon class="cls-10" points="119.9 289.05 109.17 289.05 103.81 298.34 109.17 307.63 119.9 307.63 125.27 298.34 119.9 289.05"/><polygon class="cls-10" points="119.9 270.47 109.17 270.47 103.81 279.76 109.17 289.05 119.9 289.05 125.27 279.76 119.9 270.47"/><polygon class="cls-10" points="119.9 251.89 109.17 251.89 103.81 261.18 109.17 270.47 119.9 270.47 125.27 261.18 119.9 251.89"/><polygon class="cls-10" points="119.9 233.31 109.17 233.31 103.81 242.6 109.17 251.89 119.9 251.89 125.27 242.6 119.9 233.31"/><polygon class="cls-10" points="119.9 214.73 109.17 214.73 103.81 224.02 109.17 233.31 119.9 233.31 125.27 224.02 119.9 214.73"/><polygon class="cls-10" points="119.9 196.15 109.17 196.15 103.81 205.44 109.17 214.73 119.9 214.73 125.27 205.44 119.9 196.15"/><polygon class="cls-10" points="119.9 177.57 109.17 177.57 103.81 186.86 109.17 196.15 119.9 196.15 125.27 186.86 119.9 177.57"/><polygon class="cls-10" points="119.9 158.99 109.17 158.99 103.81 168.28 109.17 177.57 119.9 177.57 125.27 168.28 119.9 158.99"/><polygon class="cls-10" points="103.83 316.92 93.1 316.92 87.74 326.21 93.1 335.5 103.83 335.5 109.19 326.21 103.83 316.92"/><polygon class="cls-10" points="103.83 298.34 93.1 298.34 87.74 307.63 93.1 316.92 103.83 316.92 109.19 307.63 103.83 298.34"/><polygon class="cls-10" points="103.83 279.76 93.1 279.76 87.74 289.05 93.1 298.34 103.83 298.34 109.19 289.05 103.83 279.76"/><polygon class="cls-10" points="103.83 261.18 93.1 261.18 87.74 270.47 93.1 279.76 103.83 279.76 109.19 270.47 103.83 261.18"/><polygon class="cls-10" points="103.83 242.6 93.1 242.6 87.74 251.89 93.1 261.18 103.83 261.18 109.19 251.89 103.83 242.6"/><polygon class="cls-10" points="103.83 224.02 93.1 224.02 87.74 233.31 93.1 242.6 103.83 242.6 109.19 233.31 103.83 224.02"/><polygon class="cls-10" points="103.83 205.44 93.1 205.44 87.74 214.73 93.1 224.02 103.83 224.02 109.19 214.73 103.83 205.44"/><polygon class="cls-10" points="103.83 186.86 93.1 186.86 87.74 196.15 93.1 205.44 103.83 205.44 109.19 196.15 103.83 186.86"/><polygon class="cls-10" points="103.83 168.28 93.1 168.28 87.74 177.57 93.1 186.86 103.83 186.86 109.19 177.57 103.83 168.28"/><polygon class="cls-10" points="103.83 149.69 93.1 149.69 87.74 158.99 93.1 168.28 103.83 168.28 109.19 158.99 103.83 149.69"/><polygon class="cls-10" points="87.76 326.21 77.03 326.21 71.67 335.5 77.03 344.79 87.76 344.79 93.12 335.5 87.76 326.21"/><polygon class="cls-10" points="87.76 307.63 77.03 307.63 71.67 316.92 77.03 326.21 87.76 326.21 93.12 316.92 87.76 307.63"/><polygon class="cls-10" points="87.76 289.05 77.03 289.05 71.67 298.34 77.03 307.63 87.76 307.63 93.12 298.34 87.76 289.05"/><polygon class="cls-10" points="87.76 270.47 77.03 270.47 71.67 279.76 77.03 289.05 87.76 289.05 93.12 279.76 87.76 270.47"/><polygon class="cls-10" points="87.76 251.89 77.03 251.89 71.67 261.18 77.03 270.47 87.76 270.47 93.12 261.18 87.76 251.89"/><polygon class="cls-10" points="87.76 233.31 77.03 233.31 71.67 242.6 77.03 251.89 87.76 251.89 93.12 242.6 87.76 233.31"/><polygon class="cls-10" points="87.76 214.73 77.03 214.73 71.67 224.02 77.03 233.31 87.76 233.31 93.12 224.02 87.76 214.73"/><polygon class="cls-10" points="87.76 196.15 77.03 196.15 71.67 205.44 77.03 214.73 87.76 214.73 93.12 205.44 87.76 196.15"/><polygon class="cls-10" points="87.76 177.57 77.03 177.57 71.67 186.86 77.03 196.15 87.76 196.15 93.12 186.86 87.76 177.57"/><polygon class="cls-10" points="87.76 158.99 77.03 158.99 71.67 168.28 77.03 177.57 87.76 177.57 93.12 168.28 87.76 158.99"/><polygon class="cls-10" points="87.76 140.4 77.03 140.4 71.67 149.69 77.03 158.99 87.76 158.99 93.12 149.69 87.76 140.4"/><polygon class="cls-10" points="71.69 298.34 60.96 298.34 55.59 307.63 60.96 316.92 71.69 316.92 77.05 307.63 71.69 298.34"/><polygon class="cls-10" points="71.69 279.76 60.96 279.76 55.59 289.05 60.96 298.34 71.69 298.34 77.05 289.05 71.69 279.76"/><polygon class="cls-10" points="71.69 261.18 60.96 261.18 55.59 270.47 60.96 279.76 71.69 279.76 77.05 270.47 71.69 261.18"/><polygon class="cls-10" points="71.69 242.6 60.96 242.6 55.59 251.89 60.96 261.18 71.69 261.18 77.05 251.89 71.69 242.6"/><polygon class="cls-10" points="71.69 224.02 60.96 224.02 55.59 233.31 60.96 242.6 71.69 242.6 77.05 233.31 71.69 224.02"/><polygon class="cls-10" points="71.69 205.44 60.96 205.44 55.59 214.73 60.96 224.02 71.69 224.02 77.05 214.73 71.69 205.44"/><polygon class="cls-10" points="71.69 186.86 60.96 186.86 55.59 196.15 60.96 205.44 71.69 205.44 77.05 196.15 71.69 186.86"/><polygon class="cls-10" points="71.69 168.28 60.96 168.28 55.59 177.57 60.96 186.86 71.69 186.86 77.05 177.57 71.69 168.28"/><polygon class="cls-10" points="71.69 149.69 60.96 149.69 55.59 158.99 60.96 168.28 71.69 168.28 77.05 158.99 71.69 149.69"/><polygon class="cls-10" points="71.69 131.11 60.96 131.11 55.59 140.4 60.96 149.69 71.69 149.69 77.05 140.4 71.69 131.11"/><polygon class="cls-10" points="55.61 270.47 44.89 270.47 39.52 279.76 44.89 289.05 55.61 289.05 60.98 279.76 55.61 270.47"/><polygon class="cls-10" points="55.61 251.89 44.89 251.89 39.52 261.18 44.89 270.47 55.61 270.47 60.98 261.18 55.61 251.89"/><polygon class="cls-10" points="55.61 233.31 44.89 233.31 39.52 242.6 44.89 251.89 55.61 251.89 60.98 242.6 55.61 233.31"/><polygon class="cls-10" points="55.61 214.73 44.89 214.73 39.52 224.02 44.89 233.31 55.61 233.31 60.98 224.02 55.61 214.73"/><polygon class="cls-10" points="55.61 140.4 44.89 140.4 39.52 149.69 44.89 158.99 55.61 158.99 60.98 149.69 55.61 140.4"/></g><g id="YT"><polygon class="cls-11" points="135.97 19.63 125.25 19.63 119.88 28.92 125.25 38.21 135.97 38.21 141.34 28.92 135.97 19.63"/><polygon class="cls-11" points="119.9 140.4 109.17 140.4 103.81 149.69 109.17 158.99 119.9 158.99 125.27 149.69 119.9 140.4"/><polygon class="cls-11" points="119.9 121.82 109.17 121.82 103.81 131.11 109.17 140.4 119.9 140.4 125.27 131.11 119.9 121.82"/><polygon class="cls-11" points="119.9 103.24 109.17 103.24 103.81 112.53 109.17 121.82 119.9 121.82 125.27 112.53 119.9 103.24"/><polygon class="cls-11" points="119.9 84.66 109.17 84.66 103.81 93.95 109.17 103.24 119.9 103.24 125.27 93.95 119.9 84.66"/><polygon class="cls-11" points="119.9 66.08 109.17 66.08 103.81 75.37 109.17 84.66 119.9 84.66 125.27 75.37 119.9 66.08"/><polygon class="cls-11" points="119.9 47.5 109.17 47.5 103.81 56.79 109.17 66.08 119.9 66.08 125.27 56.79 119.9 47.5"/><polygon class="cls-11" points="119.9 28.92 109.17 28.92 103.81 38.21 109.17 47.5 119.9 47.5 125.27 38.21 119.9 28.92"/><polygon class="cls-11" points="119.9 10.34 109.17 10.34 103.81 19.63 109.17 28.92 119.9 28.92 125.27 19.63 119.9 10.34"/><polygon class="cls-11" points="103.83 131.11 93.1 131.11 87.74 140.4 93.1 149.69 103.83 149.69 109.19 140.4 103.83 131.11"/><polygon class="cls-11" points="103.83 112.53 93.1 112.53 87.74 121.82 93.1 131.11 103.83 131.11 109.19 121.82 103.83 112.53"/><polygon class="cls-11" points="103.83 93.95 93.1 93.95 87.74 103.24 93.1 112.53 103.83 112.53 109.19 103.24 103.83 93.95"/><polygon class="cls-11" points="103.83 75.37 93.1 75.37 87.74 84.66 93.1 93.95 103.83 93.95 109.19 84.66 103.83 75.37"/><polygon class="cls-11" points="103.83 56.79 93.1 56.79 87.74 66.08 93.1 75.37 103.83 75.37 109.19 66.08 103.83 56.79"/><polygon class="cls-11" points="103.83 38.21 93.1 38.21 87.74 47.5 93.1 56.79 103.83 56.79 109.19 47.5 103.83 38.21"/><polygon class="cls-11" points="103.83 19.63 93.1 19.63 87.74 28.92 93.1 38.21 103.83 38.21 109.19 28.92 103.83 19.63"/><polygon class="cls-11" points="87.76 121.82 77.03 121.82 71.67 131.11 77.03 140.4 87.76 140.4 93.12 131.11 87.76 121.82"/><polygon class="cls-11" points="87.76 103.24 77.03 103.24 71.67 112.53 77.03 121.82 87.76 121.82 93.12 112.53 87.76 103.24"/><polygon class="cls-11" points="87.76 84.66 77.03 84.66 71.67 93.95 77.03 103.24 87.76 103.24 93.12 93.95 87.76 84.66"/><polygon class="cls-11" points="87.76 66.08 77.03 66.08 71.67 75.37 77.03 84.66 87.76 84.66 93.12 75.37 87.76 66.08"/><polygon class="cls-11" points="87.76 47.5 77.03 47.5 71.67 56.79 77.03 66.08 87.76 66.08 93.12 56.79 87.76 47.5"/><polygon class="cls-11" points="87.76 28.92 77.03 28.92 71.67 38.21 77.03 47.5 87.76 47.5 93.12 38.21 87.76 28.92"/><polygon class="cls-11" points="71.69 112.53 60.96 112.53 55.59 121.82 60.96 131.11 71.69 131.11 77.05 121.82 71.69 112.53"/><polygon class="cls-11" points="71.69 93.95 60.96 93.95 55.59 103.24 60.96 112.53 71.69 112.53 77.05 103.24 71.69 93.95"/><polygon class="cls-11" points="71.69 75.37 60.96 75.37 55.59 84.66 60.96 93.95 71.69 93.95 77.05 84.66 71.69 75.37"/><polygon class="cls-11" points="71.69 56.79 60.96 56.79 55.59 66.08 60.96 75.37 71.69 75.37 77.05 66.08 71.69 56.79"/><polygon class="cls-11" points="71.69 38.21 60.96 38.21 55.59 47.5 60.96 56.79 71.69 56.79 77.05 47.5 71.69 38.21"/><polygon class="cls-11" points="55.61 121.82 44.89 121.82 39.52 131.11 44.89 140.4 55.61 140.4 60.98 131.11 55.61 121.82"/><polygon class="cls-11" points="55.61 103.24 44.89 103.24 39.52 112.53 44.89 121.82 55.61 121.82 60.98 112.53 55.61 103.24"/><polygon class="cls-11" points="55.61 84.66 44.89 84.66 39.52 93.95 44.89 103.24 55.61 103.24 60.98 93.95 55.61 84.66"/><polygon class="cls-11" points="55.61 66.08 44.89 66.08 39.52 75.37 44.89 84.66 55.61 84.66 60.98 75.37 55.61 66.08"/><polygon class="cls-11" points="39.54 93.95 28.81 93.95 23.45 103.24 28.81 112.53 39.54 112.53 44.91 103.24 39.54 93.95"/></g></svg>