<svg id="Calque_1" data-name="Calque 1" xmlns="http://www.w3.org/2000/svg" viewBox="0 0 650.59 466.52"><defs><style>.cls-1{fill:#fefde0;}.cls-1,.cls-10,.cls-11,.cls-2,.cls-3,.cls-4,.cls-5,.cls-6,.cls-7,.cls-8,.cls-9{stroke:#fff;stroke-miterlimit:10;stroke-width:2px;opacity:0.75;}.cls-2{fill:#d7efc3;}.cls-3{fill:#294ed6;}.cls-4{fill:#bc14c1;}.cls-5{fill:#6d8489;}.cls-6{fill:#e5d542;}.cls-7{fill:#f7a6b9;}.cls-8{fill:#75c8cd;}.cls-9{fill:#74e22d;}.cls-10{fill:#475790;}.cls-11{fill:#5bb7ce;}</style></defs><title>canada</title><g id="NS"><polygon class="cls-1" points="611.92 354.04 601.2 354.04 595.83 363.33 601.2 372.62 611.92 372.62 617.29 363.33 611.92 354.04"/><polygon class="cls-1" points="595.85 381.91 585.13 381.91 579.76 391.2 585.13 400.49 595.85 400.49 601.22 391.2 595.85 381.91"/><polygon class="cls-1" points="595.85 363.33 585.13 363.33 579.76 372.62 585.13 381.91 595.85 381.91 601.22 372.62 595.85 363.33"/><polygon class="cls-1" points="595.85 344.75 585.13 344.75 579.76 354.04 585.13 363.33 595.85 363.33 601.22 354.04 595.85 344.75"/><polygon class="cls-1" points="579.78 391.2 569.05 391.2 563.69 400.49 569.05 409.78 579.78 409.78 585.14 400.49 579.78 391.2"/><polygon class="cls-1" points="579.78 372.62 569.05 372.62 563.69 381.91 569.05 391.2 579.78 391.2 585.14 381.91 579.78 372.62"/><polygon class="cls-1" points="579.78 354.04 569.05 354.04 563.69 363.33 569.05 372.62 579.78 372.62 585.14 363.33 579.78 354.04"/><polygon class="cls-1" points="563.71 400.49 552.98 400.49 547.62 409.78 552.98 419.07 563.71 419.07 569.07 409.78 563.71 400.49"/><polygon class="cls-1" points="563.71 381.91 552.98 381.91 547.62 391.2 552.98 400.49 563.71 400.49 569.07 391.2 563.71 381.91"/><polygon class="cls-1" points="547.64 391.2 536.91 391.2 531.54 400.49 536.91 409.78 547.64 409.78 553 400.49 547.64 391.2"/></g><g id="NB"><polygon class="cls-1" points="579.78 335.45 569.05 335.45 563.69 344.75 569.05 354.04 579.78 354.04 585.14 344.75 579.78 335.45"/><polygon class="cls-1" points="563.71 363.33 552.98 363.33 547.62 372.62 552.98 381.91 563.71 381.91 569.07 372.62 563.71 363.33"/><polygon class="cls-1" points="563.71 344.75 552.98 344.75 547.62 354.04 552.98 363.33 563.71 363.33 569.07 354.04 563.71 344.75"/><polygon class="cls-1" points="563.71 326.16 552.98 326.16 547.62 335.45 552.98 344.75 563.71 344.75 569.07 335.45 563.71 326.16"/><polygon class="cls-1" points="547.64 372.62 536.91 372.62 531.54 381.91 536.91 391.2 547.64 391.2 553 381.91 547.64 372.62"/><polygon class="cls-1" points="547.64 354.04 536.91 354.04 531.54 363.33 536.91 372.62 547.64 372.62 553 363.33 547.64 354.04"/><polygon class="cls-1" points="547.64 335.45 536.91 335.45 531.54 344.75 536.91 354.04 547.64 354.04 553 344.75 547.64 335.45"/><polygon class="cls-1" points="547.64 316.87 536.91 316.87 531.54 326.16 536.91 335.45 547.64 335.45 553 326.16 547.64 316.87"/><polygon class="cls-1" points="531.56 363.33 520.84 363.33 515.47 372.62 520.84 381.91 531.56 381.91 536.93 372.62 531.56 363.33"/><polygon class="cls-1" points="531.56 344.75 520.84 344.75 515.47 354.04 520.84 363.33 531.56 363.33 536.93 354.04 531.56 344.75"/><polygon class="cls-1" points="531.56 326.16 520.84 326.16 515.47 335.45 520.84 344.75 531.56 344.75 536.93 335.45 531.56 326.16"/></g><g id="NL"><polygon class="cls-2" points="644.07 316.87 633.34 316.87 627.98 326.16 633.34 335.45 644.07 335.45 649.43 326.16 644.07 316.87"/><polygon class="cls-2" points="644.07 298.29 633.34 298.29 627.98 307.58 633.34 316.87 644.07 316.87 649.43 307.58 644.07 298.29"/><polygon class="cls-2" points="644.07 279.71 633.34 279.71 627.98 289 633.34 298.29 644.07 298.29 649.43 289 644.07 279.71"/><polygon class="cls-2" points="644.07 261.13 633.34 261.13 627.98 270.42 633.34 279.71 644.07 279.71 649.43 270.42 644.07 261.13"/><polygon class="cls-2" points="628 307.58 617.27 307.58 611.91 316.87 617.27 326.16 628 326.16 633.36 316.87 628 307.58"/><polygon class="cls-2" points="628 289 617.27 289 611.91 298.29 617.27 307.58 628 307.58 633.36 298.29 628 289"/><polygon class="cls-2" points="628 270.42 617.27 270.42 611.91 279.71 617.27 289 628 289 633.36 279.71 628 270.42"/><polygon class="cls-2" points="611.92 298.29 601.2 298.29 595.83 307.58 601.2 316.87 611.92 316.87 617.29 307.58 611.92 298.29"/><polygon class="cls-2" points="611.92 279.71 601.2 279.71 595.83 289 601.2 298.29 611.92 298.29 617.29 289 611.92 279.71"/><polygon class="cls-2" points="611.92 261.13 601.2 261.13 595.83 270.42 601.2 279.71 611.92 279.71 617.29 270.42 611.92 261.13"/><polygon class="cls-2" points="611.92 242.55 601.2 242.55 595.83 251.84 601.2 261.13 611.92 261.13 617.29 251.84 611.92 242.55"/><polygon class="cls-2" points="595.85 251.84 585.13 251.84 579.76 261.13 585.13 270.42 595.85 270.42 601.22 261.13 595.85 251.84"/><polygon class="cls-2" points="595.85 233.26 585.13 233.26 579.76 242.55 585.13 251.84 595.85 251.84 601.22 242.55 595.85 233.26"/><polygon class="cls-2" points="579.78 242.55 569.05 242.55 563.69 251.84 569.05 261.13 579.78 261.13 585.14 251.84 579.78 242.55"/><polygon class="cls-2" points="579.78 223.97 569.05 223.97 563.69 233.26 569.05 242.55 579.78 242.55 585.14 233.26 579.78 223.97"/><polygon class="cls-2" points="563.71 251.84 552.98 251.84 547.62 261.13 552.98 270.42 563.71 270.42 569.07 261.13 563.71 251.84"/><polygon class="cls-2" points="563.71 233.26 552.98 233.26 547.62 242.55 552.98 251.84 563.71 251.84 569.07 242.55 563.71 233.26"/><polygon class="cls-2" points="563.71 214.68 552.98 214.68 547.62 223.97 552.98 233.26 563.71 233.26 569.07 223.97 563.71 214.68"/><polygon class="cls-2" points="547.64 261.13 536.91 261.13 531.54 270.42 536.91 279.71 547.64 279.71 553 270.42 547.64 261.13"/><polygon class="cls-2" points="547.64 242.55 536.91 242.55 531.54 251.84 536.91 261.13 547.64 261.13 553 251.84 547.64 242.55"/><polygon class="cls-2" points="547.64 223.97 536.91 223.97 531.54 233.26 536.91 242.55 547.64 242.55 553 233.26 547.64 223.97"/><polygon class="cls-2" points="547.64 205.39 536.91 205.39 531.54 214.68 536.91 223.97 547.64 223.97 553 214.68 547.64 205.39"/><polygon class="cls-2" points="531.56 270.42 520.84 270.42 515.47 279.71 520.84 289 531.56 289 536.93 279.71 531.56 270.42"/><polygon class="cls-2" points="531.56 251.84 520.84 251.84 515.47 261.13 520.84 270.42 531.56 270.42 536.93 261.13 531.56 251.84"/><polygon class="cls-2" points="531.56 214.68 520.84 214.68 515.47 223.97 520.84 233.26 531.56 233.26 536.93 223.97 531.56 214.68"/><polygon class="cls-2" points="531.56 196.1 520.84 196.1 515.47 205.39 520.84 214.68 531.56 214.68 536.93 205.39 531.56 196.1"/></g><g id="QC"><polygon class="cls-3" points="595.85 289 585.13 289 579.76 298.29 585.13 307.58 595.85 307.58 601.22 298.29 595.85 289"/><polygon class="cls-3" points="595.85 270.42 585.13 270.42 579.76 279.71 585.13 289 595.85 289 601.22 279.71 595.85 270.42"/><polygon class="cls-3" points="579.78 298.29 569.05 298.29 563.69 307.58 569.05 316.87 579.78 316.87 585.14 307.58 579.78 298.29"/><polygon class="cls-3" points="579.78 279.71 569.05 279.71 563.69 289 569.05 298.29 579.78 298.29 585.14 289 579.78 279.71"/><polygon class="cls-3" points="579.78 261.13 569.05 261.13 563.69 270.42 569.05 279.71 579.78 279.71 585.14 270.42 579.78 261.13"/><polygon class="cls-3" points="563.71 307.58 552.98 307.58 547.62 316.87 552.98 326.16 563.71 326.16 569.07 316.87 563.71 307.58"/><polygon class="cls-3" points="563.71 289 552.98 289 547.62 298.29 552.98 307.58 563.71 307.58 569.07 298.29 563.71 289"/><polygon class="cls-3" points="563.71 270.42 552.98 270.42 547.62 279.71 552.98 289 563.71 289 569.07 279.71 563.71 270.42"/><polygon class="cls-3" points="547.64 298.29 536.91 298.29 531.54 307.58 536.91 316.87 547.64 316.87 553 307.58 547.64 298.29"/><polygon class="cls-3" points="547.64 279.71 536.91 279.71 531.54 289 536.91 298.29 547.64 298.29 553 289 547.64 279.71"/><polygon class="cls-3" points="531.56 307.58 520.84 307.58 515.47 316.87 520.84 326.16 531.56 326.16 536.93 316.87 531.56 307.58"/><polygon class="cls-3" points="531.56 289 520.84 289 515.47 298.29 520.84 307.58 531.56 307.58 536.93 298.29 531.56 289"/><polygon class="cls-3" points="531.56 233.26 520.84 233.26 515.47 242.55 520.84 251.84 531.56 251.84 536.93 242.55 531.56 233.26"/><polygon class="cls-3" points="515.49 354.04 504.76 354.04 499.4 363.33 504.76 372.62 515.49 372.62 520.86 363.33 515.49 354.04"/><polygon class="cls-3" points="515.49 335.45 504.76 335.45 499.4 344.75 504.76 354.04 515.49 354.04 520.86 344.75 515.49 335.45"/><polygon class="cls-3" points="515.49 316.87 504.76 316.87 499.4 326.16 504.76 335.45 515.49 335.45 520.86 326.16 515.49 316.87"/><polygon class="cls-3" points="515.49 298.29 504.76 298.29 499.4 307.58 504.76 316.87 515.49 316.87 520.86 307.58 515.49 298.29"/><polygon class="cls-3" points="515.49 279.71 504.76 279.71 499.4 289 504.76 298.29 515.49 298.29 520.86 289 515.49 279.71"/><polygon class="cls-3" points="515.49 261.13 504.76 261.13 499.4 270.42 504.76 279.71 515.49 279.71 520.86 270.42 515.49 261.13"/><polygon class="cls-3" points="515.49 242.55 504.76 242.55 499.4 251.84 504.76 261.13 515.49 261.13 520.86 251.84 515.49 242.55"/><polygon class="cls-3" points="515.49 223.97 504.76 223.97 499.4 233.26 504.76 242.55 515.49 242.55 520.86 233.26 515.49 223.97"/><polygon class="cls-3" points="515.49 205.39 504.76 205.39 499.4 214.68 504.76 223.97 515.49 223.97 520.86 214.68 515.49 205.39"/><polygon class="cls-3" points="515.49 186.81 504.76 186.81 499.4 196.1 504.76 205.39 515.49 205.39 520.86 196.1 515.49 186.81"/><polygon class="cls-3" points="499.42 363.33 488.69 363.33 483.33 372.62 488.69 381.91 499.42 381.91 504.78 372.62 499.42 363.33"/><polygon class="cls-3" points="499.42 344.75 488.69 344.75 483.33 354.04 488.69 363.33 499.42 363.33 504.78 354.04 499.42 344.75"/><polygon class="cls-3" points="499.42 326.16 488.69 326.16 483.33 335.45 488.69 344.75 499.42 344.75 504.78 335.45 499.42 326.16"/><polygon class="cls-3" points="499.42 307.58 488.69 307.58 483.33 316.87 488.69 326.16 499.42 326.16 504.78 316.87 499.42 307.58"/><polygon class="cls-3" points="499.42 289 488.69 289 483.33 298.29 488.69 307.58 499.42 307.58 504.78 298.29 499.42 289"/><polygon class="cls-3" points="499.42 270.42 488.69 270.42 483.33 279.71 488.69 289 499.42 289 504.78 279.71 499.42 270.42"/><polygon class="cls-3" points="499.42 251.84 488.69 251.84 483.33 261.13 488.69 270.42 499.42 270.42 504.78 261.13 499.42 251.84"/><polygon class="cls-3" points="499.42 233.26 488.69 233.26 483.33 242.55 488.69 251.84 499.42 251.84 504.78 242.55 499.42 233.26"/><polygon class="cls-3" points="499.42 214.68 488.69 214.68 483.33 223.97 488.69 233.26 499.42 233.26 504.78 223.97 499.42 214.68"/><polygon class="cls-3" points="483.35 372.62 472.62 372.62 467.25 381.91 472.62 391.2 483.35 391.2 488.71 381.91 483.35 372.62"/><polygon class="cls-3" points="483.35 354.04 472.62 354.04 467.25 363.33 472.62 372.62 483.35 372.62 488.71 363.33 483.35 354.04"/><polygon class="cls-3" points="483.35 335.45 472.62 335.45 467.25 344.75 472.62 354.04 483.35 354.04 488.71 344.75 483.35 335.45"/><polygon class="cls-3" points="483.35 316.87 472.62 316.87 467.25 326.16 472.62 335.45 483.35 335.45 488.71 326.16 483.35 316.87"/><polygon class="cls-3" points="483.35 298.29 472.62 298.29 467.25 307.58 472.62 316.87 483.35 316.87 488.71 307.58 483.35 298.29"/><polygon class="cls-3" points="483.35 279.71 472.62 279.71 467.25 289 472.62 298.29 483.35 298.29 488.71 289 483.35 279.71"/><polygon class="cls-3" points="483.35 261.13 472.62 261.13 467.25 270.42 472.62 279.71 483.35 279.71 488.71 270.42 483.35 261.13"/><polygon class="cls-3" points="483.35 242.55 472.62 242.55 467.25 251.84 472.62 261.13 483.35 261.13 488.71 251.84 483.35 242.55"/><polygon class="cls-3" points="483.35 223.97 472.62 223.97 467.25 233.26 472.62 242.55 483.35 242.55 488.71 233.26 483.35 223.97"/><polygon class="cls-3" points="483.35 205.39 472.62 205.39 467.25 214.68 472.62 223.97 483.35 223.97 488.71 214.68 483.35 205.39"/><polygon class="cls-3" points="467.27 363.33 456.55 363.33 451.18 372.62 456.55 381.91 467.27 381.91 472.64 372.62 467.27 363.33"/><polygon class="cls-3" points="467.27 344.75 456.55 344.75 451.18 354.04 456.55 363.33 467.27 363.33 472.64 354.04 467.27 344.75"/><polygon class="cls-3" points="467.27 326.16 456.55 326.16 451.18 335.45 456.55 344.75 467.27 344.75 472.64 335.45 467.27 326.16"/><polygon class="cls-3" points="467.27 307.58 456.55 307.58 451.18 316.87 456.55 326.16 467.27 326.16 472.64 316.87 467.27 307.58"/><polygon class="cls-3" points="467.27 289 456.55 289 451.18 298.29 456.55 307.58 467.27 307.58 472.64 298.29 467.27 289"/><polygon class="cls-3" points="467.27 270.42 456.55 270.42 451.18 279.71 456.55 289 467.27 289 472.64 279.71 467.27 270.42"/><polygon class="cls-3" points="467.27 251.84 456.55 251.84 451.18 261.13 456.55 270.42 467.27 270.42 472.64 261.13 467.27 251.84"/><polygon class="cls-3" points="467.27 233.26 456.55 233.26 451.18 242.55 456.55 251.84 467.27 251.84 472.64 242.55 467.27 233.26"/><polygon class="cls-3" points="467.27 214.68 456.55 214.68 451.18 223.97 456.55 233.26 467.27 233.26 472.64 223.97 467.27 214.68"/><polygon class="cls-3" points="467.27 196.1 456.55 196.1 451.18 205.39 456.55 214.68 467.27 214.68 472.64 205.39 467.27 196.1"/><polygon class="cls-3" points="467.27 177.52 456.55 177.52 451.18 186.81 456.55 196.1 467.27 196.1 472.64 186.81 467.27 177.52"/><polygon class="cls-3" points="451.2 372.62 440.47 372.62 435.11 381.91 440.47 391.2 451.2 391.2 456.56 381.91 451.2 372.62"/><polygon class="cls-3" points="451.2 354.04 440.47 354.04 435.11 363.33 440.47 372.62 451.2 372.62 456.56 363.33 451.2 354.04"/><polygon class="cls-3" points="451.2 335.45 440.47 335.45 435.11 344.75 440.47 354.04 451.2 354.04 456.56 344.75 451.2 335.45"/><polygon class="cls-3" points="451.2 316.87 440.47 316.87 435.11 326.16 440.47 335.45 451.2 335.45 456.56 326.16 451.2 316.87"/><polygon class="cls-3" points="451.2 298.29 440.47 298.29 435.11 307.58 440.47 316.87 451.2 316.87 456.56 307.58 451.2 298.29"/><polygon class="cls-3" points="451.2 279.71 440.47 279.71 435.11 289 440.47 298.29 451.2 298.29 456.56 289 451.2 279.71"/><polygon class="cls-3" points="451.2 261.13 440.47 261.13 435.11 270.42 440.47 279.71 451.2 279.71 456.56 270.42 451.2 261.13"/><polygon class="cls-3" points="451.2 242.55 440.47 242.55 435.11 251.84 440.47 261.13 451.2 261.13 456.56 251.84 451.2 242.55"/><polygon class="cls-3" points="451.2 223.97 440.47 223.97 435.11 233.26 440.47 242.55 451.2 242.55 456.56 233.26 451.2 223.97"/><polygon class="cls-3" points="451.2 205.39 440.47 205.39 435.11 214.68 440.47 223.97 451.2 223.97 456.56 214.68 451.2 205.39"/><polygon class="cls-3" points="451.2 186.81 440.47 186.81 435.11 196.1 440.47 205.39 451.2 205.39 456.56 196.1 451.2 186.81"/><polygon class="cls-3" points="451.2 168.23 440.47 168.23 435.11 177.52 440.47 186.81 451.2 186.81 456.56 177.52 451.2 168.23"/><polygon class="cls-3" points="435.13 326.16 424.4 326.16 419.04 335.45 424.4 344.75 435.13 344.75 440.49 335.45 435.13 326.16"/><polygon class="cls-3" points="435.13 307.58 424.4 307.58 419.04 316.87 424.4 326.16 435.13 326.16 440.49 316.87 435.13 307.58"/><polygon class="cls-3" points="435.13 289 424.4 289 419.04 298.29 424.4 307.58 435.13 307.58 440.49 298.29 435.13 289"/><polygon class="cls-3" points="435.13 270.42 424.4 270.42 419.04 279.71 424.4 289 435.13 289 440.49 279.71 435.13 270.42"/><polygon class="cls-3" points="435.13 251.84 424.4 251.84 419.04 261.13 424.4 270.42 435.13 270.42 440.49 261.13 435.13 251.84"/><polygon class="cls-3" points="435.13 233.26 424.4 233.26 419.04 242.55 424.4 251.84 435.13 251.84 440.49 242.55 435.13 233.26"/><polygon class="cls-3" points="435.13 214.68 424.4 214.68 419.04 223.97 424.4 233.26 435.13 233.26 440.49 223.97 435.13 214.68"/><polygon class="cls-3" points="435.13 196.1 424.4 196.1 419.04 205.39 424.4 214.68 435.13 214.68 440.49 205.39 435.13 196.1"/><polygon class="cls-3" points="435.13 177.52 424.4 177.52 419.04 186.81 424.4 196.1 435.13 196.1 440.49 186.81 435.13 177.52"/><polygon class="cls-3" points="435.13 158.94 424.4 158.94 419.04 168.23 424.4 177.52 435.13 177.52 440.49 168.23 435.13 158.94"/><polygon class="cls-3" points="419.06 298.29 408.33 298.29 402.96 307.58 408.33 316.87 419.06 316.87 424.42 307.58 419.06 298.29"/><polygon class="cls-3" points="419.06 279.71 408.33 279.71 402.96 289 408.33 298.29 419.06 298.29 424.42 289 419.06 279.71"/><polygon class="cls-3" points="419.06 223.97 408.33 223.97 402.96 233.26 408.33 242.55 419.06 242.55 424.42 233.26 419.06 223.97"/><polygon class="cls-3" points="419.06 205.39 408.33 205.39 402.96 214.68 408.33 223.97 419.06 223.97 424.42 214.68 419.06 205.39"/><polygon class="cls-3" points="419.06 186.81 408.33 186.81 402.96 196.1 408.33 205.39 419.06 205.39 424.42 196.1 419.06 186.81"/><polygon class="cls-3" points="419.06 168.23 408.33 168.23 402.96 177.52 408.33 186.81 419.06 186.81 424.42 177.52 419.06 168.23"/></g><g id="ON"><polygon class="cls-4" points="467.27 419.07 456.55 419.07 451.18 428.36 456.55 437.65 467.27 437.65 472.64 428.36 467.27 419.07"/><polygon class="cls-4" points="467.27 400.49 456.55 400.49 451.18 409.78 456.55 419.07 467.27 419.07 472.64 409.78 467.27 400.49"/><polygon class="cls-4" points="467.27 381.91 456.55 381.91 451.18 391.2 456.55 400.49 467.27 400.49 472.64 391.2 467.27 381.91"/><polygon class="cls-4" points="451.2 428.36 440.47 428.36 435.11 437.65 440.47 446.94 451.2 446.94 456.56 437.65 451.2 428.36"/><polygon class="cls-4" points="451.2 409.78 440.47 409.78 435.11 419.07 440.47 428.36 451.2 428.36 456.56 419.07 451.2 409.78"/><polygon class="cls-4" points="451.2 391.2 440.47 391.2 435.11 400.49 440.47 409.78 451.2 409.78 456.56 400.49 451.2 391.2"/><polygon class="cls-4" points="435.13 437.65 424.4 437.65 419.04 446.94 424.4 456.23 435.13 456.23 440.49 446.94 435.13 437.65"/><polygon class="cls-4" points="435.13 419.07 424.4 419.07 419.04 428.36 424.4 437.65 435.13 437.65 440.49 428.36 435.13 419.07"/><polygon class="cls-4" points="435.13 400.49 424.4 400.49 419.04 409.78 424.4 419.07 435.13 419.07 440.49 409.78 435.13 400.49"/><polygon class="cls-4" points="435.13 381.91 424.4 381.91 419.04 391.2 424.4 400.49 435.13 400.49 440.49 391.2 435.13 381.91"/><polygon class="cls-4" points="435.13 363.33 424.4 363.33 419.04 372.62 424.4 381.91 435.13 381.91 440.49 372.62 435.13 363.33"/><polygon class="cls-4" points="435.13 344.75 424.4 344.75 419.04 354.04 424.4 363.33 435.13 363.33 440.49 354.04 435.13 344.75"/><polygon class="cls-4" points="419.06 446.94 408.33 446.94 402.96 456.23 408.33 465.52 419.06 465.52 424.42 456.23 419.06 446.94"/><polygon class="cls-4" points="419.06 428.36 408.33 428.36 402.96 437.65 408.33 446.94 419.06 446.94 424.42 437.65 419.06 428.36"/><polygon class="cls-4" points="419.06 409.78 408.33 409.78 402.96 419.07 408.33 428.36 419.06 428.36 424.42 419.07 419.06 409.78"/><polygon class="cls-4" points="419.06 391.2 408.33 391.2 402.96 400.49 408.33 409.78 419.06 409.78 424.42 400.49 419.06 391.2"/><polygon class="cls-4" points="419.06 372.62 408.33 372.62 402.96 381.91 408.33 391.2 419.06 391.2 424.42 381.91 419.06 372.62"/><polygon class="cls-4" points="419.06 354.04 408.33 354.04 402.96 363.33 408.33 372.62 419.06 372.62 424.42 363.33 419.06 354.04"/><polygon class="cls-4" points="419.06 335.45 408.33 335.45 402.96 344.75 408.33 354.04 419.06 354.04 424.42 344.75 419.06 335.45"/><polygon class="cls-4" points="419.06 316.87 408.33 316.87 402.96 326.16 408.33 335.45 419.06 335.45 424.42 326.16 419.06 316.87"/><polygon class="cls-4" points="402.98 437.65 392.26 437.65 386.89 446.94 392.26 456.23 402.98 456.23 408.35 446.94 402.98 437.65"/><polygon class="cls-4" points="402.98 419.07 392.26 419.07 386.89 428.36 392.26 437.65 402.98 437.65 408.35 428.36 402.98 419.07"/><polygon class="cls-4" points="402.98 381.91 392.26 381.91 386.89 391.2 392.26 400.49 402.98 400.49 408.35 391.2 402.98 381.91"/><polygon class="cls-4" points="402.98 363.33 392.26 363.33 386.89 372.62 392.26 381.91 402.98 381.91 408.35 372.62 402.98 363.33"/><polygon class="cls-4" points="402.98 344.75 392.26 344.75 386.89 354.04 392.26 363.33 402.98 363.33 408.35 354.04 402.98 344.75"/><polygon class="cls-4" points="402.98 326.16 392.26 326.16 386.89 335.45 392.26 344.75 402.98 344.75 408.35 335.45 402.98 326.16"/><polygon class="cls-4" points="402.98 307.58 392.26 307.58 386.89 316.87 392.26 326.16 402.98 326.16 408.35 316.87 402.98 307.58"/><polygon class="cls-4" points="402.98 289 392.26 289 386.89 298.29 392.26 307.58 402.98 307.58 408.35 298.29 402.98 289"/><polygon class="cls-4" points="402.98 270.42 392.26 270.42 386.89 279.71 392.26 289 402.98 289 408.35 279.71 402.98 270.42"/><polygon class="cls-4" points="386.91 391.2 376.18 391.2 370.82 400.49 376.18 409.78 386.91 409.78 392.27 400.49 386.91 391.2"/><polygon class="cls-4" points="386.91 372.62 376.18 372.62 370.82 381.91 376.18 391.2 386.91 391.2 392.27 381.91 386.91 372.62"/><polygon class="cls-4" points="386.91 354.04 376.18 354.04 370.82 363.33 376.18 372.62 386.91 372.62 392.27 363.33 386.91 354.04"/><polygon class="cls-4" points="386.91 335.45 376.18 335.45 370.82 344.75 376.18 354.04 386.91 354.04 392.27 344.75 386.91 335.45"/><polygon class="cls-4" points="386.91 316.87 376.18 316.87 370.82 326.16 376.18 335.45 386.91 335.45 392.27 326.16 386.91 316.87"/><polygon class="cls-4" points="386.91 298.29 376.18 298.29 370.82 307.58 376.18 316.87 386.91 316.87 392.27 307.58 386.91 298.29"/><polygon class="cls-4" points="386.91 279.71 376.18 279.71 370.82 289 376.18 298.29 386.91 298.29 392.27 289 386.91 279.71"/><polygon class="cls-4" points="370.84 363.33 360.11 363.33 354.75 372.62 360.11 381.91 370.84 381.91 376.2 372.62 370.84 363.33"/><polygon class="cls-4" points="370.84 344.75 360.11 344.75 354.75 354.04 360.11 363.33 370.84 363.33 376.2 354.04 370.84 344.75"/><polygon class="cls-4" points="370.84 326.16 360.11 326.16 354.75 335.45 360.11 344.75 370.84 344.75 376.2 335.45 370.84 326.16"/><polygon class="cls-4" points="370.84 307.58 360.11 307.58 354.75 316.87 360.11 326.16 370.84 326.16 376.2 316.87 370.84 307.58"/><polygon class="cls-4" points="370.84 289 360.11 289 354.75 298.29 360.11 307.58 370.84 307.58 376.2 298.29 370.84 289"/><polygon class="cls-4" points="370.84 270.42 360.11 270.42 354.75 279.71 360.11 289 370.84 289 376.2 279.71 370.84 270.42"/><polygon class="cls-4" points="354.77 354.04 344.04 354.04 338.68 363.33 344.04 372.62 354.77 372.62 360.13 363.33 354.77 354.04"/><polygon class="cls-4" points="354.77 335.45 344.04 335.45 338.68 344.75 344.04 354.04 354.77 354.04 360.13 344.75 354.77 335.45"/><polygon class="cls-4" points="354.77 316.87 344.04 316.87 338.68 326.16 344.04 335.45 354.77 335.45 360.13 326.16 354.77 316.87"/><polygon class="cls-4" points="354.77 298.29 344.04 298.29 338.68 307.58 344.04 316.87 354.77 316.87 360.13 307.58 354.77 298.29"/><polygon class="cls-4" points="354.77 279.71 344.04 279.71 338.68 289 344.04 298.29 354.77 298.29 360.13 289 354.77 279.71"/><polygon class="cls-4" points="354.77 261.13 344.04 261.13 338.68 270.42 344.04 279.71 354.77 279.71 360.13 270.42 354.77 261.13"/><polygon class="cls-4" points="338.69 363.33 327.97 363.33 322.6 372.62 327.97 381.91 338.69 381.91 344.06 372.62 338.69 363.33"/><polygon class="cls-4" points="338.69 344.75 327.97 344.75 322.6 354.04 327.97 363.33 338.69 363.33 344.06 354.04 338.69 344.75"/><polygon class="cls-4" points="338.69 326.16 327.97 326.16 322.6 335.45 327.97 344.75 338.69 344.75 344.06 335.45 338.69 326.16"/><polygon class="cls-4" points="338.69 307.58 327.97 307.58 322.6 316.87 327.97 326.16 338.69 326.16 344.06 316.87 338.69 307.58"/><polygon class="cls-4" points="338.69 289 327.97 289 322.6 298.29 327.97 307.58 338.69 307.58 344.06 298.29 338.69 289"/><polygon class="cls-4" points="322.62 354.04 311.89 354.04 306.53 363.33 311.89 372.62 322.62 372.62 327.99 363.33 322.62 354.04"/><polygon class="cls-4" points="322.62 335.45 311.89 335.45 306.53 344.75 311.89 354.04 322.62 354.04 327.99 344.75 322.62 335.45"/><polygon class="cls-4" points="322.62 316.87 311.89 316.87 306.53 326.16 311.89 335.45 322.62 335.45 327.99 326.16 322.62 316.87"/><polygon class="cls-4" points="322.62 298.29 311.89 298.29 306.53 307.58 311.89 316.87 322.62 316.87 327.99 307.58 322.62 298.29"/></g><g id="MB"><polygon class="cls-5" points="338.69 270.42 327.97 270.42 322.6 279.71 327.97 289 338.69 289 344.06 279.71 338.69 270.42"/><polygon class="cls-5" points="338.69 251.84 327.97 251.84 322.6 261.13 327.97 270.42 338.69 270.42 344.06 261.13 338.69 251.84"/><polygon class="cls-5" points="322.62 279.71 311.89 279.71 306.53 289 311.89 298.29 322.62 298.29 327.99 289 322.62 279.71"/><polygon class="cls-5" points="322.62 261.13 311.89 261.13 306.53 270.42 311.89 279.71 322.62 279.71 327.99 270.42 322.62 261.13"/><polygon class="cls-5" points="322.62 242.55 311.89 242.55 306.53 251.84 311.89 261.13 322.62 261.13 327.99 251.84 322.62 242.55"/><polygon class="cls-5" points="322.62 223.97 311.89 223.97 306.53 233.26 311.89 242.55 322.62 242.55 327.99 233.26 322.62 223.97"/><polygon class="cls-5" points="306.55 344.75 295.82 344.75 290.46 354.04 295.82 363.33 306.55 363.33 311.91 354.04 306.55 344.75"/><polygon class="cls-5" points="306.55 326.16 295.82 326.16 290.46 335.45 295.82 344.75 306.55 344.75 311.91 335.45 306.55 326.16"/><polygon class="cls-5" points="306.55 307.58 295.82 307.58 290.46 316.87 295.82 326.16 306.55 326.16 311.91 316.87 306.55 307.58"/><polygon class="cls-5" points="306.55 289 295.82 289 290.46 298.29 295.82 307.58 306.55 307.58 311.91 298.29 306.55 289"/><polygon class="cls-5" points="306.55 270.42 295.82 270.42 290.46 279.71 295.82 289 306.55 289 311.91 279.71 306.55 270.42"/><polygon class="cls-5" points="306.55 251.84 295.82 251.84 290.46 261.13 295.82 270.42 306.55 270.42 311.91 261.13 306.55 251.84"/><polygon class="cls-5" points="306.55 233.26 295.82 233.26 290.46 242.55 295.82 251.84 306.55 251.84 311.91 242.55 306.55 233.26"/><polygon class="cls-5" points="306.55 214.68 295.82 214.68 290.46 223.97 295.82 233.26 306.55 233.26 311.91 223.97 306.55 214.68"/><polygon class="cls-5" points="290.48 354.04 279.75 354.04 274.39 363.33 279.75 372.62 290.48 372.62 295.84 363.33 290.48 354.04"/><polygon class="cls-5" points="290.48 335.45 279.75 335.45 274.39 344.75 279.75 354.04 290.48 354.04 295.84 344.75 290.48 335.45"/><polygon class="cls-5" points="290.48 316.87 279.75 316.87 274.39 326.16 279.75 335.45 290.48 335.45 295.84 326.16 290.48 316.87"/><polygon class="cls-5" points="290.48 298.29 279.75 298.29 274.39 307.58 279.75 316.87 290.48 316.87 295.84 307.58 290.48 298.29"/><polygon class="cls-5" points="290.48 279.71 279.75 279.71 274.39 289 279.75 298.29 290.48 298.29 295.84 289 290.48 279.71"/><polygon class="cls-5" points="290.48 261.13 279.75 261.13 274.39 270.42 279.75 279.71 290.48 279.71 295.84 270.42 290.48 261.13"/><polygon class="cls-5" points="290.48 242.55 279.75 242.55 274.39 251.84 279.75 261.13 290.48 261.13 295.84 251.84 290.48 242.55"/><polygon class="cls-5" points="290.48 223.97 279.75 223.97 274.39 233.26 279.75 242.55 290.48 242.55 295.84 233.26 290.48 223.97"/><polygon class="cls-5" points="290.48 205.39 279.75 205.39 274.39 214.68 279.75 223.97 290.48 223.97 295.84 214.68 290.48 205.39"/><polygon class="cls-5" points="274.4 344.75 263.68 344.75 258.31 354.04 263.68 363.33 274.4 363.33 279.77 354.04 274.4 344.75"/><polygon class="cls-5" points="274.4 326.16 263.68 326.16 258.31 335.45 263.68 344.75 274.4 344.75 279.77 335.45 274.4 326.16"/><polygon class="cls-5" points="274.4 307.58 263.68 307.58 258.31 316.87 263.68 326.16 274.4 326.16 279.77 316.87 274.4 307.58"/><polygon class="cls-5" points="274.4 289 263.68 289 258.31 298.29 263.68 307.58 274.4 307.58 279.77 298.29 274.4 289"/><polygon class="cls-5" points="274.4 270.42 263.68 270.42 258.31 279.71 263.68 289 274.4 289 279.77 279.71 274.4 270.42"/><polygon class="cls-5" points="274.4 251.84 263.68 251.84 258.31 261.13 263.68 270.42 274.4 270.42 279.77 261.13 274.4 251.84"/><polygon class="cls-5" points="274.4 233.26 263.68 233.26 258.31 242.55 263.68 251.84 274.4 251.84 279.77 242.55 274.4 233.26"/><polygon class="cls-5" points="274.4 214.68 263.68 214.68 258.31 223.97 263.68 233.26 274.4 233.26 279.77 223.97 274.4 214.68"/><polygon class="cls-5" points="274.4 196.1 263.68 196.1 258.31 205.39 263.68 214.68 274.4 214.68 279.77 205.39 274.4 196.1"/><polygon class="cls-5" points="258.33 335.45 247.6 335.45 242.24 344.75 247.6 354.04 258.33 354.04 263.7 344.75 258.33 335.45"/><polygon class="cls-5" points="258.33 316.87 247.6 316.87 242.24 326.16 247.6 335.45 258.33 335.45 263.7 326.16 258.33 316.87"/><polygon class="cls-5" points="258.33 298.29 247.6 298.29 242.24 307.58 247.6 316.87 258.33 316.87 263.7 307.58 258.33 298.29"/></g><g id="SK"><polygon class="cls-6" points="258.33 279.71 247.6 279.71 242.24 289 247.6 298.29 258.33 298.29 263.7 289 258.33 279.71"/><polygon class="cls-6" points="258.33 261.13 247.6 261.13 242.24 270.42 247.6 279.71 258.33 279.71 263.7 270.42 258.33 261.13"/><polygon class="cls-6" points="258.33 242.55 247.6 242.55 242.24 251.84 247.6 261.13 258.33 261.13 263.7 251.84 258.33 242.55"/><polygon class="cls-6" points="258.33 223.97 247.6 223.97 242.24 233.26 247.6 242.55 258.33 242.55 263.7 233.26 258.33 223.97"/><polygon class="cls-6" points="258.33 205.39 247.6 205.39 242.24 214.68 247.6 223.97 258.33 223.97 263.7 214.68 258.33 205.39"/><polygon class="cls-6" points="242.26 363.33 231.53 363.33 226.17 372.62 231.53 381.91 242.26 381.91 247.62 372.62 242.26 363.33"/><polygon class="cls-6" points="242.26 344.75 231.53 344.75 226.17 354.04 231.53 363.33 242.26 363.33 247.62 354.04 242.26 344.75"/><polygon class="cls-6" points="242.26 326.16 231.53 326.16 226.17 335.45 231.53 344.75 242.26 344.75 247.62 335.45 242.26 326.16"/><polygon class="cls-6" points="242.26 307.58 231.53 307.58 226.17 316.87 231.53 326.16 242.26 326.16 247.62 316.87 242.26 307.58"/><polygon class="cls-6" points="242.26 289 231.53 289 226.17 298.29 231.53 307.58 242.26 307.58 247.62 298.29 242.26 289"/><polygon class="cls-6" points="242.26 270.42 231.53 270.42 226.17 279.71 231.53 289 242.26 289 247.62 279.71 242.26 270.42"/><polygon class="cls-6" points="242.26 251.84 231.53 251.84 226.17 261.13 231.53 270.42 242.26 270.42 247.62 261.13 242.26 251.84"/><polygon class="cls-6" points="242.26 233.26 231.53 233.26 226.17 242.55 231.53 251.84 242.26 251.84 247.62 242.55 242.26 233.26"/><polygon class="cls-6" points="242.26 214.68 231.53 214.68 226.17 223.97 231.53 233.26 242.26 233.26 247.62 223.97 242.26 214.68"/><polygon class="cls-6" points="242.26 196.1 231.53 196.1 226.17 205.39 231.53 214.68 242.26 214.68 247.62 205.39 242.26 196.1"/><polygon class="cls-6" points="226.19 354.04 215.46 354.04 210.1 363.33 215.46 372.62 226.19 372.62 231.55 363.33 226.19 354.04"/><polygon class="cls-6" points="226.19 335.45 215.46 335.45 210.1 344.75 215.46 354.04 226.19 354.04 231.55 344.75 226.19 335.45"/><polygon class="cls-6" points="226.19 316.87 215.46 316.87 210.1 326.16 215.46 335.45 226.19 335.45 231.55 326.16 226.19 316.87"/><polygon class="cls-6" points="226.19 298.29 215.46 298.29 210.1 307.58 215.46 316.87 226.19 316.87 231.55 307.58 226.19 298.29"/><polygon class="cls-6" points="226.19 279.71 215.46 279.71 210.1 289 215.46 298.29 226.19 298.29 231.55 289 226.19 279.71"/><polygon class="cls-6" points="226.19 261.13 215.46 261.13 210.1 270.42 215.46 279.71 226.19 279.71 231.55 270.42 226.19 261.13"/><polygon class="cls-6" points="226.19 242.55 215.46 242.55 210.1 251.84 215.46 261.13 226.19 261.13 231.55 251.84 226.19 242.55"/><polygon class="cls-6" points="226.19 223.97 215.46 223.97 210.1 233.26 215.46 242.55 226.19 242.55 231.55 233.26 226.19 223.97"/><polygon class="cls-6" points="226.19 205.39 215.46 205.39 210.1 214.68 215.46 223.97 226.19 223.97 231.55 214.68 226.19 205.39"/><polygon class="cls-6" points="210.12 344.75 199.39 344.75 194.02 354.04 199.39 363.33 210.12 363.33 215.48 354.04 210.12 344.75"/><polygon class="cls-6" points="210.12 326.16 199.39 326.16 194.02 335.45 199.39 344.75 210.12 344.75 215.48 335.45 210.12 326.16"/><polygon class="cls-6" points="210.12 307.58 199.39 307.58 194.02 316.87 199.39 326.16 210.12 326.16 215.48 316.87 210.12 307.58"/><polygon class="cls-6" points="210.12 289 199.39 289 194.02 298.29 199.39 307.58 210.12 307.58 215.48 298.29 210.12 289"/><polygon class="cls-6" points="210.12 270.42 199.39 270.42 194.02 279.71 199.39 289 210.12 289 215.48 279.71 210.12 270.42"/><polygon class="cls-6" points="210.12 251.84 199.39 251.84 194.02 261.13 199.39 270.42 210.12 270.42 215.48 261.13 210.12 251.84"/><polygon class="cls-6" points="210.12 233.26 199.39 233.26 194.02 242.55 199.39 251.84 210.12 251.84 215.48 242.55 210.12 233.26"/><polygon class="cls-6" points="194.04 335.45 183.31 335.45 177.95 344.75 183.31 354.04 194.04 354.04 199.41 344.75 194.04 335.45"/><polygon class="cls-6" points="194.04 316.87 183.31 316.87 177.95 326.16 183.31 335.45 194.04 335.45 199.41 326.16 194.04 316.87"/></g><g id="NU"><polygon class="cls-7" points="354.77 149.65 344.04 149.65 338.68 158.94 344.04 168.23 354.77 168.23 360.13 158.94 354.77 149.65"/><polygon class="cls-7" points="354.77 131.07 344.04 131.07 338.68 140.36 344.04 149.65 354.77 149.65 360.13 140.36 354.77 131.07"/><polygon class="cls-7" points="354.77 112.48 344.04 112.48 338.68 121.78 344.04 131.07 354.77 131.07 360.13 121.78 354.77 112.48"/><polygon class="cls-7" points="354.77 93.9 344.04 93.9 338.68 103.19 344.04 112.48 354.77 112.48 360.13 103.19 354.77 93.9"/><polygon class="cls-7" points="338.69 158.94 327.97 158.94 322.6 168.23 327.97 177.52 338.69 177.52 344.06 168.23 338.69 158.94"/><polygon class="cls-7" points="338.69 140.36 327.97 140.36 322.6 149.65 327.97 158.94 338.69 158.94 344.06 149.65 338.69 140.36"/><polygon class="cls-7" points="338.69 121.78 327.97 121.78 322.6 131.07 327.97 140.36 338.69 140.36 344.06 131.07 338.69 121.78"/><polygon class="cls-7" points="338.69 103.19 327.97 103.19 322.6 112.48 327.97 121.78 338.69 121.78 344.06 112.48 338.69 103.19"/><polygon class="cls-7" points="338.69 84.61 327.97 84.61 322.6 93.9 327.97 103.19 338.69 103.19 344.06 93.9 338.69 84.61"/><polygon class="cls-7" points="322.62 186.81 311.89 186.81 306.53 196.1 311.89 205.39 322.62 205.39 327.99 196.1 322.62 186.81"/><polygon class="cls-7" points="322.62 168.23 311.89 168.23 306.53 177.52 311.89 186.81 322.62 186.81 327.99 177.52 322.62 168.23"/><polygon class="cls-7" points="322.62 149.65 311.89 149.65 306.53 158.94 311.89 168.23 322.62 168.23 327.99 158.94 322.62 149.65"/><polygon class="cls-7" points="322.62 131.07 311.89 131.07 306.53 140.36 311.89 149.65 322.62 149.65 327.99 140.36 322.62 131.07"/><polygon class="cls-7" points="322.62 112.48 311.89 112.48 306.53 121.78 311.89 131.07 322.62 131.07 327.99 121.78 322.62 112.48"/><polygon class="cls-7" points="322.62 93.9 311.89 93.9 306.53 103.19 311.89 112.48 322.62 112.48 327.99 103.19 322.62 93.9"/><polygon class="cls-7" points="322.62 75.32 311.89 75.32 306.53 84.61 311.89 93.9 322.62 93.9 327.99 84.61 322.62 75.32"/><polygon class="cls-7" points="306.55 196.1 295.82 196.1 290.46 205.39 295.82 214.68 306.55 214.68 311.91 205.39 306.55 196.1"/><polygon class="cls-7" points="306.55 177.52 295.82 177.52 290.46 186.81 295.82 196.1 306.55 196.1 311.91 186.81 306.55 177.52"/><polygon class="cls-7" points="306.55 158.94 295.82 158.94 290.46 168.23 295.82 177.52 306.55 177.52 311.91 168.23 306.55 158.94"/><polygon class="cls-7" points="306.55 140.36 295.82 140.36 290.46 149.65 295.82 158.94 306.55 158.94 311.91 149.65 306.55 140.36"/><polygon class="cls-7" points="306.55 121.78 295.82 121.78 290.46 131.07 295.82 140.36 306.55 140.36 311.91 131.07 306.55 121.78"/><polygon class="cls-7" points="306.55 103.19 295.82 103.19 290.46 112.48 295.82 121.78 306.55 121.78 311.91 112.48 306.55 103.19"/><polygon class="cls-7" points="306.55 84.61 295.82 84.61 290.46 93.9 295.82 103.19 306.55 103.19 311.91 93.9 306.55 84.61"/><polygon class="cls-7" points="306.55 66.03 295.82 66.03 290.46 75.32 295.82 84.61 306.55 84.61 311.91 75.32 306.55 66.03"/><polygon class="cls-7" points="290.48 186.81 279.75 186.81 274.39 196.1 279.75 205.39 290.48 205.39 295.84 196.1 290.48 186.81"/><polygon class="cls-7" points="290.48 168.23 279.75 168.23 274.39 177.52 279.75 186.81 290.48 186.81 295.84 177.52 290.48 168.23"/><polygon class="cls-7" points="290.48 149.65 279.75 149.65 274.39 158.94 279.75 168.23 290.48 168.23 295.84 158.94 290.48 149.65"/><polygon class="cls-7" points="290.48 131.07 279.75 131.07 274.39 140.36 279.75 149.65 290.48 149.65 295.84 140.36 290.48 131.07"/><polygon class="cls-7" points="290.48 112.48 279.75 112.48 274.39 121.78 279.75 131.07 290.48 131.07 295.84 121.78 290.48 112.48"/><polygon class="cls-7" points="290.48 93.9 279.75 93.9 274.39 103.19 279.75 112.48 290.48 112.48 295.84 103.19 290.48 93.9"/><polygon class="cls-7" points="290.48 75.32 279.75 75.32 274.39 84.61 279.75 93.9 290.48 93.9 295.84 84.61 290.48 75.32"/><polygon class="cls-7" points="274.4 177.52 263.68 177.52 258.31 186.81 263.68 196.1 274.4 196.1 279.77 186.81 274.4 177.52"/><polygon class="cls-7" points="274.4 158.94 263.68 158.94 258.31 168.23 263.68 177.52 274.4 177.52 279.77 168.23 274.4 158.94"/><polygon class="cls-7" points="274.4 140.36 263.68 140.36 258.31 149.65 263.68 158.94 274.4 158.94 279.77 149.65 274.4 140.36"/><polygon class="cls-7" points="274.4 121.78 263.68 121.78 258.31 131.07 263.68 140.36 274.4 140.36 279.77 131.07 274.4 121.78"/><polygon class="cls-7" points="274.4 103.19 263.68 103.19 258.31 112.48 263.68 121.78 274.4 121.78 279.77 112.48 274.4 103.19"/><polygon class="cls-7" points="274.4 84.61 263.68 84.61 258.31 93.9 263.68 103.19 274.4 103.19 279.77 93.9 274.4 84.61"/><polygon class="cls-7" points="274.4 66.03 263.68 66.03 258.31 75.32 263.68 84.61 274.4 84.61 279.77 75.32 274.4 66.03"/><polygon class="cls-7" points="274.4 47.45 263.68 47.45 258.31 56.74 263.68 66.03 274.4 66.03 279.77 56.74 274.4 47.45"/><polygon class="cls-7" points="274.4 28.87 263.68 28.87 258.31 38.16 263.68 47.45 274.4 47.45 279.77 38.16 274.4 28.87"/><polygon class="cls-7" points="258.33 131.07 247.6 131.07 242.24 140.36 247.6 149.65 258.33 149.65 263.7 140.36 258.33 131.07"/><polygon class="cls-7" points="258.33 112.48 247.6 112.48 242.24 121.78 247.6 131.07 258.33 131.07 263.7 121.78 258.33 112.48"/><polygon class="cls-7" points="258.33 93.9 247.6 93.9 242.24 103.19 247.6 112.48 258.33 112.48 263.7 103.19 258.33 93.9"/><polygon class="cls-7" points="258.33 75.32 247.6 75.32 242.24 84.61 247.6 93.9 258.33 93.9 263.7 84.61 258.33 75.32"/><polygon class="cls-7" points="258.33 56.74 247.6 56.74 242.24 66.03 247.6 75.32 258.33 75.32 263.7 66.03 258.33 56.74"/><polygon class="cls-7" points="258.33 38.16 247.6 38.16 242.24 47.45 247.6 56.74 258.33 56.74 263.7 47.45 258.33 38.16"/><polygon class="cls-7" points="258.33 19.58 247.6 19.58 242.24 28.87 247.6 38.16 258.33 38.16 263.7 28.87 258.33 19.58"/><polygon class="cls-7" points="242.26 121.78 231.53 121.78 226.17 131.07 231.53 140.36 242.26 140.36 247.62 131.07 242.26 121.78"/><polygon class="cls-7" points="242.26 103.19 231.53 103.19 226.17 112.48 231.53 121.78 242.26 121.78 247.62 112.48 242.26 103.19"/><polygon class="cls-7" points="242.26 84.61 231.53 84.61 226.17 93.9 231.53 103.19 242.26 103.19 247.62 93.9 242.26 84.61"/><polygon class="cls-7" points="242.26 66.03 231.53 66.03 226.17 75.32 231.53 84.61 242.26 84.61 247.62 75.32 242.26 66.03"/><polygon class="cls-7" points="242.26 47.45 231.53 47.45 226.17 56.74 231.53 66.03 242.26 66.03 247.62 56.74 242.26 47.45"/><polygon class="cls-7" points="242.26 28.87 231.53 28.87 226.17 38.16 231.53 47.45 242.26 47.45 247.62 38.16 242.26 28.87"/><polygon class="cls-7" points="226.19 112.48 215.46 112.48 210.1 121.78 215.46 131.07 226.19 131.07 231.55 121.78 226.19 112.48"/><polygon class="cls-7" points="226.19 93.9 215.46 93.9 210.1 103.19 215.46 112.48 226.19 112.48 231.55 103.19 226.19 93.9"/><polygon class="cls-7" points="226.19 75.32 215.46 75.32 210.1 84.61 215.46 93.9 226.19 93.9 231.55 84.61 226.19 75.32"/><polygon class="cls-7" points="226.19 56.74 215.46 56.74 210.1 66.03 215.46 75.32 226.19 75.32 231.55 66.03 226.19 56.74"/><polygon class="cls-7" points="226.19 38.16 215.46 38.16 210.1 47.45 215.46 56.74 226.19 56.74 231.55 47.45 226.19 38.16"/><polygon class="cls-7" points="210.12 84.61 199.39 84.61 194.02 93.9 199.39 103.19 210.12 103.19 215.48 93.9 210.12 84.61"/><polygon class="cls-7" points="210.12 66.03 199.39 66.03 194.02 75.32 199.39 84.61 210.12 84.61 215.48 75.32 210.12 66.03"/><polygon class="cls-7" points="210.12 47.45 199.39 47.45 194.02 56.74 199.39 66.03 210.12 66.03 215.48 56.74 210.12 47.45"/><polygon class="cls-7" points="210.12 28.87 199.39 28.87 194.02 38.16 199.39 47.45 210.12 47.45 215.48 38.16 210.12 28.87"/><polygon class="cls-7" points="194.04 75.32 183.31 75.32 177.95 84.61 183.31 93.9 194.04 93.9 199.41 84.61 194.04 75.32"/><polygon class="cls-7" points="194.04 56.74 183.31 56.74 177.95 66.03 183.31 75.32 194.04 75.32 199.41 66.03 194.04 56.74"/></g><g id="AB"><polygon class="cls-8" points="210.12 214.68 199.39 214.68 194.02 223.97 199.39 233.26 210.12 233.26 215.48 223.97 210.12 214.68"/><polygon class="cls-8" points="210.12 196.1 199.39 196.1 194.02 205.39 199.39 214.68 210.12 214.68 215.48 205.39 210.12 196.1"/><polygon class="cls-8" points="194.04 298.29 183.31 298.29 177.95 307.58 183.31 316.87 194.04 316.87 199.41 307.58 194.04 298.29"/><polygon class="cls-8" points="194.04 279.71 183.31 279.71 177.95 289 183.31 298.29 194.04 298.29 199.41 289 194.04 279.71"/><polygon class="cls-8" points="194.04 261.13 183.31 261.13 177.95 270.42 183.31 279.71 194.04 279.71 199.41 270.42 194.04 261.13"/><polygon class="cls-8" points="194.04 242.55 183.31 242.55 177.95 251.84 183.31 261.13 194.04 261.13 199.41 251.84 194.04 242.55"/><polygon class="cls-8" points="194.04 223.97 183.31 223.97 177.95 233.26 183.31 242.55 194.04 242.55 199.41 233.26 194.04 223.97"/><polygon class="cls-8" points="194.04 205.39 183.31 205.39 177.95 214.68 183.31 223.97 194.04 223.97 199.41 214.68 194.04 205.39"/><polygon class="cls-8" points="194.04 186.81 183.31 186.81 177.95 196.1 183.31 205.39 194.04 205.39 199.41 196.1 194.04 186.81"/><polygon class="cls-8" points="177.97 344.75 167.24 344.75 161.88 354.04 167.24 363.33 177.97 363.33 183.33 354.04 177.97 344.75"/><polygon class="cls-8" points="177.97 326.16 167.24 326.16 161.88 335.45 167.24 344.75 177.97 344.75 183.33 335.45 177.97 326.16"/><polygon class="cls-8" points="177.97 307.58 167.24 307.58 161.88 316.87 167.24 326.16 177.97 326.16 183.33 316.87 177.97 307.58"/><polygon class="cls-8" points="177.97 289 167.24 289 161.88 298.29 167.24 307.58 177.97 307.58 183.33 298.29 177.97 289"/><polygon class="cls-8" points="177.97 270.42 167.24 270.42 161.88 279.71 167.24 289 177.97 289 183.33 279.71 177.97 270.42"/><polygon class="cls-8" points="177.97 251.84 167.24 251.84 161.88 261.13 167.24 270.42 177.97 270.42 183.33 261.13 177.97 251.84"/><polygon class="cls-8" points="177.97 233.26 167.24 233.26 161.88 242.55 167.24 251.84 177.97 251.84 183.33 242.55 177.97 233.26"/><polygon class="cls-8" points="177.97 214.68 167.24 214.68 161.88 223.97 167.24 233.26 177.97 233.26 183.33 223.97 177.97 214.68"/><polygon class="cls-8" points="177.97 196.1 167.24 196.1 161.88 205.39 167.24 214.68 177.97 214.68 183.33 205.39 177.97 196.1"/><polygon class="cls-8" points="177.97 177.52 167.24 177.52 161.88 186.81 167.24 196.1 177.97 196.1 183.33 186.81 177.97 177.52"/><polygon class="cls-8" points="161.9 335.45 151.17 335.45 145.81 344.75 151.17 354.04 161.9 354.04 167.26 344.75 161.9 335.45"/><polygon class="cls-8" points="161.9 316.87 151.17 316.87 145.81 326.16 151.17 335.45 161.9 335.45 167.26 326.16 161.9 316.87"/><polygon class="cls-8" points="161.9 298.29 151.17 298.29 145.81 307.58 151.17 316.87 161.9 316.87 167.26 307.58 161.9 298.29"/><polygon class="cls-8" points="161.9 279.71 151.17 279.71 145.81 289 151.17 298.29 161.9 298.29 167.26 289 161.9 279.71"/><polygon class="cls-8" points="161.9 261.13 151.17 261.13 145.81 270.42 151.17 279.71 161.9 279.71 167.26 270.42 161.9 261.13"/><polygon class="cls-8" points="161.9 242.55 151.17 242.55 145.81 251.84 151.17 261.13 161.9 261.13 167.26 251.84 161.9 242.55"/><polygon class="cls-8" points="161.9 223.97 151.17 223.97 145.81 233.26 151.17 242.55 161.9 242.55 167.26 233.26 161.9 223.97"/><polygon class="cls-8" points="161.9 205.39 151.17 205.39 145.81 214.68 151.17 223.97 161.9 223.97 167.26 214.68 161.9 205.39"/><polygon class="cls-8" points="161.9 186.81 151.17 186.81 145.81 196.1 151.17 205.39 161.9 205.39 167.26 196.1 161.9 186.81"/><polygon class="cls-8" points="145.82 289 135.1 289 129.73 298.29 135.1 307.58 145.82 307.58 151.19 298.29 145.82 289"/><polygon class="cls-8" points="145.82 270.42 135.1 270.42 129.73 279.71 135.1 289 145.82 289 151.19 279.71 145.82 270.42"/><polygon class="cls-8" points="145.82 251.84 135.1 251.84 129.73 261.13 135.1 270.42 145.82 270.42 151.19 261.13 145.82 251.84"/><polygon class="cls-8" points="145.82 233.26 135.1 233.26 129.73 242.55 135.1 251.84 145.82 251.84 151.19 242.55 145.82 233.26"/><polygon class="cls-8" points="145.82 214.68 135.1 214.68 129.73 223.97 135.1 233.26 145.82 233.26 151.19 223.97 145.82 214.68"/><polygon class="cls-8" points="129.75 261.13 119.03 261.13 113.66 270.42 119.03 279.71 129.75 279.71 135.12 270.42 129.75 261.13"/></g><g id="NT"><polygon class="cls-9" points="258.33 186.81 247.6 186.81 242.24 196.1 247.6 205.39 258.33 205.39 263.7 196.1 258.33 186.81"/><polygon class="cls-9" points="258.33 168.23 247.6 168.23 242.24 177.52 247.6 186.81 258.33 186.81 263.7 177.52 258.33 168.23"/><polygon class="cls-9" points="258.33 149.65 247.6 149.65 242.24 158.94 247.6 168.23 258.33 168.23 263.7 158.94 258.33 149.65"/><polygon class="cls-9" points="242.26 177.52 231.53 177.52 226.17 186.81 231.53 196.1 242.26 196.1 247.62 186.81 242.26 177.52"/><polygon class="cls-9" points="242.26 158.94 231.53 158.94 226.17 168.23 231.53 177.52 242.26 177.52 247.62 168.23 242.26 158.94"/><polygon class="cls-9" points="242.26 140.36 231.53 140.36 226.17 149.65 231.53 158.94 242.26 158.94 247.62 149.65 242.26 140.36"/><polygon class="cls-9" points="226.19 186.81 215.46 186.81 210.1 196.1 215.46 205.39 226.19 205.39 231.55 196.1 226.19 186.81"/><polygon class="cls-9" points="226.19 168.23 215.46 168.23 210.1 177.52 215.46 186.81 226.19 186.81 231.55 177.52 226.19 168.23"/><polygon class="cls-9" points="226.19 149.65 215.46 149.65 210.1 158.94 215.46 168.23 226.19 168.23 231.55 158.94 226.19 149.65"/><polygon class="cls-9" points="226.19 131.07 215.46 131.07 210.1 140.36 215.46 149.65 226.19 149.65 231.55 140.36 226.19 131.07"/><polygon class="cls-9" points="210.12 177.52 199.39 177.52 194.02 186.81 199.39 196.1 210.12 196.1 215.48 186.81 210.12 177.52"/><polygon class="cls-9" points="210.12 158.94 199.39 158.94 194.02 168.23 199.39 177.52 210.12 177.52 215.48 168.23 210.12 158.94"/><polygon class="cls-9" points="210.12 140.36 199.39 140.36 194.02 149.65 199.39 158.94 210.12 158.94 215.48 149.65 210.12 140.36"/><polygon class="cls-9" points="210.12 121.78 199.39 121.78 194.02 131.07 199.39 140.36 210.12 140.36 215.48 131.07 210.12 121.78"/><polygon class="cls-9" points="210.12 103.19 199.39 103.19 194.02 112.48 199.39 121.78 210.12 121.78 215.48 112.48 210.12 103.19"/><polygon class="cls-9" points="194.04 168.23 183.31 168.23 177.95 177.52 183.31 186.81 194.04 186.81 199.41 177.52 194.04 168.23"/><polygon class="cls-9" points="194.04 149.65 183.31 149.65 177.95 158.94 183.31 168.23 194.04 168.23 199.41 158.94 194.04 149.65"/><polygon class="cls-9" points="194.04 131.07 183.31 131.07 177.95 140.36 183.31 149.65 194.04 149.65 199.41 140.36 194.04 131.07"/><polygon class="cls-9" points="194.04 112.48 183.31 112.48 177.95 121.78 183.31 131.07 194.04 131.07 199.41 121.78 194.04 112.48"/><polygon class="cls-9" points="194.04 93.9 183.31 93.9 177.95 103.19 183.31 112.48 194.04 112.48 199.41 103.19 194.04 93.9"/><polygon class="cls-9" points="177.97 158.94 167.24 158.94 161.88 168.23 167.24 177.52 177.97 177.52 183.33 168.23 177.97 158.94"/><polygon class="cls-9" points="177.97 140.36 167.24 140.36 161.88 149.65 167.24 158.94 177.97 158.94 183.33 149.65 177.97 140.36"/><polygon class="cls-9" points="177.97 121.78 167.24 121.78 161.88 131.07 167.24 140.36 177.97 140.36 183.33 131.07 177.97 121.78"/><polygon class="cls-9" points="177.97 103.19 167.24 103.19 161.88 112.48 167.24 121.78 177.97 121.78 183.33 112.48 177.97 103.19"/><polygon class="cls-9" points="177.97 84.61 167.24 84.61 161.88 93.9 167.24 103.19 177.97 103.19 183.33 93.9 177.97 84.61"/><polygon class="cls-9" points="177.97 66.03 167.24 66.03 161.88 75.32 167.24 84.61 177.97 84.61 183.33 75.32 177.97 66.03"/><polygon class="cls-9" points="177.97 47.45 167.24 47.45 161.88 56.74 167.24 66.03 177.97 66.03 183.33 56.74 177.97 47.45"/><polygon class="cls-9" points="161.9 168.23 151.17 168.23 145.81 177.52 151.17 186.81 161.9 186.81 167.26 177.52 161.9 168.23"/><polygon class="cls-9" points="161.9 149.65 151.17 149.65 145.81 158.94 151.17 168.23 161.9 168.23 167.26 158.94 161.9 149.65"/><polygon class="cls-9" points="161.9 131.07 151.17 131.07 145.81 140.36 151.17 149.65 161.9 149.65 167.26 140.36 161.9 131.07"/><polygon class="cls-9" points="161.9 112.48 151.17 112.48 145.81 121.78 151.17 131.07 161.9 131.07 167.26 121.78 161.9 112.48"/><polygon class="cls-9" points="161.9 93.9 151.17 93.9 145.81 103.19 151.17 112.48 161.9 112.48 167.26 103.19 161.9 93.9"/><polygon class="cls-9" points="161.9 75.32 151.17 75.32 145.81 84.61 151.17 93.9 161.9 93.9 167.26 84.61 161.9 75.32"/><polygon class="cls-9" points="161.9 56.74 151.17 56.74 145.81 66.03 151.17 75.32 161.9 75.32 167.26 66.03 161.9 56.74"/><polygon class="cls-9" points="161.9 38.16 151.17 38.16 145.81 47.45 151.17 56.74 161.9 56.74 167.26 47.45 161.9 38.16"/><polygon class="cls-9" points="145.82 158.94 135.1 158.94 129.73 168.23 135.1 177.52 145.82 177.52 151.19 168.23 145.82 158.94"/><polygon class="cls-9" points="145.82 140.36 135.1 140.36 129.73 149.65 135.1 158.94 145.82 158.94 151.19 149.65 145.82 140.36"/><polygon class="cls-9" points="145.82 121.78 135.1 121.78 129.73 131.07 135.1 140.36 145.82 140.36 151.19 131.07 145.82 121.78"/><polygon class="cls-9" points="145.82 103.19 135.1 103.19 129.73 112.48 135.1 121.78 145.82 121.78 151.19 112.48 145.82 103.19"/><polygon class="cls-9" points="145.82 84.61 135.1 84.61 129.73 93.9 135.1 103.19 145.82 103.19 151.19 93.9 145.82 84.61"/><polygon class="cls-9" points="145.82 66.03 135.1 66.03 129.73 75.32 135.1 84.61 145.82 84.61 151.19 75.32 145.82 66.03"/><polygon class="cls-9" points="145.82 47.45 135.1 47.45 129.73 56.74 135.1 66.03 145.82 66.03 151.19 56.74 145.82 47.45"/><polygon class="cls-9" points="145.82 28.87 135.1 28.87 129.73 38.16 135.1 47.45 145.82 47.45 151.19 38.16 145.82 28.87"/><polygon class="cls-9" points="129.75 149.65 119.03 149.65 113.66 158.94 119.03 168.23 129.75 168.23 135.12 158.94 129.75 149.65"/><polygon class="cls-9" points="129.75 131.07 119.03 131.07 113.66 140.36 119.03 149.65 129.75 149.65 135.12 140.36 129.75 131.07"/><polygon class="cls-9" points="129.75 112.48 119.03 112.48 113.66 121.78 119.03 131.07 129.75 131.07 135.12 121.78 129.75 112.48"/><polygon class="cls-9" points="129.75 93.9 119.03 93.9 113.66 103.19 119.03 112.48 129.75 112.48 135.12 103.19 129.75 93.9"/><polygon class="cls-9" points="129.75 75.32 119.03 75.32 113.66 84.61 119.03 93.9 129.75 93.9 135.12 84.61 129.75 75.32"/><polygon class="cls-9" points="129.75 56.74 119.03 56.74 113.66 66.03 119.03 75.32 129.75 75.32 135.12 66.03 129.75 56.74"/><polygon class="cls-9" points="129.75 38.16 119.03 38.16 113.66 47.45 119.03 56.74 129.75 56.74 135.12 47.45 129.75 38.16"/><polygon class="cls-9" points="129.75 19.58 119.03 19.58 113.66 28.87 119.03 38.16 129.75 38.16 135.12 28.87 129.75 19.58"/><polygon class="cls-9" points="113.68 140.36 102.95 140.36 97.59 149.65 102.95 158.94 113.68 158.94 119.04 149.65 113.68 140.36"/><polygon class="cls-9" points="113.68 121.78 102.95 121.78 97.59 131.07 102.95 140.36 113.68 140.36 119.04 131.07 113.68 121.78"/><polygon class="cls-9" points="113.68 103.19 102.95 103.19 97.59 112.48 102.95 121.78 113.68 121.78 119.04 112.48 113.68 103.19"/><polygon class="cls-9" points="113.68 84.61 102.95 84.61 97.59 93.9 102.95 103.19 113.68 103.19 119.04 93.9 113.68 84.61"/><polygon class="cls-9" points="113.68 66.03 102.95 66.03 97.59 75.32 102.95 84.61 113.68 84.61 119.04 75.32 113.68 66.03"/><polygon class="cls-9" points="113.68 47.45 102.95 47.45 97.59 56.74 102.95 66.03 113.68 66.03 119.04 56.74 113.68 47.45"/><polygon class="cls-9" points="113.68 28.87 102.95 28.87 97.59 38.16 102.95 47.45 113.68 47.45 119.04 38.16 113.68 28.87"/></g><g id="BC"><polygon class="cls-10" points="145.82 326.16 135.1 326.16 129.73 335.45 135.1 344.75 145.82 344.75 151.19 335.45 145.82 326.16"/><polygon class="cls-10" points="145.82 307.58 135.1 307.58 129.73 316.87 135.1 326.16 145.82 326.16 151.19 316.87 145.82 307.58"/><polygon class="cls-10" points="145.82 196.1 135.1 196.1 129.73 205.39 135.1 214.68 145.82 214.68 151.19 205.39 145.82 196.1"/><polygon class="cls-10" points="145.82 177.52 135.1 177.52 129.73 186.81 135.1 196.1 145.82 196.1 151.19 186.81 145.82 177.52"/><polygon class="cls-10" points="129.75 316.87 119.03 316.87 113.66 326.16 119.03 335.45 129.75 335.45 135.12 326.16 129.75 316.87"/><polygon class="cls-10" points="129.75 298.29 119.03 298.29 113.66 307.58 119.03 316.87 129.75 316.87 135.12 307.58 129.75 298.29"/><polygon class="cls-10" points="129.75 279.71 119.03 279.71 113.66 289 119.03 298.29 129.75 298.29 135.12 289 129.75 279.71"/><polygon class="cls-10" points="129.75 242.55 119.03 242.55 113.66 251.84 119.03 261.13 129.75 261.13 135.12 251.84 129.75 242.55"/><polygon class="cls-10" points="129.75 223.97 119.03 223.97 113.66 233.26 119.03 242.55 129.75 242.55 135.12 233.26 129.75 223.97"/><polygon class="cls-10" points="129.75 205.39 119.03 205.39 113.66 214.68 119.03 223.97 129.75 223.97 135.12 214.68 129.75 205.39"/><polygon class="cls-10" points="129.75 186.81 119.03 186.81 113.66 196.1 119.03 205.39 129.75 205.39 135.12 196.1 129.75 186.81"/><polygon class="cls-10" points="129.75 168.23 119.03 168.23 113.66 177.52 119.03 186.81 129.75 186.81 135.12 177.52 129.75 168.23"/><polygon class="cls-10" points="113.68 326.16 102.95 326.16 97.59 335.45 102.95 344.75 113.68 344.75 119.04 335.45 113.68 326.16"/><polygon class="cls-10" points="113.68 307.58 102.95 307.58 97.59 316.87 102.95 326.16 113.68 326.16 119.04 316.87 113.68 307.58"/><polygon class="cls-10" points="113.68 289 102.95 289 97.59 298.29 102.95 307.58 113.68 307.58 119.04 298.29 113.68 289"/><polygon class="cls-10" points="113.68 270.42 102.95 270.42 97.59 279.71 102.95 289 113.68 289 119.04 279.71 113.68 270.42"/><polygon class="cls-10" points="113.68 251.84 102.95 251.84 97.59 261.13 102.95 270.42 113.68 270.42 119.04 261.13 113.68 251.84"/><polygon class="cls-10" points="113.68 233.26 102.95 233.26 97.59 242.55 102.95 251.84 113.68 251.84 119.04 242.55 113.68 233.26"/><polygon class="cls-10" points="113.68 214.68 102.95 214.68 97.59 223.97 102.95 233.26 113.68 233.26 119.04 223.97 113.68 214.68"/><polygon class="cls-10" points="113.68 196.1 102.95 196.1 97.59 205.39 102.95 214.68 113.68 214.68 119.04 205.39 113.68 196.1"/><polygon class="cls-10" points="113.68 177.52 102.95 177.52 97.59 186.81 102.95 196.1 113.68 196.1 119.04 186.81 113.68 177.52"/><polygon class="cls-10" points="113.68 158.94 102.95 158.94 97.59 168.23 102.95 177.52 113.68 177.52 119.04 168.23 113.68 158.94"/><polygon class="cls-10" points="97.61 316.87 86.88 316.87 81.52 326.16 86.88 335.45 97.61 335.45 102.97 326.16 97.61 316.87"/><polygon class="cls-10" points="97.61 298.29 86.88 298.29 81.52 307.58 86.88 316.87 97.61 316.87 102.97 307.58 97.61 298.29"/><polygon class="cls-10" points="97.61 279.71 86.88 279.71 81.52 289 86.88 298.29 97.61 298.29 102.97 289 97.61 279.71"/><polygon class="cls-10" points="97.61 261.13 86.88 261.13 81.52 270.42 86.88 279.71 97.61 279.71 102.97 270.42 97.61 261.13"/><polygon class="cls-10" points="97.61 242.55 86.88 242.55 81.52 251.84 86.88 261.13 97.61 261.13 102.97 251.84 97.61 242.55"/><polygon class="cls-10" points="97.61 223.97 86.88 223.97 81.52 233.26 86.88 242.55 97.61 242.55 102.97 233.26 97.61 223.97"/><polygon class="cls-10" points="97.61 205.39 86.88 205.39 81.52 214.68 86.88 223.97 97.61 223.97 102.97 214.68 97.61 205.39"/><polygon class="cls-10" points="97.61 186.81 86.88 186.81 81.52 196.1 86.88 205.39 97.61 205.39 102.97 196.1 97.61 186.81"/><polygon class="cls-10" points="97.61 168.23 86.88 168.23 81.52 177.52 86.88 186.81 97.61 186.81 102.97 177.52 97.61 168.23"/><polygon class="cls-10" points="97.61 149.65 86.88 149.65 81.52 158.94 86.88 168.23 97.61 168.23 102.97 158.94 97.61 149.65"/><polygon class="cls-10" points="81.54 307.58 70.81 307.58 65.44 316.87 70.81 326.16 81.54 326.16 86.9 316.87 81.54 307.58"/><polygon class="cls-10" points="81.54 289 70.81 289 65.44 298.29 70.81 307.58 81.54 307.58 86.9 298.29 81.54 289"/><polygon class="cls-10" points="81.54 270.42 70.81 270.42 65.44 279.71 70.81 289 81.54 289 86.9 279.71 81.54 270.42"/><polygon class="cls-10" points="81.54 251.84 70.81 251.84 65.44 261.13 70.81 270.42 81.54 270.42 86.9 261.13 81.54 251.84"/><polygon class="cls-10" points="81.54 233.26 70.81 233.26 65.44 242.55 70.81 251.84 81.54 251.84 86.9 242.55 81.54 233.26"/><polygon class="cls-10" points="81.54 214.68 70.81 214.68 65.44 223.97 70.81 233.26 81.54 233.26 86.9 223.97 81.54 214.68"/><polygon class="cls-10" points="81.54 196.1 70.81 196.1 65.44 205.39 70.81 214.68 81.54 214.68 86.9 205.39 81.54 196.1"/><polygon class="cls-10" points="81.54 177.52 70.81 177.52 65.44 186.81 70.81 196.1 81.54 196.1 86.9 186.81 81.54 177.52"/><polygon class="cls-10" points="81.54 158.94 70.81 158.94 65.44 168.23 70.81 177.52 81.54 177.52 86.9 168.23 81.54 158.94"/><polygon class="cls-10" points="81.54 140.36 70.81 140.36 65.44 149.65 70.81 158.94 81.54 158.94 86.9 149.65 81.54 140.36"/><polygon class="cls-10" points="65.46 316.87 54.74 316.87 49.37 326.16 54.74 335.45 65.46 335.45 70.83 326.16 65.46 316.87"/><polygon class="cls-10" points="65.46 298.29 54.74 298.29 49.37 307.58 54.74 316.87 65.46 316.87 70.83 307.58 65.46 298.29"/><polygon class="cls-10" points="65.46 279.71 54.74 279.71 49.37 289 54.74 298.29 65.46 298.29 70.83 289 65.46 279.71"/><polygon class="cls-10" points="65.46 261.13 54.74 261.13 49.37 270.42 54.74 279.71 65.46 279.71 70.83 270.42 65.46 261.13"/><polygon class="cls-10" points="65.46 242.55 54.74 242.55 49.37 251.84 54.74 261.13 65.46 261.13 70.83 251.84 65.46 242.55"/><polygon class="cls-10" points="65.46 223.97 54.74 223.97 49.37 233.26 54.74 242.55 65.46 242.55 70.83 233.26 65.46 223.97"/><polygon class="cls-10" points="65.46 205.39 54.74 205.39 49.37 214.68 54.74 223.97 65.46 223.97 70.83 214.68 65.46 205.39"/><polygon class="cls-10" points="65.46 186.81 54.74 186.81 49.37 196.1 54.74 205.39 65.46 205.39 70.83 196.1 65.46 186.81"/><polygon class="cls-10" points="65.46 168.23 54.74 168.23 49.37 177.52 54.74 186.81 65.46 186.81 70.83 177.52 65.46 168.23"/><polygon class="cls-10" points="65.46 149.65 54.74 149.65 49.37 158.94 54.74 168.23 65.46 168.23 70.83 158.94 65.46 149.65"/><polygon class="cls-10" points="65.46 131.07 54.74 131.07 49.37 140.36 54.74 149.65 65.46 149.65 70.83 140.36 65.46 131.07"/><polygon class="cls-10" points="49.39 289 38.66 289 33.3 298.29 38.66 307.58 49.39 307.58 54.76 298.29 49.39 289"/><polygon class="cls-10" points="49.39 270.42 38.66 270.42 33.3 279.71 38.66 289 49.39 289 54.76 279.71 49.39 270.42"/><polygon class="cls-10" points="49.39 251.84 38.66 251.84 33.3 261.13 38.66 270.42 49.39 270.42 54.76 261.13 49.39 251.84"/><polygon class="cls-10" points="49.39 233.26 38.66 233.26 33.3 242.55 38.66 251.84 49.39 251.84 54.76 242.55 49.39 233.26"/><polygon class="cls-10" points="49.39 214.68 38.66 214.68 33.3 223.97 38.66 233.26 49.39 233.26 54.76 223.97 49.39 214.68"/><polygon class="cls-10" points="49.39 196.1 38.66 196.1 33.3 205.39 38.66 214.68 49.39 214.68 54.76 205.39 49.39 196.1"/><polygon class="cls-10" points="49.39 177.52 38.66 177.52 33.3 186.81 38.66 196.1 49.39 196.1 54.76 186.81 49.39 177.52"/><polygon class="cls-10" points="49.39 158.94 38.66 158.94 33.3 168.23 38.66 177.52 49.39 177.52 54.76 168.23 49.39 158.94"/><polygon class="cls-10" points="49.39 140.36 38.66 140.36 33.3 149.65 38.66 158.94 49.39 158.94 54.76 149.65 49.39 140.36"/><polygon class="cls-10" points="49.39 121.78 38.66 121.78 33.3 131.07 38.66 140.36 49.39 140.36 54.76 131.07 49.39 121.78"/><polygon class="cls-10" points="33.32 261.13 22.59 261.13 17.23 270.42 22.59 279.71 33.32 279.71 38.68 270.42 33.32 261.13"/><polygon class="cls-10" points="33.32 242.55 22.59 242.55 17.23 251.84 22.59 261.13 33.32 261.13 38.68 251.84 33.32 242.55"/><polygon class="cls-10" points="33.32 223.97 22.59 223.97 17.23 233.26 22.59 242.55 33.32 242.55 38.68 233.26 33.32 223.97"/><polygon class="cls-10" points="33.32 205.39 22.59 205.39 17.23 214.68 22.59 223.97 33.32 223.97 38.68 214.68 33.32 205.39"/><polygon class="cls-10" points="33.32 131.07 22.59 131.07 17.23 140.36 22.59 149.65 33.32 149.65 38.68 140.36 33.32 131.07"/></g><g id="YT"><polygon class="cls-11" points="113.68 10.29 102.95 10.29 97.59 19.58 102.95 28.87 113.68 28.87 119.04 19.58 113.68 10.29"/><polygon class="cls-11" points="97.61 131.07 86.88 131.07 81.52 140.36 86.88 149.65 97.61 149.65 102.97 140.36 97.61 131.07"/><polygon class="cls-11" points="97.61 112.48 86.88 112.48 81.52 121.78 86.88 131.07 97.61 131.07 102.97 121.78 97.61 112.48"/><polygon class="cls-11" points="97.61 93.9 86.88 93.9 81.52 103.19 86.88 112.48 97.61 112.48 102.97 103.19 97.61 93.9"/><polygon class="cls-11" points="97.61 75.32 86.88 75.32 81.52 84.61 86.88 93.9 97.61 93.9 102.97 84.61 97.61 75.32"/><polygon class="cls-11" points="97.61 56.74 86.88 56.74 81.52 66.03 86.88 75.32 97.61 75.32 102.97 66.03 97.61 56.74"/><polygon class="cls-11" points="97.61 38.16 86.88 38.16 81.52 47.45 86.88 56.74 97.61 56.74 102.97 47.45 97.61 38.16"/><polygon class="cls-11" points="97.61 19.58 86.88 19.58 81.52 28.87 86.88 38.16 97.61 38.16 102.97 28.87 97.61 19.58"/><polygon class="cls-11" points="97.61 1 86.88 1 81.52 10.29 86.88 19.58 97.61 19.58 102.97 10.29 97.61 1"/><polygon class="cls-11" points="81.54 121.78 70.81 121.78 65.44 131.07 70.81 140.36 81.54 140.36 86.9 131.07 81.54 121.78"/><polygon class="cls-11" points="81.54 103.19 70.81 103.19 65.44 112.48 70.81 121.78 81.54 121.78 86.9 112.48 81.54 103.19"/><polygon class="cls-11" points="81.54 84.61 70.81 84.61 65.44 93.9 70.81 103.19 81.54 103.19 86.9 93.9 81.54 84.61"/><polygon class="cls-11" points="81.54 66.03 70.81 66.03 65.44 75.32 70.81 84.61 81.54 84.61 86.9 75.32 81.54 66.03"/><polygon class="cls-11" points="81.54 47.45 70.81 47.45 65.44 56.74 70.81 66.03 81.54 66.03 86.9 56.74 81.54 47.45"/><polygon class="cls-11" points="81.54 28.87 70.81 28.87 65.44 38.16 70.81 47.45 81.54 47.45 86.9 38.16 81.54 28.87"/><polygon class="cls-11" points="81.54 10.29 70.81 10.29 65.44 19.58 70.81 28.87 81.54 28.87 86.9 19.58 81.54 10.29"/><polygon class="cls-11" points="65.46 112.48 54.74 112.48 49.37 121.78 54.74 131.07 65.46 131.07 70.83 121.78 65.46 112.48"/><polygon class="cls-11" points="65.46 93.9 54.74 93.9 49.37 103.19 54.74 112.48 65.46 112.48 70.83 103.19 65.46 93.9"/><polygon class="cls-11" points="65.46 75.32 54.74 75.32 49.37 84.61 54.74 93.9 65.46 93.9 70.83 84.61 65.46 75.32"/><polygon class="cls-11" points="65.46 56.74 54.74 56.74 49.37 66.03 54.74 75.32 65.46 75.32 70.83 66.03 65.46 56.74"/><polygon class="cls-11" points="65.46 38.16 54.74 38.16 49.37 47.45 54.74 56.74 65.46 56.74 70.83 47.45 65.46 38.16"/><polygon class="cls-11" points="65.46 19.58 54.74 19.58 49.37 28.87 54.74 38.16 65.46 38.16 70.83 28.87 65.46 19.58"/><polygon class="cls-11" points="49.39 103.19 38.66 103.19 33.3 112.48 38.66 121.78 49.39 121.78 54.76 112.48 49.39 103.19"/><polygon class="cls-11" points="49.39 84.61 38.66 84.61 33.3 93.9 38.66 103.19 49.39 103.19 54.76 93.9 49.39 84.61"/><polygon class="cls-11" points="49.39 66.03 38.66 66.03 33.3 75.32 38.66 84.61 49.39 84.61 54.76 75.32 49.39 66.03"/><polygon class="cls-11" points="49.39 47.45 38.66 47.45 33.3 56.74 38.66 66.03 49.39 66.03 54.76 56.74 49.39 47.45"/><polygon class="cls-11" points="49.39 28.87 38.66 28.87 33.3 38.16 38.66 47.45 49.39 47.45 54.76 38.16 49.39 28.87"/><polygon class="cls-11" points="33.32 112.48 22.59 112.48 17.23 121.78 22.59 131.07 33.32 131.07 38.68 121.78 33.32 112.48"/><polygon class="cls-11" points="33.32 93.9 22.59 93.9 17.23 103.19 22.59 112.48 33.32 112.48 38.68 103.19 33.32 93.9"/><polygon class="cls-11" points="33.32 75.32 22.59 75.32 17.23 84.61 22.59 93.9 33.32 93.9 38.68 84.61 33.32 75.32"/><polygon class="cls-11" points="33.32 56.74 22.59 56.74 17.23 66.03 22.59 75.32 33.32 75.32 38.68 66.03 33.32 56.74"/><polygon class="cls-11" points="17.25 84.61 6.52 84.61 1.16 93.9 6.52 103.19 17.25 103.19 22.61 93.9 17.25 84.61"/></g></svg>