<svg xmlns="http://www.w3.org/2000/svg" xmlns:xlink="http://www.w3.org/1999/xlink" viewBox="0 0 1381 659"><defs><style>.cls-1,.cls-3{fill:none;}.cls-2{clip-path:url(#clip-path);}.cls-3{stroke:#09a4a8;}.cls-3,.cls-4,.cls-5{stroke-miterlimit:10;}.cls-4{fill:#fcfcfc;}.cls-4,.cls-5{stroke:#000;}.cls-5{fill:#fff;}</style><clipPath id="clip-path"><rect class="cls-1" x="228.5" y="-21.5" width="960" height="561"/></clipPath></defs><title>city</title><g id="Grid"><g class="cls-2"><line class="cls-3" x1="-933.62" y1="539.49" x2="422.62" y2="-118.49"/><line class="cls-3" x1="-879.13" y1="539.49" x2="477.11" y2="-118.49"/><line class="cls-3" x1="-824.65" y1="539.49" x2="531.6" y2="-118.49"/><line class="cls-3" x1="-770.16" y1="539.49" x2="586.08" y2="-118.49"/><line class="cls-3" x1="-715.67" y1="539.49" x2="640.57" y2="-118.49"/><line class="cls-3" x1="-661.19" y1="539.49" x2="695.06" y2="-118.49"/><line class="cls-3" x1="-606.7" y1="539.49" x2="749.54" y2="-118.49"/><line class="cls-3" x1="-552.21" y1="539.49" x2="804.03" y2="-118.49"/><line class="cls-3" x1="-497.72" y1="539.49" x2="858.52" y2="-118.49"/><line class="cls-3" x1="-443.24" y1="539.49" x2="913.01" y2="-118.49"/><line class="cls-3" x1="-388.75" y1="539.49" x2="967.49" y2="-118.49"/><line class="cls-3" x1="-334.26" y1="539.49" x2="1021.98" y2="-118.49"/><line class="cls-3" x1="-279.78" y1="539.49" x2="1076.47" y2="-118.49"/><line class="cls-3" x1="-225.29" y1="539.49" x2="1130.96" y2="-118.49"/><line class="cls-3" x1="-170.8" y1="539.49" x2="1185.44" y2="-118.49"/><line class="cls-3" x1="-116.31" y1="539.49" x2="1239.93" y2="-118.49"/><line class="cls-3" x1="-61.83" y1="539.49" x2="1294.42" y2="-118.49"/><line class="cls-3" x1="-7.34" y1="539.49" x2="1348.9" y2="-118.49"/><line class="cls-3" x1="47.15" y1="539.49" x2="1403.39" y2="-118.49"/><line class="cls-3" x1="101.63" y1="539.49" x2="1457.88" y2="-118.49"/><line class="cls-3" x1="156.12" y1="539.49" x2="1512.37" y2="-118.49"/><line class="cls-3" x1="210.61" y1="539.49" x2="1566.85" y2="-118.49"/><line class="cls-3" x1="265.1" y1="539.49" x2="1621.34" y2="-118.49"/><line class="cls-3" x1="319.58" y1="539.49" x2="1675.83" y2="-118.49"/><line class="cls-3" x1="374.07" y1="539.49" x2="1730.31" y2="-118.49"/><line class="cls-3" x1="428.56" y1="539.49" x2="1784.8" y2="-118.49"/><line class="cls-3" x1="483.04" y1="539.49" x2="1839.29" y2="-118.49"/><line class="cls-3" x1="537.53" y1="539.49" x2="1893.78" y2="-118.49"/><line class="cls-3" x1="592.02" y1="539.49" x2="1948.26" y2="-118.49"/><line class="cls-3" x1="646.51" y1="539.49" x2="2002.75" y2="-118.49"/><line class="cls-3" x1="700.99" y1="539.49" x2="2057.24" y2="-118.49"/><line class="cls-3" x1="755.48" y1="539.49" x2="2111.72" y2="-118.49"/><line class="cls-3" x1="809.97" y1="539.49" x2="2166.21" y2="-118.49"/><line class="cls-3" x1="864.46" y1="539.49" x2="2220.7" y2="-118.49"/><line class="cls-3" x1="918.94" y1="539.49" x2="2275.19" y2="-118.49"/><line class="cls-3" x1="973.43" y1="539.49" x2="2329.67" y2="-118.49"/><line class="cls-3" x1="1027.92" y1="539.49" x2="2384.16" y2="-118.49"/><line class="cls-3" x1="1082.4" y1="539.49" x2="2438.65" y2="-118.49"/><line class="cls-3" x1="1136.89" y1="539.49" x2="2493.13" y2="-118.49"/><line class="cls-3" x1="1191.38" y1="539.49" x2="2547.62" y2="-118.49"/><line class="cls-3" x1="2547.62" y1="539.49" x2="1191.38" y2="-118.49"/><line class="cls-3" x1="2493.13" y1="539.49" x2="1136.89" y2="-118.49"/><line class="cls-3" x1="2438.65" y1="539.49" x2="1082.4" y2="-118.49"/><line class="cls-3" x1="2384.16" y1="539.49" x2="1027.92" y2="-118.49"/><line class="cls-3" x1="2329.67" y1="539.49" x2="973.43" y2="-118.49"/><line class="cls-3" x1="2275.19" y1="539.49" x2="918.94" y2="-118.49"/><line class="cls-3" x1="2220.7" y1="539.49" x2="864.46" y2="-118.49"/><line class="cls-3" x1="2166.21" y1="539.49" x2="809.97" y2="-118.49"/><line class="cls-3" x1="2111.72" y1="539.49" x2="755.48" y2="-118.49"/><line class="cls-3" x1="2057.24" y1="539.49" x2="700.99" y2="-118.49"/><line class="cls-3" x1="2002.75" y1="539.49" x2="646.51" y2="-118.49"/><line class="cls-3" x1="1948.26" y1="539.49" x2="592.02" y2="-118.49"/><line class="cls-3" x1="1893.78" y1="539.49" x2="537.53" y2="-118.49"/><line class="cls-3" x1="1839.29" y1="539.49" x2="483.04" y2="-118.49"/><line class="cls-3" x1="1784.8" y1="539.49" x2="428.56" y2="-118.49"/><line class="cls-3" x1="1730.31" y1="539.49" x2="374.07" y2="-118.49"/><line class="cls-3" x1="1675.83" y1="539.49" x2="319.58" y2="-118.49"/><line class="cls-3" x1="1621.34" y1="539.49" x2="265.1" y2="-118.49"/><line class="cls-3" x1="1566.85" y1="539.49" x2="210.61" y2="-118.49"/><line class="cls-3" x1="1512.37" y1="539.49" x2="156.12" y2="-118.49"/><line class="cls-3" x1="1457.88" y1="539.49" x2="101.63" y2="-118.49"/><line class="cls-3" x1="1403.39" y1="539.49" x2="47.15" y2="-118.49"/><line class="cls-3" x1="1348.9" y1="539.49" x2="-7.34" y2="-118.49"/><line class="cls-3" x1="1294.42" y1="539.49" x2="-61.83" y2="-118.49"/><line class="cls-3" x1="1239.93" y1="539.49" x2="-116.31" y2="-118.49"/><line class="cls-3" x1="1185.44" y1="539.49" x2="-170.8" y2="-118.49"/><line class="cls-3" x1="1130.96" y1="539.49" x2="-225.29" y2="-118.49"/><line class="cls-3" x1="1076.47" y1="539.49" x2="-279.78" y2="-118.49"/><line class="cls-3" x1="1021.98" y1="539.49" x2="-334.26" y2="-118.49"/><line class="cls-3" x1="967.49" y1="539.49" x2="-388.75" y2="-118.49"/><line class="cls-3" x1="913.01" y1="539.49" x2="-443.24" y2="-118.49"/><line class="cls-3" x1="858.52" y1="539.49" x2="-497.72" y2="-118.49"/><line class="cls-3" x1="804.03" y1="539.49" x2="-552.21" y2="-118.49"/><line class="cls-3" x1="749.54" y1="539.49" x2="-606.7" y2="-118.49"/><line class="cls-3" x1="695.06" y1="539.49" x2="-661.19" y2="-118.49"/><line class="cls-3" x1="640.57" y1="539.49" x2="-715.67" y2="-118.49"/><line class="cls-3" x1="586.08" y1="539.49" x2="-770.16" y2="-118.49"/><line class="cls-3" x1="531.6" y1="539.49" x2="-824.65" y2="-118.49"/><line class="cls-3" x1="477.11" y1="539.49" x2="-879.13" y2="-118.49"/><line class="cls-3" x1="422.62" y1="539.49" x2="-933.62" y2="-118.49"/></g></g><g id="fourty"><polyline class="cls-4" points="693.5 116.5 666.5 103.5 666.5 209.5 693.5 222.5"/><polygon class="cls-4" points="747.5 196.5 775.5 182.5 775.5 76.5 695.08 116.21 694.5 116.5 694.5 222.5 747.5 196.5"/><polygon class="cls-4" points="774.5 76.5 748.5 63.5 666.5 103.5 694.5 116.5 774.5 76.5"/></g><g id="twentyfour"><polygon class="cls-4" points="692.5 196.5 719.5 209.5 692.5 222.5 666.5 209.5 692.5 196.5"/><polyline class="cls-4" points="692.5 223.24 719.5 209.5 719.5 289.5 693.5 302.5 666.5 289.5 666.5 209.5 692.5 223.24"/><line class="cls-4" x1="693.5" y1="302.5" x2="692.5" y2="222.5"/></g><g id="twentythree"><polygon class="cls-4" points="884.5 289.5 911.5 302.5 884.5 315.5 858.5 302.5 884.5 289.5"/><polyline class="cls-4" points="884.5 316.24 911.5 302.5 911.5 382.5 885.5 395.5 858.5 382.5 858.5 302.5 884.5 316.24"/><line class="cls-4" x1="885.5" y1="395.5" x2="884.5" y2="315.5"/></g><g id="sixtyseven"><polygon class="cls-4" points="1075.5 91.5 1102.5 104.5 1075.5 117.5 1049.5 104.5 1075.5 91.5"/><polyline class="cls-4" points="1075.5 118.24 1102.5 104.5 1102.5 184.5 1076.5 197.5 1049.5 184.5 1049.5 104.5 1075.5 118.24"/><line class="cls-4" x1="1076.5" y1="197.5" x2="1075.5" y2="117.5"/></g><g id="twentysix"><polygon class="cls-4" points="802.5 273.78 830.5 260.5 830.5 128.5 803.5 142.5 802.5 273.78"/><polygon class="cls-4" points="803.5 142.5 748.5 115.5 776.5 102.5 830.5 128.5 803.5 142.5"/><polygon class="cls-4" points="748.5 115.5 748.5 248 775.5 234.5 802.5 247.5 803.5 142.5 748.5 115.5"/><polyline class="cls-4" points="748.5 248 802.5 273.78 803.5 142.5 748.5 115.5 748.5 248"/></g><g id="twentytwo"><polygon class="cls-4" points="639.5 115.5 666.5 128.5 639.5 141.5 613.5 128.5 639.5 115.5"/><polyline class="cls-4" points="639.5 142.24 666.5 128.5 666.5 208.5 640.5 221.5 613.5 208.5 613.5 128.5 639.5 142.24"/><line class="cls-4" x1="640.5" y1="221.5" x2="639.5" y2="141.5"/></g><g id="twentynine"><polygon class="cls-4" points="258.5 355.5 285.5 368.5 258.5 381.5 232.5 368.5 258.5 355.5"/><polyline class="cls-4" points="258.5 382.24 285.5 368.5 285.5 448.5 259.5 461.5 232.5 448.5 232.5 368.5 258.5 382.24"/><line class="cls-4" x1="259.5" y1="461.5" x2="258.5" y2="381.5"/></g><g id="fiftynine"><polygon class="cls-4" points="378.5 85.5 378.5 59.5 406.5 45.5 513.5 98.5 487.5 112.5 487.5 138.5 378.5 85.5"/><polygon class="cls-4" points="513.5 124.5 513.5 98.5 487.5 112.5 487.5 138.5 513.5 124.5"/><polyline class="cls-4" points="487.5 112.5 378.5 59.5 406.5 45.5 513.5 98.5 487.5 112.5"/></g><g id="fiftyeight"><polyline class="cls-4" points="434.5 111.5 324.5 164.5 324.5 111.5 433.5 58.5 433.5 111.5"/><polygon class="cls-4" points="324.5 164.5 298.5 151.5 298.5 98.5 324.5 111.5 324.5 164.5"/><polygon class="cls-4" points="324.5 111.5 433.5 58.5 406.5 45.5 298.99 98.5 324.5 111.5"/></g><g id="twentyone"><polygon class="cls-4" points="639.5 195.5 666.5 208.5 639.5 221.5 613.5 208.5 639.5 195.5"/><polyline class="cls-4" points="639.5 222.24 666.5 208.5 666.5 288.5 640.5 301.5 613.5 288.5 613.5 208.5 639.5 222.24"/><line class="cls-4" x1="640.5" y1="301.5" x2="639.5" y2="221.5"/></g><g id="twenty"><polygon class="cls-4" points="586.5 117.5 613.5 130.5 586.5 143.5 560.5 130.5 586.5 117.5"/><polyline class="cls-4" points="586.5 144.24 613.5 130.5 613.5 210.5 587.5 223.5 560.5 210.5 560.5 130.5 586.5 144.24"/><line class="cls-4" x1="587.5" y1="223.5" x2="586.5" y2="143.5"/></g><g id="eighteen"><polyline class="cls-4" points="858.5 433.5 803.5 407.5 803.5 354.5 885.28 394.61 859.05 407.44 912.5 433.5"/><polygon class="cls-4" points="831.5 341.5 940.5 394.5 913.5 407.5 939.5 420.5 912.5 433.5 885.5 420.5 858.5 407.5 885.5 394.5 831.5 368.5 803.5 354.5 831.5 341.5"/><polyline class="cls-4" points="940.5 394.5 940.5 420.5 912.5 433.5 912.5 486.5 858.5 460.5 858.5 407.5 912.5 433.5 912.5 486.5 940.5 473.5 940.5 393.5"/><polyline class="cls-4" points="939.85 394.81 913.72 407.39 940.08 420.7"/></g><g id="seventeen"><polyline class="cls-4" points="720.5 261.5 693.5 248.5 693.5 354.5 720.5 367.5"/><polygon class="cls-4" points="774.5 341.5 802.5 327.5 802.5 221.5 722.08 261.21 721.5 261.5 721.5 367.5 774.5 341.5"/><polygon class="cls-4" points="801.5 221.5 775.5 208.5 693.5 248.5 721.5 261.5 801.5 221.5"/></g><g id="sixtysix"><polyline class="cls-4" points="1164.5 156.5 1137.5 143.5 1137.5 249.5 1164.5 262.5"/><polygon class="cls-4" points="1218.5 236.5 1246.5 222.5 1246.5 116.5 1166.08 156.21 1165.5 156.5 1165.5 262.5 1218.5 236.5"/><polygon class="cls-4" points="1245.5 116.5 1219.5 103.5 1137.5 143.5 1165.5 156.5 1245.5 116.5"/></g><g id="fourtythree"><polyline class="cls-4" points="325.5 190.5 270.5 164.5 270.5 111.5 352.28 151.6 326.05 164.44 379.5 190.5"/><polygon class="cls-4" points="298.5 98.5 407.5 151.5 380.5 164.5 406.5 177.5 379.5 190.5 352.5 177.5 325.5 164.5 352.5 151.5 298.5 125.5 270.5 111.5 298.5 98.5"/><polyline class="cls-4" points="407.5 151.5 407.5 177.5 379.5 190.5 379.5 243.5 325.5 217.5 325.5 164.5 379.5 190.5 379.5 243.5 407.5 230.5 407.5 150.5"/><polyline class="cls-4" points="406.85 151.81 380.72 164.39 407.08 177.7"/></g><g id="twentyeight"><polyline class="cls-4" points="857.5 167.5 830.5 154.5 830.5 260.5 857.5 273.5"/><polygon class="cls-4" points="911.5 247.5 939.5 233.5 939.5 127.5 859.08 167.21 858.5 167.5 858.5 273.5 911.5 247.5"/><polygon class="cls-4" points="938.5 127.5 912.5 114.5 830.5 154.5 858.5 167.5 938.5 127.5"/></g><g id="thirtynine"><polygon class="cls-4" points="722.5 342.5 749.5 355.5 722.5 368.5 696.5 355.5 722.5 342.5"/><polyline class="cls-4" points="722.5 369.24 749.5 355.5 749.5 435.5 723.5 448.5 696.5 435.5 696.5 355.5 722.5 369.24"/><line class="cls-4" x1="723.5" y1="448.5" x2="722.5" y2="368.5"/></g><g id="fourtytwo"><polyline class="cls-4" points="434.5 243.5 324.5 296.5 324.5 243.5 433.5 190.5 433.5 243.5"/><polygon class="cls-4" points="324.5 296.5 298.5 283.5 298.5 230.5 324.5 243.5 324.5 296.5"/><polygon class="cls-4" points="324.5 243.5 433.5 190.5 406.5 177.5 298.99 230.5 324.5 243.5"/></g><g id="sixteen"><polygon class="cls-4" points="586.5 354.5 586.5 328.5 560.5 342.5 560.5 368.5 586.5 354.5"/><polygon class="cls-4" points="451.5 315.5 451.5 289.5 479.5 275.5 586.5 328.5 560.5 342.5 560.5 368.5 451.5 315.5"/><line class="cls-4" x1="451.5" y1="289.5" x2="560.5" y2="342.5"/></g><g id="nineteen"><polyline class="cls-4" points="533.5 407.5 478.5 381.5 478.5 328.5 560.28 368.61 534.05 381.44 587.5 407.5"/><polygon class="cls-4" points="506.5 315.5 615.5 368.5 588.5 381.5 614.5 394.5 587.5 407.5 560.5 394.5 533.5 381.5 560.5 368.5 506.5 342.5 478.5 328.5 506.5 315.5"/><polyline class="cls-4" points="615.5 368.5 615.5 394.5 587.5 407.5 587.5 460.5 533.5 434.5 533.5 381.5 587.5 407.5 587.5 460.5 615.5 447.5 615.5 367.5"/><polyline class="cls-4" points="614.85 368.81 588.72 381.39 615.08 394.7"/></g><g id="fourteen"><polyline class="cls-4" points="502.5 263.5 392.5 316.5 392.5 263.5 501.5 210.5 501.5 263.5"/><polygon class="cls-4" points="392.5 316.5 366.5 303.5 366.5 250.5 392.5 263.5 392.5 316.5"/><polygon class="cls-4" points="392.5 263.5 501.5 210.5 474.5 197.5 366.99 250.5 392.5 263.5"/></g><g id="thirteen"><polyline class="cls-4" points="859.5 460.5 749.5 513.5 749.5 460.5 858.5 407.5 858.5 460.5"/><polygon class="cls-4" points="749.5 513.5 723.5 500.5 723.5 447.5 749.5 460.5 749.5 513.5"/><polygon class="cls-4" points="749.5 460.5 858.5 407.5 831.5 394.5 723.99 447.5 749.5 460.5"/></g><g id="fifty"><polyline class="cls-4" points="806.5 593.5 696.5 646.5 696.5 593.5 805.5 540.5 805.5 593.5"/><polygon class="cls-4" points="696.5 646.5 670.5 633.5 670.5 580.5 696.5 593.5 696.5 646.5"/><polygon class="cls-4" points="696.5 593.5 805.5 540.5 778.5 527.5 670.99 580.5 696.5 593.5"/></g><g id="twelve"><polygon class="cls-4" points="612.5 342.5 666.5 316.5 639.5 302.5 608.5 317.5 585.5 329.5 612.5 342.5"/><polygon class="cls-4" points="612.5 342.5 612.5 368.5 666.5 342.5 666.5 316.5 612.5 342.5"/><polygon class="cls-4" points="585.5 329.5 585.5 355.5 612.5 368.5 612.5 342.5 585.5 329.5"/></g><g id="eleven"><polygon class="cls-4" points="338.5 316.5 392.5 290.5 365.5 276.5 334.5 291.5 311.5 303.5 338.5 316.5"/><polygon class="cls-4" points="338.5 316.5 338.5 342.5 392.5 316.5 392.5 290.5 338.5 316.5"/><polygon class="cls-4" points="311.5 303.5 311.5 329.5 338.5 342.5 338.5 316.5 311.5 303.5"/></g><g id="fifteen"><polygon class="cls-4" points="585.5 301.78 613.5 288.5 613.5 156.5 586.5 170.5 585.5 301.78"/><polygon class="cls-4" points="586.5 170.5 531.5 143.5 559.5 130.5 613.5 156.5 586.5 170.5"/><polygon class="cls-4" points="531.5 143.5 531.5 276 558.5 262.5 585.5 275.5 586.5 170.5 531.5 143.5"/><polyline class="cls-4" points="531.5 276 585.5 301.78 586.5 170.5 531.5 143.5 531.5 276"/></g><g id="ten"><polygon class="cls-4" points="668.5 474.5 722.5 448.5 695.5 434.5 664.5 449.5 641.5 461.5 668.5 474.5"/><polygon class="cls-4" points="668.5 474.5 668.5 500.5 722.5 474.5 722.5 448.5 668.5 474.5"/><polygon class="cls-4" points="641.5 461.5 641.5 487.5 668.5 500.5 668.5 474.5 641.5 461.5"/></g><g id="nine"><polygon class="cls-4" points="473.5 117.5 500.5 130.5 473.5 143.5 447.5 130.5 473.5 117.5"/><polyline class="cls-4" points="473.5 144.24 447.5 130.5 447.5 210.5 474.5 223.5 500.5 210.5 500.5 130.5 473.5 144.24"/><line class="cls-4" x1="474.5" y1="223.5" x2="473.5" y2="143.5"/></g><g id="seventyfour"><polygon class="cls-4" points="234.5 263.78 262.5 250.5 262.5 118.5 235.5 132.5 234.5 263.78"/><polygon class="cls-4" points="235.5 132.5 180.5 105.5 208.5 92.5 262.5 118.5 235.5 132.5"/><polygon class="cls-4" points="180.5 105.5 180.5 238 207.5 224.5 234.5 237.5 235.5 132.5 180.5 105.5"/><polyline class="cls-4" points="180.5 238 234.5 263.78 235.5 132.5 180.5 105.5 180.5 238"/></g><g id="eight"><polyline class="cls-5" points="885.77 289.63 912 276.99 912 303.79 885.5 317.19 885.5 289.4 858.5 276.49 858.5 303.29 885.5 317.19"/><polygon class="cls-5" points="885 264 912 277 885 290 859 277 885 264"/></g><g id="seven"><polygon class="cls-4" points="477.5 302.5 477.5 276.5 505.5 262.5 612.5 315.5 586.5 329.5 586.5 355.5 477.5 302.5"/><polygon class="cls-4" points="612.5 341.5 612.5 315.5 586.5 329.5 586.5 355.5 612.5 341.5"/><polyline class="cls-4" points="586.5 329.5 477.5 276.5 505.5 262.5 612.5 315.5 586.5 329.5"/></g><g id="six"><polygon class="cls-4" points="259.5 461.5 259.5 435.5 287.5 421.5 394.5 474.5 368.5 488.5 368.5 514.5 259.5 461.5"/><polygon class="cls-4" points="394.5 500.5 394.5 474.5 368.5 488.5 368.5 514.5 394.5 500.5"/><polyline class="cls-4" points="368.5 488.5 259.5 435.5 287.5 421.5 394.5 474.5 368.5 488.5"/></g><g id="seventyone"><polygon class="cls-4" points="1163.5 210.5 1190.5 223.5 1163.5 236.5 1137.5 223.5 1163.5 210.5"/><polyline class="cls-4" points="1163.5 237.24 1190.5 223.5 1190.5 303.5 1164.5 316.5 1137.5 303.5 1137.5 223.5 1163.5 237.24"/><line class="cls-4" x1="1164.5" y1="316.5" x2="1163.5" y2="236.5"/></g><g id="thirtytwo"><polygon class="cls-4" points="939.5 233.5 939.5 207.5 967.5 193.5 1074.5 246.5 1048.5 260.5 1048.5 286.5 939.5 233.5"/><polygon class="cls-4" points="1074.5 272.5 1074.5 246.5 1048.5 260.5 1048.5 286.5 1074.5 272.5"/><polyline class="cls-4" points="1048.5 260.5 939.5 207.5 967.5 193.5 1074.5 246.5 1048.5 260.5"/><polygon class="cls-4" points="1081.5 329.5 1081.5 303.5 1109.5 289.5 1216.5 342.5 1190.5 356.5 1190.5 382.5 1081.5 329.5"/><polygon class="cls-4" points="1216.5 368.5 1216.5 342.5 1190.5 356.5 1190.5 382.5 1216.5 368.5"/><polyline class="cls-4" points="1190.5 356.5 1081.5 303.5 1109.5 289.5 1216.5 342.5 1190.5 356.5"/></g><g id="thirtyfive"><polyline class="cls-4" points="993.5 206.5 938.5 180.5 938.5 127.5 1020.28 167.6 994.05 180.44 1047.5 206.5"/><polygon class="cls-4" points="966.5 114.5 1075.5 167.5 1048.5 180.5 1074.5 193.5 1047.5 206.5 1020.5 193.5 993.5 180.5 1020.5 167.5 966.5 141.5 938.5 127.5 966.5 114.5"/><polyline class="cls-4" points="1075.5 167.5 1075.5 193.5 1047.5 206.5 1047.5 259.5 993.5 233.5 993.5 180.5 1047.5 206.5 1047.5 259.5 1075.5 246.5 1075.5 166.5"/><polyline class="cls-4" points="1074.85 167.81 1048.72 180.39 1075.08 193.7"/></g><g id="five"><polygon class="cls-4" points="587.5 407.5 587.5 381.5 615.5 367.5 722.5 420.5 696.5 434.5 696.5 460.5 587.5 407.5"/><polygon class="cls-4" points="722.5 446.5 722.5 420.5 696.5 434.5 696.5 460.5 722.5 446.5"/><polyline class="cls-4" points="696.5 434.5 587.5 381.5 615.5 367.5 722.5 420.5 696.5 434.5"/></g><g id="four"><polyline class="cls-5" points="885.77 263.63 912 250.99 912 277.79 885.5 291.19 885.5 263.4 858.5 250.49 858.5 277.29 885.5 291.19"/><polygon class="cls-5" points="885 238 912 251 885 264 859 251 885 238"/></g><g id="sixtyeight"><polyline class="cls-5" points="235.77 288.63 262 275.99 262 302.79 235.5 316.19 235.5 288.4 208.5 275.49 208.5 302.29 235.5 316.19"/><polygon class="cls-5" points="235 263 262 276 235 289 209 276 235 263"/></g><g id="sixtytwo"><polyline class="cls-5" points="1101.77 258.63 1128 245.99 1128 272.79 1101.5 286.19 1101.5 258.4 1074.5 245.49 1074.5 272.29 1101.5 286.19"/><polygon class="cls-5" points="1101 233 1128 246 1101 259 1075 246 1101 233"/></g><g id="three"><polyline class="cls-5" points="338.77 288.63 365 275.99 365 302.79 338.5 316.19 338.5 288.4 311.5 275.49 311.5 302.29 338.5 316.19"/><polygon class="cls-5" points="338 263 365 276 338 289 312 276 338 263"/></g><g id="thirty"><polyline class="cls-5" points="831.77 341.63 858 328.99 858 355.79 831.5 369.19 831.5 341.4 804.5 328.49 804.5 355.29 831.5 369.19"/><polygon class="cls-5" points="831 316 858 329 831 342 805 329 831 316"/></g><g id="thirtyeight"><polyline class="cls-5" points="587.77 143.63 614 130.99 614 157.79 587.5 171.19 587.5 143.4 560.5 130.49 560.5 157.29 587.5 171.19"/><polygon class="cls-5" points="587 118 614 131 587 144 561 131 587 118"/></g><g id="sixty"><polyline class="cls-5" points="405.77 44.63 432 31.99 432 58.79 405.5 72.19 405.5 44.4 378.5 31.49 378.5 58.29 405.5 72.19"/><polygon class="cls-5" points="405 19 432 32 405 45 379 32 405 19"/></g><g id="thirtythree"><polyline class="cls-4" points="1075.5 407.5 965.5 460.5 965.5 407.5 1074.5 354.5 1074.5 407.5"/><polygon class="cls-4" points="965.5 460.5 939.5 447.5 939.5 394.5 965.5 407.5 965.5 460.5"/><polygon class="cls-4" points="965.5 407.5 1074.5 354.5 1047.5 341.5 939.99 394.5 965.5 407.5"/></g><g id="seventytwo"><polyline class="cls-4" points="1299.5 275.5 1189.5 328.5 1189.5 275.5 1298.5 222.5 1298.5 275.5"/><polygon class="cls-4" points="1189.5 328.5 1163.5 315.5 1163.5 262.5 1189.5 275.5 1189.5 328.5"/><polygon class="cls-4" points="1189.5 275.5 1298.5 222.5 1271.5 209.5 1163.99 262.5 1189.5 275.5"/></g><g id="two"><polyline class="cls-5" points="314.77 327.63 341 314.99 341 341.79 314.5 355.19 314.5 327.4 287.5 314.49 287.5 341.29 314.5 355.19"/><polygon class="cls-5" points="314 302 341 315 314 328 288 315 314 302"/></g><g id="one"><polyline class="cls-4" points="479.5 381.5 369.5 434.5 369.5 381.5 478.5 328.5 478.5 381.5"/><polygon class="cls-4" points="369.5 434.5 343.5 421.5 343.5 368.5 369.5 381.5 369.5 434.5"/><polygon class="cls-4" points="369.5 381.5 478.5 328.5 451.5 315.5 343.99 368.5 369.5 381.5"/></g><g id="thirtyone"><polyline class="cls-4" points="967.5 114.5 857.5 167.5 857.5 114.5 966.5 61.5 966.5 114.5"/><polygon class="cls-4" points="857.5 167.5 831.5 154.5 831.5 101.5 857.5 114.5 857.5 167.5"/><polygon class="cls-4" points="857.5 114.5 966.5 61.5 939.5 48.5 831.99 101.5 857.5 114.5"/></g><g id="twentyseven"><polygon class="cls-4" points="366.5 382.5 393.5 395.5 366.5 408.5 340.5 395.5 366.5 382.5"/><polyline class="cls-4" points="366.5 409.24 340.5 395.5 340.5 475.5 367.5 488.5 393.5 475.5 393.5 395.5 366.5 409.24"/><line class="cls-4" x1="367.5" y1="488.5" x2="366.5" y2="408.5"/></g><g id="fourtyeight"><polygon class="cls-4" points="722.5 420.5 749.5 433.5 722.5 446.5 696.5 433.5 722.5 420.5"/><polyline class="cls-4" points="722.5 447.24 749.5 433.5 749.5 513.5 723.5 526.5 696.5 513.5 696.5 433.5 722.5 447.24"/><line class="cls-4" x1="723.5" y1="526.5" x2="722.5" y2="446.5"/></g><g id="fiftyone"><polygon class="cls-4" points="696.5 487.5 723.5 500.5 696.5 513.5 670.5 500.5 696.5 487.5"/><polyline class="cls-4" points="696.5 514.24 723.5 500.5 723.5 580.5 697.5 593.5 670.5 580.5 670.5 500.5 696.5 514.24"/><line class="cls-4" x1="697.5" y1="593.5" x2="696.5" y2="513.5"/></g><g id="twentyfive"><polyline class="cls-4" points="449.5 473.5 394.5 447.5 394.5 394.5 476.28 434.61 450.05 447.44 503.5 473.5"/><polygon class="cls-4" points="422.5 381.5 531.5 434.5 504.5 447.5 530.5 460.5 503.5 473.5 476.5 460.5 449.5 447.5 476.5 434.5 422.5 408.5 394.5 394.5 422.5 381.5"/><polyline class="cls-4" points="531.5 434.5 531.5 460.5 503.5 473.5 503.5 526.5 449.5 500.5 449.5 447.5 503.5 473.5 503.5 526.5 531.5 513.5 531.5 433.5"/><polyline class="cls-4" points="530.85 434.81 504.72 447.39 531.08 460.7"/></g><g id="seventyfive"><polyline class="cls-4" points="126.5 315.5 71.5 289.5 71.5 236.5 153.28 276.61 127.05 289.44 180.5 315.5"/><polygon class="cls-4" points="99.5 223.5 208.5 276.5 181.5 289.5 207.5 302.5 180.5 315.5 153.5 302.5 126.5 289.5 153.5 276.5 99.5 250.5 71.5 236.5 99.5 223.5"/><polyline class="cls-4" points="208.5 276.5 208.5 302.5 180.5 315.5 180.5 368.5 126.5 342.5 126.5 289.5 180.5 315.5 180.5 368.5 208.5 355.5 208.5 275.5"/><polyline class="cls-4" points="207.85 276.81 181.72 289.39 208.08 302.7"/></g><g id="fourtyfive"><polygon class="cls-4" points="504.5 500.5 558.5 474.5 531.5 460.5 500.5 475.5 477.5 487.5 504.5 500.5"/><polygon class="cls-4" points="504.5 500.5 504.5 526.5 558.5 500.5 558.5 474.5 504.5 500.5"/><polygon class="cls-4" points="477.5 487.5 477.5 513.5 504.5 526.5 504.5 500.5 477.5 487.5"/></g><g id="fourtyone"><polygon class="cls-4" points="938.5 394.5 965.5 407.5 938.5 420.5 912.5 407.5 938.5 394.5"/><polyline class="cls-4" points="938.5 421.24 965.5 407.5 965.5 487.5 939.5 500.5 912.5 487.5 912.5 407.5 938.5 421.24"/><line class="cls-4" x1="939.5" y1="500.5" x2="938.5" y2="420.5"/></g><g id="thirtyfour"><polyline class="cls-4" points="1075.5 354.5 965.5 407.5 965.5 354.5 1074.5 301.5 1074.5 354.5"/><polygon class="cls-4" points="965.5 407.5 939.5 394.5 939.5 341.5 965.5 354.5 965.5 407.5"/><polygon class="cls-4" points="965.5 354.5 1074.5 301.5 1047.5 288.5 939.99 341.5 965.5 354.5"/></g><g id="fourtyseven"><polyline class="cls-4" points="558.5 552.5 503.5 526.5 503.5 473.5 585.28 513.61 559.05 526.44 612.5 552.5"/><polygon class="cls-4" points="531.5 460.5 640.5 513.5 613.5 526.5 639.5 539.5 612.5 552.5 585.5 539.5 558.5 526.5 585.5 513.5 531.5 487.5 503.5 473.5 531.5 460.5"/><polyline class="cls-4" points="640.5 513.5 640.5 539.5 612.5 552.5 612.5 605.5 558.5 579.5 558.5 526.5 612.5 552.5 612.5 605.5 640.5 592.5 640.5 512.5"/><polyline class="cls-4" points="639.85 513.81 613.72 526.39 640.08 539.7"/></g><g id="fourtynine"><polyline class="cls-4" points="861.5 540.5 806.5 514.5 806.5 461.5 888.28 501.61 862.05 514.44 915.5 540.5"/><polygon class="cls-4" points="834.5 448.5 943.5 501.5 916.5 514.5 942.5 527.5 915.5 540.5 888.5 527.5 861.5 514.5 888.5 501.5 834.5 475.5 806.5 461.5 834.5 448.5"/><polyline class="cls-4" points="943.5 501.5 943.5 527.5 915.5 540.5 915.5 593.5 861.5 567.5 861.5 514.5 915.5 540.5 915.5 593.5 943.5 580.5 943.5 500.5"/><polyline class="cls-4" points="942.85 501.81 916.72 514.39 943.08 527.7"/></g><g id="sixtyone"><polygon class="cls-4" points="1024.5 408.5 1051.5 421.5 1024.5 434.5 998.5 421.5 1024.5 408.5"/><polyline class="cls-4" points="1024.5 435.24 998.5 421.5 998.5 501.5 1025.5 514.5 1051.5 501.5 1051.5 421.5 1024.5 435.24"/><line class="cls-4" x1="1025.5" y1="514.5" x2="1024.5" y2="434.5"/></g><g id="sixtynine"><polyline class="cls-4" points="1102.5 446.5 1047.5 420.5 1047.5 367.5 1129.28 407.61 1103.05 420.44 1156.5 446.5"/><polygon class="cls-4" points="1075.5 354.5 1184.5 407.5 1157.5 420.5 1183.5 433.5 1156.5 446.5 1129.5 433.5 1102.5 420.5 1129.5 407.5 1075.5 381.5 1047.5 367.5 1075.5 354.5"/><polyline class="cls-4" points="1184.5 407.5 1184.5 433.5 1156.5 446.5 1156.5 499.5 1102.5 473.5 1102.5 420.5 1156.5 446.5 1156.5 499.5 1184.5 486.5 1184.5 406.5"/><polyline class="cls-4" points="1183.85 407.81 1157.72 420.39 1184.08 433.7"/></g><g id="seventy"><polyline class="cls-4" points="1050.5 553.5 940.5 606.5 940.5 553.5 1049.5 500.5 1049.5 553.5"/><polygon class="cls-4" points="940.5 606.5 914.5 593.5 914.5 540.5 940.5 553.5 940.5 606.5"/><polygon class="cls-4" points="940.5 553.5 1049.5 500.5 1022.5 487.5 914.99 540.5 940.5 553.5"/></g><g id="seventythree"><polygon class="cls-4" points="1271.5 129.5 1298.5 142.5 1271.5 155.5 1245.5 142.5 1271.5 129.5"/><polyline class="cls-4" points="1271.5 156.24 1245.5 142.5 1245.5 222.5 1272.5 235.5 1298.5 222.5 1298.5 142.5 1271.5 156.24"/><line class="cls-4" x1="1272.5" y1="235.5" x2="1271.5" y2="155.5"/></g><g id="fourtysix"><polyline class="cls-4" points="505.5 526.5 395.5 579.5 395.5 526.5 504.5 473.5 504.5 526.5"/><polygon class="cls-4" points="395.5 579.5 369.5 566.5 369.5 513.5 395.5 526.5 395.5 579.5"/><polygon class="cls-4" points="395.5 526.5 504.5 473.5 477.5 460.5 369.99 513.5 395.5 526.5"/></g><g id="fiftytwo"><polyline class="cls-5" points="259.77 355.63 286 342.99 286 369.79 259.5 383.19 259.5 355.4 232.5 342.49 232.5 369.29 259.5 383.19"/><polygon class="cls-5" points="259 330 286 343 259 356 233 343 259 330"/></g><g id="sixtyfive"><polyline class="cls-5" points="888.77 500.63 915 487.99 915 514.79 888.5 528.19 888.5 500.4 861.5 487.49 861.5 514.29 888.5 528.19"/><polygon class="cls-5" points="888 475 915 488 888 501 862 488 888 475"/></g><g id="fiftythree"><polygon class="cls-4" points="278.5 558.78 306.5 545.5 306.5 413.5 279.5 427.5 278.5 558.78"/><polygon class="cls-4" points="279.5 427.5 224.5 400.5 252.5 387.5 306.5 413.5 279.5 427.5"/><polygon class="cls-4" points="224.5 400.5 224.5 533 251.5 519.5 278.5 532.5 279.5 427.5 224.5 400.5"/><polyline class="cls-4" points="224.5 533 278.5 558.78 279.5 427.5 224.5 400.5 224.5 533"/></g><g id="sixtyfour"><polyline class="cls-4" points="530.5 591.5 475.5 565.5 475.5 512.5 557.28 552.61 531.05 565.44 584.5 591.5"/><polygon class="cls-4" points="503.5 499.5 612.5 552.5 585.5 565.5 611.5 578.5 584.5 591.5 557.5 578.5 530.5 565.5 557.5 552.5 503.5 526.5 475.5 512.5 503.5 499.5"/><polyline class="cls-4" points="612.5 552.5 612.5 578.5 584.5 591.5 584.5 644.5 530.5 618.5 530.5 565.5 584.5 591.5 584.5 644.5 612.5 631.5 612.5 551.5"/><polyline class="cls-4" points="611.85 552.81 585.72 565.39 612.08 578.7"/></g><g id="fiftyfour"><polygon class="cls-4" points="278.5 321.5 305.5 334.5 278.5 347.5 252.5 334.5 278.5 321.5"/><polyline class="cls-4" points="278.5 348.24 305.5 334.5 305.5 414.5 279.5 427.5 252.5 414.5 252.5 334.5 278.5 348.24"/><line class="cls-4" x1="279.5" y1="427.5" x2="278.5" y2="347.5"/></g><g id="fiftyfive"><polygon class="cls-4" points="278.5 558.5 278.5 532.5 306.5 518.5 413.5 571.5 387.5 585.5 387.5 611.5 278.5 558.5"/><polygon class="cls-4" points="413.5 597.5 413.5 571.5 387.5 585.5 387.5 611.5 413.5 597.5"/><polyline class="cls-4" points="387.5 585.5 278.5 532.5 306.5 518.5 413.5 571.5 387.5 585.5"/></g><g id="fiftysix"><polygon class="cls-4" points="585.5 513.5 639.5 487.5 612.5 473.5 581.5 488.5 558.5 500.5 585.5 513.5"/><polygon class="cls-4" points="585.5 513.5 585.5 539.5 639.5 513.5 639.5 487.5 585.5 513.5"/><polygon class="cls-4" points="558.5 500.5 558.5 526.5 585.5 539.5 585.5 513.5 558.5 500.5"/></g><g id="fiftyseven"><polygon class="cls-4" points="252.5 572.5 306.5 546.5 279.5 532.5 248.5 547.5 225.5 559.5 252.5 572.5"/><polygon class="cls-4" points="252.5 572.5 252.5 598.5 306.5 572.5 306.5 546.5 252.5 572.5"/><polygon class="cls-4" points="225.5 559.5 225.5 585.5 252.5 598.5 252.5 572.5 225.5 559.5"/></g><g id="sixtythree"><polygon class="cls-4" points="412.5 518.5 439.5 531.5 412.5 544.5 386.5 531.5 412.5 518.5"/><polyline class="cls-4" points="412.5 545.24 439.5 531.5 439.5 611.5 413.5 624.5 386.5 611.5 386.5 531.5 412.5 545.24"/><line class="cls-4" x1="413.5" y1="624.5" x2="412.5" y2="544.5"/></g><g id="seventysix"><polygon class="cls-4" points="278.5 242.5 305.5 255.5 278.5 268.5 252.5 255.5 278.5 242.5"/><polyline class="cls-4" points="278.5 269.24 305.5 255.5 305.5 335.5 279.5 348.5 252.5 335.5 252.5 255.5 278.5 269.24"/><line class="cls-4" x1="279.5" y1="348.5" x2="278.5" y2="268.5"/></g></svg>